<?xml version="1.0" encoding="utf-8"?>
<!-- Generator: Adobe Illustrator 19.2.1, SVG Export Plug-In . SVG Version: 6.00 Build 0)  -->
<svg version="1.1" id="Layer_1" xmlns="http://www.w3.org/2000/svg" xmlns:xlink="http://www.w3.org/1999/xlink" x="0px" y="0px"
	 viewBox="0 0 238.9 301" style="enable-background:new 0 0 238.9 301;" xml:space="preserve">
<style type="text/css">
	.st0{fill:#E7E7E7;}
	.st1{fill:#F16469;}
	.st2{fill:#29B99A;}
	.st3{font-family:'ArialMT';}
	.st4{font-size:13.5086px;}
</style>
<title>Wild_Kiwi_NZ_Discovery_Map</title>
<g id="Map">
	<path class="st0" d="M143.2,165.5l2-0.8l0.6-0.8l0.4-1.1V162l-0.5-1.1l-0.8,0.3c0,0-3.4,1.8-3.5,2c-0.4,0.1-0.8,0-1.3-0.1l-0.9-0.7
		l0.6-1.6l1.5-1.3v-1.3l-0.4,0.3l-1.3,1.6l-0.6,0.1l0.5-0.5l0.6-1.9l0.2-0.6l0.6-1.2l0.4-1.2l-0.4-0.4l-0.8,0.3l-1.2,1.5l0.4,1.7
		l-1,2.2l-0.7,0.8l-0.6,1.2l-2.2,0.3l-0.8,1.2l-1.5,0.7l-1.3,1.9c-0.5,0.5-1.1,0.9-1.8,1.2c-0.4-0.1-0.8-0.3-1.1-0.5v-1.2l-1.4-1.4
		v-1.2l-0.4-1.4l0.4-1.1v-3l-0.7-1.6l-1.3-0.1l-0.7,0.2l-1.1-0.4l-0.6-0.2l-0.8-0.4l-0.5-0.9l0.1-1l0.6-1.4l1.3-1.9h-2.6l-2.2,1.2
		l-2,1.5l-2.5,2.9l-1.3,1.4l-0.9,1.5v7.4l-1.3,3.8l-1.3,2.2l-1.7,2.2l-1.3,1.2l-4.8,1.5l-0.4,1.8l-1.5,4.6l-1.1,3.8l-1.3,2.4
		l-0.5,2.9l-0.8,2.2l-1.4,2.1l-1.7,2.2l-2.1,2.6l-1.4,1.9l-2.1,1.3l-2.5,0.8l-2.4,1.6l-1.3,0.8l-3.1,3.2c-0.3,0.5-0.6,1-1.1,1.4
		c-0.4,0.2-3.5,1.6-3.5,1.6l-3.2,4l-2.4,0.9l-3.5,2.6l-2.6,1.9l-2.1,2.4l-3.1,0.8h-1.6c-0.9,0.3-1.8,0.7-2.7,1.2
		c-0.4,0.1-0.9,0.1-1.3,0l-1.2,0.9l-0.7,0.7l-1.1,1.6l-1.3,1v1.2l-0.6,1.4l-1.3,0.4l-1.4,1.6l-0.4,2.7l-1.7,1.1l-1.3,0.9l-0.7,0.7
		l-1.3,1.4c0,0-2,2.1-2.3,2.3c-0.4,0.3-1.1,0.9-1.3,1.1c-0.3,0.2-1.3,1.4-1.6,1.6s-0.8,1.1-1.2,1.4c-0.4,0.6-0.8,1.2-1.1,1.9
		l-1.8,1.4l-1.8,1v2.1h-0.8l-1.5,1.2l-0.8,1.6l-0.3,2.2l-0.8,2.2l-0.6-0.1c-0.2-0.1-0.5-0.1-0.7,0l-1,1.4l-0.8,1.1h1.3l0.6,1.3
		l-0.5,1.1h-0.8l-0.5,0.4v2c0.2,0.6,0.4,1.1,0.7,1.6v1h1.1v0.3c-0.1,0.4-0.4,0.8-0.6,1.1l2.1,0.8l1.8-1.3v1.1l-1.8,1.4l-0.2,1.5
		l2.5,0.5l1.5-0.1l0.7-0.1l1.9,0.1l0.3,0.6l2.2,0.2l1.1-0.1l1.5-0.7l0.4-0.8l0.9-1.3h4l0.7,0.4c0.2,0.7,0.4,1.4,0.5,2.1
		c0,0.2,0,0.3,0.2,0.4l0.1,1.4l1.9,1l1.4-0.4l1.4-0.4l2.1,0.4l1.3,0.4l1.3,1.4l0.2,0.9L50,285v1.2l0.9,0.9l2.6-0.1l1.3-1l1.3-0.4
		l1.3,0.4l0.3,0.8l0.4,1.1l-0.2,0.7H64l2.2-1.4l0.8-0.6c0.5,0.1,1,0.1,1.5,0c0.6-0.3,1.1-0.6,1.7-0.9c0.8-0.5,0,0,0.3-0.6
		s0,0,0.2-0.3s1.4-0.2,3-0.7c1.5-0.5,0,0,0-0.3s-0.8-1.3-0.8-1.7c0.2-0.6,0.5-1.2,0.9-1.7l1.4-0.9c0.6-0.3,1.1-0.7,1.5-1.2
		c0.3-0.4,0.7-0.8,1.1-1.1l1.4-0.9l0.9-1l-0.1-0.9l0.3-0.6l1.3-1.2l0.8-0.4l2.8-0.8l1.8-0.7l2-0.8c0,0-0.2-1.1-0.3-1.4
		c0-0.2-0.1-0.3-0.2-0.4l-0.8-1c0,0-1.2-0.4-1.4-0.5c-0.3-0.1,0.4-1.4,0.4-1.4l1.1-1.1l1.2-1.6l0.6-1.3l1.3-2.8L91,257v-2l1.2-1.8
		l0.5-1.9l0.8-0.6l1.5-1l0.5-0.8l0.3-2.5c0,0-0.3-3.1-0.3-3.4c0.1-0.5,0.3-1,0.4-1.4l0.4-1.5l1-3.3l1.7-4l1.5-1.7
		c0,0,2.6-1.8,2.9-2.1s3.2-1.9,3.2-1.9l3.2-1.4l1.7-1.2l2-1.3h3.2l2.1-0.8l0.8-0.4l1.1,0.4l1.1,0.8l1.1,0.9l0.9,0.3l1.4,0.2l0.6-0.9
		l2-2.3l-0.5-1.2l-0.8-0.9l-1.2-0.4l-0.6-0.2l-1-0.8l-1.3-0.3l-1.1-1l-0.4-2.6v-2l0.1-0.9l0.3-2.2l0.6-0.5c1-0.6,2-1.3,3-2
		c1-0.8,2.1-1.5,3.2-2.2c0,0,2.2-1.8,2.4-2l1-0.6l1-1.2l0.6-2.5l1.1-2.8l2.6-3.4l1.1-1.5l1.3-1.7l2.1-2.2l0.3-1.6l1.3-2.2l1.5-2.3
		l1.9-3v-1.4l-0.5-0.5l-0.2-1.3l0.1-0.8l-0.5-0.8l-0.4-0.5l-0.1-0.5l-0.7-0.5l-0.4-0.8v-0.4l1-0.6l1.8-1.4v-1.4l-0.7-0.3l-1.4,1.4
		l-1.4,0.2c0-0.4,0-0.8,0.1-1.3C142.7,165.6,142.9,165.4,143.2,165.5C143.1,165.4,143.1,165.4,143.2,165.5"/>
	<path class="st0" d="M139.2,120.9c0,0,0.9,5,3.9,5.6c2.2,0.5,4.4,1.3,6.5,2.2l2,2.6l1.5,0.9h3l2,1.1l1.1,1.1h1.1l2.4,2.6v1.5l0.9,2
		v10.6l-2.2,2.6c0,0-1.7,0.7-1.7,1.5s-1.3,3-1.3,3c-0.4,0.7-0.9,1.3-1.5,1.8c-0.9,0.9-2.2,2-2.2,2l-1.3,2.8l1.1,1.6h2l1.5-1.8
		l0.7,1.8c0,0,0,1.4,0.7,1.2c0.6-0.2,1.2-0.5,1.7-1c0.2-0.3,0.5-0.3,0.7-0.2c0.1,0,0.1,0.1,0.2,0.2l0.6,0.6c0,0,1.1-1.1,0.9,0.4
		c-0.1,0.8-0.1,1.6,0,2.4v0.6c0.1,0.5,0.4,0.9,0.9,0.9h2.8l4.6-3.1l2.2-1.9l2.6-2.9l1.8-3.3l0.9-1.8l2.2-3.2V152l2.8-3.5l2.2-1.1
		l0.9-1.2l0.9-4l1.3-0.7l1.3-1.5l1.7-4.1l1.7-3.3l0.9-2.4v-1.1l-1.5-0.9l-1.1-1.8l-0.9-2v-3.3l1.8-2l3.1-1.3l2.2-1.3l3-1.3h5.7v3.7
		l1.8,0.7v-1.1l1.5-1.7V115l-1.3-1.5l-0.7-2v-1.3l0.7-1.3l1.3-1.1h1.5l1.1-2c0,0,1.7-1.1,1.8-1.7c0.2-0.6,0.8-2.8,0.8-2.8
		s-0.8-0.5-0.2-1s0.3-4,0.3-4c-0.1-0.6-0.1-1.2,0-1.8c0.1-0.6,0.1-1.3,0-1.9l0.1-1.5l2.5-2.8v-1l1.1-1.5l-1.7-1.5h-1.3l-1.1-1.3
		l-1.1-1.1h-3.9l-2.6,2.2l-2.5,1.9l-1.2,2.7l-1.3,1.3l-1,1.3l-1.8,0.7l-1.8,0.4H197l-3-0.4l-4.8-1.7l-2.8-1.3l-1.3-1.3l-2.4-1.1
		l-0.9-0.5l-1.1-0.7c-0.8-0.3-1.5-0.8-2.1-1.4c-0.4-0.6-1.1-0.6-1.1-1.1c0-0.6-1-1.6-1-2.1c-0.3-0.8-0.6-1.7-1.1-2.4l-1.3-4.4l0.6-3
		l-0.6-2.4l-1.7-2l0.9-0.9l-0.3-1.1l-3,1.1l-0.4-1.1l-0.3-1.7l-1.1-1.8l-1.8-1h-1.7L166,62l1.7,4.8l-0.6,1.3l0.7,1.5l-0.2,2.4
		l0.7,1.7l-0.7,1.8l-1.3,1.1l-1.3-1.5v-1.5l-0.4-1.7l-1.1-1.8l-2.4-0.4l-2.2-0.6l-0.6-0.9l-2.4-0.9l-0.2-1.3v-1.3l0.2-0.9l0.2-1.8
		l-0.4-1.8l-0.6-1.7l2.8-1.1l0.4-0.9l-2.2-1.8h-1.7l-0.9-2.2l-1.1-2.3l-1.1-1.1l-0.4-1.5l0.7-1.1l0.6-2.4l-0.6-2.8l-0.9-1.3
		l-0.9-1.1l-0.8-1.1l-0.4-2l0.4-2.2h-0.9l-2,0.9l-1.3,0.6h-1.1l-0.5-1.5l0.7-1.6l-1.1-0.2l-1.2-0.7l-1.2-1.5h-3.3c0,0-1.1,1.3-1.1,0
		v-2.1l-1.7,0.9c0,0-1.8,0.9-1.8,0.4c0.3-0.9,0.6-1.8,1.1-2.6h-3.3V28c0,0-2.8-3.1-2.8-3.7c0-0.6,0.7-1.8,0-2.4
		c-0.7-0.8-1.3-1.6-1.7-2.6v-2.2h-2.6l-0.9,1.1l-1.6,0.4l2.5,2.2v2.4l2.3,2.4l1.8,2l1.7,2l0.3,2.2l-2,0.9l0.7,1.5l2.1,1.8l1.1,3.4
		l1.1,0.7l1.1,2.6l1.3,1.5l1.5,1.8l1.3,1.1l1.1,1.3l3.3,4.6l0.9,1.8l2,4.6l1.3,1.6l0.8,1l0.7,1.3l1.7,2.4l0.6,2.5l1,3.3l1.3,2.3
		l1.3,1.9l0.8,3.1l0.3,1.9c1.3,1.5,1.8,5.3,1.8,5.3l-0.6,3.1l0.6,3.9l0.4,1.2l-2.5,0.7l0.3,2l-0.1,1.7l-1.1,1.8v1.8l-0.1,1.8
		l-1.1,2.3l-1.7,0.9l0.6,2.4l0.2,1.1l-0.2,1l-0.9,0.7l-3.1,0.8l-1.4,0.3c-0.8,0.1-1.6,0.3-2.4,0.7c-0.6,0.4-3.3,0.6-3.7,1.1
		c-0.4,0.6-2.4,1.3-2.4,1.3l0.7,1.8L139.2,120.9z"/>
</g>
<g id="Airplane">
	<path class="st0" d="M118.1,212.9l1.8-1.8l1.2,1.2l-1.8,1.8L118.1,212.9z M122.3,213.5l1.2,1.2l-1.8,1.8l-1.2-1.2L122.3,213.5z
		 M115.7,210.5l1.8-1.7l1.2,1.2l-1.9,1.8L115.7,210.5z M113.4,208l1.9-1.7l1.1,1.2l-1.9,1.7L113.4,208z M111.1,205.4l1.9-1.7
		l1.1,1.3l-1.9,1.7L111.1,205.4z M108.9,202.8l2-1.6l1.1,1.3l-1.9,1.6L108.9,202.8z M106.8,200.1l2-1.5c0.3,0.4,0.7,0.9,1,1.3
		l-2,1.6L106.8,200.1z M104.7,197.4l2-1.5c0.3,0.5,0.7,0.9,1,1.4l-2,1.5C105.4,198.3,105.1,197.8,104.7,197.4z M102.8,194.6l2.1-1.4
		c0.3,0.5,0.6,0.9,1,1.4l-2.1,1.5L102.8,194.6z M100.8,191.7l2.1-1.4l0.9,1.4l-2.1,1.4L100.8,191.7z M99,188.8l2.2-1.3
		c0.3,0.5,0.6,1,0.8,1.4l-2.2,1.3L99,188.8z M97.3,185.8l2.2-1.2c0.3,0.5,0.6,1,0.8,1.5l-2.2,1.3C97.9,186.8,97.6,186.3,97.3,185.8
		L97.3,185.8z M95.7,182.8l2.3-1.2c0.3,0.5,0.5,1,0.8,1.5l-2.2,1.2L95.7,182.8z M94.2,179.7l2.3-1.1c0.2,0.5,0.5,1,0.7,1.5l-2.3,1.1
		C94.7,180.7,94.4,180.2,94.2,179.7L94.2,179.7z M92.8,176.6l2.3-1c0.2,0.5,0.4,1,0.7,1.5l-2.3,1L92.8,176.6z M91.4,173.4l2.4-0.9
		c0.2,0.5,0.4,1,0.6,1.6l-2.3,1C91.9,174.5,91.7,174,91.4,173.4L91.4,173.4z M90.3,170.2l2.4-0.8c0.2,0.5,0.4,1,0.6,1.6l-2.4,0.8
		C90.6,171.3,90.4,170.8,90.3,170.2L90.3,170.2z M89.2,167l2.4-0.7c0.2,0.5,0.3,1.1,0.5,1.6l-2.4,0.8C89.5,168,89.3,167.5,89.2,167z
		 M88.2,163.7l2.4-0.7c0.1,0.6,0.3,1.1,0.4,1.6l-2.4,0.7C88.5,164.8,88.4,164.2,88.2,163.7L88.2,163.7z M87.4,160.3l2.5-0.6
		c0.1,0.5,0.3,1.1,0.4,1.6l-2.5,0.6C87.7,161.4,87.5,160.9,87.4,160.3L87.4,160.3z M86.7,156.9l2.5-0.5c0.1,0.6,0.2,1.1,0.3,1.6
		l-2.5,0.5C86.9,158.1,86.8,157.5,86.7,156.9L86.7,156.9z M86.2,153.5l2.5-0.4c0.1,0.6,0.2,1.1,0.2,1.7l-2.5,0.4
		C86.4,154.7,86.3,154.1,86.2,153.5L86.2,153.5z M85.8,150.1l2.5-0.2c0.1,0.5,0.1,1.1,0.2,1.7l-2.5,0.3
		C85.9,151.2,85.9,150.7,85.8,150.1z M85.5,146.7l2.5-0.1c0,0.6,0.1,1.1,0.1,1.7l-2.5,0.1C85.6,147.8,85.6,147.2,85.5,146.7z
		 M85.5,143.3H88c0,0.6,0,1.1,0,1.7l-2.5,0.1C85.5,144.4,85.5,143.8,85.5,143.3L85.5,143.3z M85.5,139.8l2.5,0.1
		c0,0.6,0,1.1-0.1,1.7l-2.5-0.1C85.5,140.9,85.5,140.4,85.5,139.8L85.5,139.8z M96.6,104l2.2,1.3c-0.3,0.5-0.6,0.9-0.8,1.4l-2.2-1.3
		C96,104.9,96.2,104.4,96.6,104L96.6,104z M98.4,101.1l2.1,1.4c-0.3,0.5-0.6,0.9-0.9,1.4l-2.1-1.4C97.8,102,98.1,101.5,98.4,101.1
		L98.4,101.1z M100.4,98.3l2,1.5c-0.3,0.4-0.7,0.9-1,1.3l-2.1-1.5C99.8,99.2,100.1,98.7,100.4,98.3L100.4,98.3z M102.6,95.6l2,1.6
		c-0.4,0.4-0.7,0.9-1,1.3l-2-1.6C101.8,96.4,102.2,96,102.6,95.6L102.6,95.6z M104.8,93l1.9,1.7c-0.4,0.4-0.7,0.8-1.1,1.3l-1.9-1.7
		C104,93.8,104.4,93.4,104.8,93L104.8,93z M107.1,90.4l1.8,1.8l-1.1,1.2l-1.9-1.7C106.3,91.2,106.7,90.8,107.1,90.4L107.1,90.4z
		 M108.4,89.2l1.2-1.2l1.8,1.8l-1.2,1.2L108.4,89.2z M110.8,86.8l1.3-1.2l1.7,1.9l-1.2,1.1L110.8,86.8z M113.4,84.5l1.3-1.1l1.6,2
		l-1.3,1.1L113.4,84.5z M116,82.3l1.3-1.1l1.5,2l-1.3,1L116,82.3z M118.7,80.2l1.4-1l1.5,2.1l-1.3,1L118.7,80.2z M121.5,78.3l1.4-1
		l1.4,2.1l-1.4,0.9L121.5,78.3z M124.4,76.4l1.5-0.9l1.3,2.2l-1.4,0.8L124.4,76.4z M127.3,74.6l1.5-0.8L130,76l-1.5,0.8L127.3,74.6z
		 M130.3,72.9l1.5-0.8l1.1,2.3l-1.5,0.8L130.3,72.9z M133.4,71.3l1.6-0.7l1.1,2.3l-1.5,0.7L133.4,71.3z M136.5,69.9l1.6-0.7l1,2.3
		l-1.5,0.7L136.5,69.9z M139.7,68.6l1.6-0.6l0.8,2.4l-1.6,0.6L139.7,68.6z M142.9,67.4l1.6-0.5l0.8,2.4l-1.6,0.5L142.9,67.4z
		 M146.2,66.4l1.7-0.5l0.7,2.4l-1.6,0.5L146.2,66.4z M149.5,65.4l1.7-0.4l0.6,2.5l-1.6,0.4L149.5,65.4z M152.9,64.7l1.7-0.3l0.5,2.5
		l-1.6,0.3L152.9,64.7z"/>
	<path class="st0" d="M89.2,134c0,0-1.5,2.9-2.8,2.6l0,0h-0.1l0,0c-1.2-0.5-0.8-3.7-0.8-3.7c0-1.6,1.5-6.2,1.5-6.2l-1-1.1l-0.2,0.7
		c-0.2,0.6-0.5,0.4-0.5,0.4l-1.4-0.4c-0.2-0.1-0.3-0.4-0.3-0.6l0.6-1.8l-1.3-1.5l-0.2,0.7c-0.1,0.4-0.4,0.3-0.4,0.3l-1.5-0.5
		c-0.2,0-0.3-0.2-0.3-0.4c0,0,0,0,0-0.1l0.6-1.9l-4.1-4.4l0.3-1.1l9.5,5.3l2.1,0.7c0.4-1.8,3-7.7,3-7.7l-4-4l0.4-1.5l4.9,2.9
		c0.5-1.1,1.1-2,1.9-2.9v0.1v-0.1c0.2,1.1,0.2,2.3,0,3.4l5.7,0.4l-0.5,1.5l-5.6,1.1c0,0-1.2,6.4-1.8,8.1L95,123l10.8,0.9l-0.3,1.1
		l-5.9,1.4l-0.5,1.9c-0.1,0.2-0.3,0.3-0.5,0.3c0,0,0,0-0.1,0l-1.5-0.5c0,0-0.2-0.1-0.1-0.5l0.2-0.7l-2,0.5l-0.5,1.8
		c-0.1,0.2-0.3,0.4-0.6,0.4l-1.4-0.4c0,0-0.3,0-0.1-0.6l0.2-0.7l-1.4,0.4C91.4,128,90.1,132.7,89.2,134"/>
</g>
<g id="Sth_Island_Bot_Route">
	<g id="Sth_Island_Bot_Route-2">
		<path class="st1" d="M84.5,210.7c0,2.1-1.7,3.8-3.8,3.8s-3.8-1.7-3.8-3.8s1.7-3.8,3.8-3.8l0,0C82.8,206.9,84.5,208.6,84.5,210.7"
			/>
		<path class="st1" d="M86.8,220.5c0,2.1-1.7,3.8-3.8,3.8c-2.1,0-3.8-1.7-3.8-3.8s1.7-3.8,3.8-3.8C85.1,216.7,86.8,218.4,86.8,220.5
			"/>
		<path class="st1" d="M66,246.7c0,2.1-1.7,3.8-3.8,3.8s-3.8-1.7-3.8-3.8c0-2.1,1.7-3.8,3.8-3.8C64.3,242.9,66,244.6,66,246.7
			L66,246.7"/>
		<path class="st1" d="M53.9,241c0,2.1-1.7,3.8-3.8,3.8s-3.8-1.7-3.8-3.8s1.7-3.8,3.8-3.8S53.9,238.9,53.9,241"/>
		<path class="st1" d="M128.4,216c0,3.4-2.8,6.2-6.2,6.2c-3.4,0-6.2-2.8-6.2-6.2s2.8-6.2,6.2-6.2C125.6,209.8,128.4,212.6,128.4,216
			L128.4,216"/>
		<path class="st1" d="M62.2,247.9c-0.7,0-1.2-0.5-1.3-1.2l-1.5-21.2c0-0.4,0.2-0.8,0.5-1.1l20-14.8c0.3-0.2,0.6-0.3,0.9-0.2
			l41.7,5.3c0.7,0,1.3,0.6,1.3,1.3s-0.6,1.3-1.3,1.3L83.7,222l-20.5,25.5C62.9,247.8,62.6,247.9,62.2,247.9z M62,226.1l1.2,17.3
			L82,220c0.2-0.3,0.5-0.4,0.8-0.5l29.3-3.6L81,212L62,226.1z"/>
		<path class="st0" d="M125.4,216c0,1.8-1.4,3.2-3.2,3.2c-1.8,0-3.2-1.4-3.2-3.2s1.4-3.2,3.2-3.2S125.4,214.2,125.4,216L125.4,216"
			/>
		<path class="st1" d="M56.4,245.2l0.8-1.9l1.3,0.6l-0.8,1.9L56.4,245.2z M53.8,244l0.8-1.9l1.3,0.6l-0.8,1.9L53.8,244z"/>
	</g>
</g>
<g id="Sth_Island_Top_Route">
	<g id="Sth_Island_Top_Route-2">
		<path class="st1" d="M98.7,194.7c0,2.1-1.7,3.8-3.8,3.8s-3.8-1.7-3.8-3.8s1.7-3.8,3.8-3.8S98.7,192.6,98.7,194.7L98.7,194.7"/>
		<path class="st1" d="M126.7,191.4c0,2.1-1.7,3.8-3.8,3.8s-3.8-1.7-3.8-3.8s1.7-3.8,3.8-3.8S126.7,189.3,126.7,191.4L126.7,191.4"
			/>
		<path class="st1" d="M143.2,190.4c0,2.1-1.7,3.8-3.8,3.8s-3.8-1.7-3.8-3.8s1.7-3.8,3.8-3.8S143.2,188.3,143.2,190.4"/>
		<path class="st1" d="M131.2,161.1c0,2.1-1.7,3.8-3.8,3.8c-2.1,0-3.8-1.7-3.8-3.8s1.7-3.8,3.8-3.8S131.2,159,131.2,161.1"/>
		<path class="st1" d="M108.2,176.7c0,2.1-1.7,3.8-3.8,3.8s-3.8-1.7-3.8-3.8s1.7-3.8,3.8-3.8l0,0
			C106.5,172.9,108.2,174.6,108.2,176.7"/>
		<path class="st1" d="M122.3,217.3c-0.3,0-0.5-0.1-0.8-0.3l-27.7-20.9c-0.5-0.4-0.6-1-0.4-1.6l9.5-18.4c0.1-0.2,0.2-0.4,0.4-0.5
			l23.3-15.6c0.6-0.4,1.4-0.2,1.8,0.4c0.1,0.2,0.2,0.5,0.2,0.7v5.9H144c0.7,0,1.3,0.6,1.3,1.3c0,0.1,0,0.2,0,0.3l-4.7,22.2
			c-0.1,0.6-0.6,1-1.2,1l-15.4,0.9l-0.5,23.4C123.6,216.7,123,217.3,122.3,217.3z M96.2,194.8l24.9,18.7l0.5-22.1
			c0-0.7,0.5-1.2,1.2-1.2l15.6-0.9l4.2-19.7h-15.2c-0.7,0-1.3-0.6-1.3-1.3v-4.7L105,177.7L96.2,194.8z"/>
		<path class="st1" d="M128.4,216c0,3.4-2.8,6.2-6.2,6.2c-3.4,0-6.2-2.8-6.2-6.2s2.8-6.2,6.2-6.2C125.6,209.8,128.4,212.6,128.4,216
			L128.4,216"/>
		<path class="st0" d="M125.4,216c0,1.8-1.4,3.2-3.2,3.2c-1.8,0-3.2-1.4-3.2-3.2s1.4-3.2,3.2-3.2S125.4,214.2,125.4,216L125.4,216"
			/>
	</g>
</g>
<g id="Christchurch">
	<g>
		<text transform="matrix(0.9987 0 0 1 123.8535 233.7285)" class="st2 st3 st4">C</text>
		<text transform="matrix(0.9987 0 0 1 133.0195 233.7285)" class="st2 st3 st4">h</text>
		<text transform="matrix(0.9987 0 0 1 141.2324 233.7285)" class="st2 st3 st4">r</text>
		<text transform="matrix(0.9987 0 0 1 147.0332 233.7285)" class="st2 st3 st4">i</text>
		<text transform="matrix(0.9987 0 0 1 150.9043 233.7285)" class="st2 st3 st4">s</text>
		<text transform="matrix(0.9987 0 0 1 157.6914 233.7285)" class="st2 st3 st4">t</text>
		<text transform="matrix(0.9987 0 0 1 163.2227 233.7285)" class="st2 st3 st4">c</text>
		<text transform="matrix(0.9987 0 0 1 170.1211 233.7285)" class="st2 st3 st4">h</text>
		<text transform="matrix(0.9987 0 0 1 178.3086 233.7285)" class="st2 st3 st4">u</text>
		<text transform="matrix(0.9987 0 0 1 186.4453 233.7285)" class="st2 st3 st4">r</text>
		<text transform="matrix(0.9987 0 0 1 192.1533 233.7285)" class="st2 st3 st4">c</text>
		<text transform="matrix(0.9987 0 0 1 199.043 233.7285)" class="st2 st3 st4">h</text>
	</g>
</g>
<g id="Nth_IslandsRoute">
	<g id="Nth_Island_Names">
		<g id="Nth_Island_Route">
			<path class="st1" d="M174.2,111.8l-1.7-1.2l0.8-1.2l1.7,1.2L174.2,111.8z M172.7,114.2L171,113l0.8-1.2l1.7,1.2L172.7,114.2z"/>
			<path class="st1" d="M178.1,68.8c0,2.1-1.7,3.8-3.8,3.8s-3.8-1.7-3.8-3.8c0-2.1,1.7-3.8,3.8-3.8C176.4,65,178.1,66.7,178.1,68.8
				L178.1,68.8"/>
			<path class="st1" d="M161.3,88c0,2.1-1.7,3.8-3.8,3.8s-3.8-1.7-3.8-3.8s1.7-3.8,3.8-3.8l0,0C159.6,84.2,161.3,85.9,161.3,88"/>
			<path class="st1" d="M165.1,98.5c0,2.1-1.7,3.8-3.8,3.8s-3.8-1.7-3.8-3.8c0-2.1,1.7-3.8,3.8-3.8S165.1,96.4,165.1,98.5"/>
			<path class="st1" d="M184.2,94.3c0,2.1-1.7,3.8-3.8,3.8s-3.8-1.7-3.8-3.8s1.7-3.8,3.8-3.8S184.2,92.2,184.2,94.3"/>
			<path class="st1" d="M180.4,106c0,2.1-1.7,3.8-3.8,3.8s-3.8-1.7-3.8-3.8s1.7-3.8,3.8-3.8S180.4,103.9,180.4,106"/>
			<path class="st1" d="M172.7,117.7c0,2.1-1.7,3.8-3.8,3.8s-3.8-1.7-3.8-3.8s1.7-3.8,3.8-3.8S172.7,115.7,172.7,117.7"/>
			<path class="st1" d="M176.4,107.3c-0.2,0-0.4,0-0.6-0.1l-15.2-7.6c-0.3-0.1-0.5-0.4-0.6-0.7l-3.8-10.4c0-0.1,0-0.1-0.1-0.2
				l-4.5-23c-0.1-0.7,0.3-1.4,1-1.5c0.4-0.1,0.8,0,1.1,0.3l13,12l6.7-8.2c0.4-0.5,1.2-0.6,1.8-0.2c0.2,0.2,0.4,0.4,0.4,0.7l5.8,25.5
				c0.1,0.2,0.1,0.5,0,0.7l-4,11.8c-0.1,0.3-0.4,0.6-0.7,0.8C176.8,107.3,176.6,107.3,176.4,107.3z M162.3,97.6l13.4,6.7l3.4-10.1
				l-5.2-22.7l-6,7.2c-0.2,0.3-0.5,0.4-0.9,0.5c-0.3,0-0.7-0.1-0.9-0.3L155,68.5l3.7,19.1L162.3,97.6z"/>
			<path class="st1" d="M159.7,65.6c0,3.4-2.8,6.2-6.2,6.2s-6.2-2.8-6.2-6.2c0-3.4,2.8-6.2,6.2-6.2c0.8,0,1.6,0.2,2.4,0.5
				C158.2,60.8,159.7,63.1,159.7,65.6"/>
			<path class="st0" d="M156.7,65.6c0,1.8-1.4,3.2-3.2,3.2s-3.2-1.4-3.2-3.2c0-1.8,1.4-3.2,3.2-3.2
				C155.2,62.4,156.7,63.8,156.7,65.6L156.7,65.6"/>
		</g>
	</g>
</g>
<g id="Auckland">
	<text transform="matrix(0.9987 0 0 1 83.6162 68.7881)" class="st2 st3 st4">Auckland</text>
</g>
</svg>
