<svg aria-hidden="true" style="position: absolute; width: 0; height: 0; overflow: hidden;" version="1.1" xmlns="http://www.w3.org/2000/svg" xmlns:xlink="http://www.w3.org/1999/xlink">
<defs>
<symbol id="icon-Play-Button" viewBox="0 0 32 32">
<title>Play-Button</title>
<path fill="#00bac0" style="fill: var(--color1, #00bac0)" d="M22.878 16l-10.082 5.040v-10.082l10.082 5.042zM32 16c0-8.837-7.163-16-16-16s-16 7.163-16 16c0 8.837 7.163 16 16 16s16-7.163 16-16z"></path>
</symbol>
<symbol id="icon-ETOA-MedSailors-01" viewBox="0 0 94 32">
<title>ETOA-MedSailors-01</title>
<path fill="#1c4b8b" style="fill: var(--color2, #1c4b8b)" d="M80.543 14.401l0.437-1.374 0.429 1.356 2.757 7.36h-6.373l2.75-7.342zM68.76 30.924h5.361l1.682-4.201h10.355l1.68 4.201h5.363l-12.22-30.553-12.221 30.553z"></path>
<path fill="#1c4b8b" style="fill: var(--color2, #1c4b8b)" d="M0 0.56v30.365h19.361v-4.979h-14.384v-8.586h9.288v-4.979h-9.288v-6.845h13.678v-4.978z"></path>
<path fill="#1c4b8b" style="fill: var(--color2, #1c4b8b)" d="M28.358 30.924v0h4.977v-25.387h6.855v-4.977h-18.933v4.977h7.101z"></path>
<path fill="#1c4b8b" style="fill: var(--color2, #1c4b8b)" d="M67.076 21.055v0l-2.136-0.709c-0.579 1.28-1.397 2.428-2.399 3.386l1.381 1.78-1.664-1.517c-0.779 0.695-1.658 1.279-2.614 1.729l0.061 3.988-2.376-3.205c-0.745 0.162-1.519 0.249-2.314 0.249-0.273 0-0.542-0.015-0.81-0.035l-0.4 2.217 0.016-2.25c-1.421-0.154-2.761-0.583-3.965-1.231l-1.263 1.86 0.929-2.050c-0.909-0.532-1.733-1.192-2.448-1.955l-3.777 1.293 2.314-3.251c-0.524-0.895-0.923-1.871-1.174-2.905l-2.229 0.306 2.142-0.681c0.011 0.053-0.225-1.396-0.225-2.21 0-0.662 0.063-1.311 0.176-1.941l-2.162-0.629 2.235 0.249c0.227-1.041 0.601-2.027 1.102-2.935l-2.394-3.19 3.807 1.196c0.697-0.781 1.505-1.461 2.398-2.014l-0.978-2.027 1.311 1.829c1.189-0.678 2.516-1.14 3.93-1.33l-0.071-2.25 0.454 2.204h-0.001c0.357-0.035 0.717-0.053 1.083-0.053 0.7 0 1.385 0.069 2.048 0.195l2.295-3.264 0.038 3.989c0.968 0.426 1.862 0.989 2.659 1.665-0.001-0.001-0.002-0.002-0.002-0.002l1.624-1.559-1.334 1.812c1.026 0.935 1.874 2.064 2.484 3.327l2.115-0.761-1.955 1.113c0.415 0.944 0.699 1.959 0.831 3.022l3.815 1.174-3.784 1.268c-0.105 1.067-0.366 2.088-0.757 3.041l1.983 1.063zM60.834 1.105c-8.146-3.21-17.385 0.808-20.593 8.956-3.21 8.149 0.808 17.389 8.954 20.598s17.385-0.808 20.595-8.957-0.808-17.387-8.955-20.597z"></path>
</symbol>
<symbol id="icon-ATAS-MedSailors-01" viewBox="0 0 51 32">
<title>ATAS-MedSailors-01</title>
<path fill="#1c4b8b" style="fill: var(--color2, #1c4b8b)" d="M7.545 8.925l2.035 5.806h-4.068l2.034-5.806zM5.983 5.153l-5.983 15.001h3.597l1.061-2.976h5.777l1.061 2.976h3.596l-5.983-15.001h-3.124z"></path>
<path fill="#1c4b8b" style="fill: var(--color2, #1c4b8b)" d="M12.287 0v2.918h4.686v11.819h3.3v-11.819h4.687v-2.918z"></path>
<path fill="#1c4b8b" style="fill: var(--color2, #1c4b8b)" d="M29.807 8.925v0l-2.033 5.806h4.067l-2.034-5.806zM32.695 17.178v0h-5.776l-1.061 2.977h-3.596l5.982-15.002h3.123l5.983 15.002h-3.596l-1.061-2.977z"></path>
<path fill="#1c4b8b" style="fill: var(--color2, #1c4b8b)" d="M41.998 9.647c0 1.091 0.825 1.326 2.947 1.503 4.421 0.384 5.748 1.326 5.748 4.451 0 2.653-1.71 4.774-6.572 4.774-1.475 0-4.068-0.383-5.099-0.855v-2.977c1.179 0.472 3.154 0.884 5.129 0.884 2.416 0 3.271-0.619 3.271-1.827 0-1.179-0.767-1.562-2.888-1.739-4.421-0.383-5.748-1.355-5.748-4.215 0-2.917 1.828-4.716 6.19-4.716 1.474 0 3.772 0.266 5.040 0.825v2.977c-1.327-0.501-3.124-0.855-5.070-0.855-2.182 0-2.947 0.53-2.947 1.768z"></path>
<path fill="#1c4b8b" style="fill: var(--color2, #1c4b8b)" d="M36.349 30.095c0.109-0.44 0.408-0.702 0.809-0.702 0.45 0 0.696 0.237 0.731 0.702h-1.54zM37.175 28.979c-0.752 0-1.32 0.624-1.32 1.449 0 0.868 0.568 1.45 1.413 1.45 0.372 0 0.717-0.097 0.945-0.268l0.017-0.013v-0.48l-0.070 0.053c-0.278 0.209-0.536 0.294-0.893 0.294-0.467 0-0.939-0.335-0.954-0.974h2.034v-0.296c0-0.762-0.438-1.216-1.172-1.216zM41.911 31.817v0h0.458v-2.777h-0.458v2.777zM35.357 28.997c-0.361 0-0.715 0.103-1.023 0.296l-0.020 0.013v2.51h0.458v-2.262c0.149-0.078 0.338-0.118 0.561-0.118 0.101 0 0.297 0.008 0.46 0.065l0.058 0.020v-0.46l-0.034-0.008c-0.158-0.038-0.309-0.057-0.46-0.057zM33.033 31.451c-0.608 0-1.017-0.408-1.017-1.018 0-0.711 0.499-1.029 0.992-1.029 0.241 0 0.507 0.089 0.728 0.246l0.069 0.048v-0.499l-0.021-0.012c-0.258-0.145-0.502-0.209-0.793-0.209-0.715 0-1.438 0.498-1.438 1.449 0 0.952 0.726 1.45 1.443 1.45 0.287 0 0.55-0.066 0.828-0.208l0.024-0.012v-0.496l-0.068 0.045c-0.261 0.169-0.492 0.245-0.747 0.245zM43.97 31.477c-0.242 0-0.345-0.131-0.345-0.438v-1.596h0.759v-0.403h-0.759v-0.653h-0.457v0.653h-0.413v0.403h0.413v1.633c0 0.517 0.257 0.802 0.723 0.802 0.217 0 0.407-0.044 0.599-0.14l0.024-0.012v-0.425l-0.064 0.032c-0.186 0.093-0.318 0.144-0.48 0.144zM49.603 31.439c-0.127 0.018-0.271 0.026-0.462 0.026-0.703 0-1.14-0.397-1.14-1.036 0-0.625 0.415-1.029 1.059-1.029 0.212 0 0.404 0.037 0.543 0.106v1.933zM49.603 27.688v0 1.387c-0.155-0.066-0.375-0.096-0.543-0.096-0.897 0-1.524 0.596-1.524 1.449 0 0.895 0.614 1.45 1.604 1.45 0.3 0 0.606-0.035 0.886-0.1l0.033-0.007v-4.083h-0.457zM45.165 30.095c0.109-0.44 0.407-0.702 0.807-0.702 0.451 0 0.696 0.237 0.731 0.702h-1.539zM45.992 28.979c-0.753 0-1.32 0.624-1.32 1.449 0 0.868 0.568 1.45 1.413 1.45 0.373 0 0.716-0.097 0.945-0.268l0.018-0.013v-0.48l-0.070 0.053c-0.278 0.209-0.537 0.294-0.894 0.294-0.467 0-0.939-0.335-0.954-0.974h2.035v-0.296c0-0.762-0.439-1.216-1.172-1.216zM30.514 31.451c-0.608 0-1.017-0.408-1.017-1.018 0-0.711 0.498-1.029 0.992-1.029 0.241 0 0.506 0.089 0.728 0.246l0.069 0.048v-0.499l-0.022-0.012c-0.257-0.145-0.501-0.209-0.793-0.209-0.714 0-1.437 0.498-1.437 1.449 0 0.952 0.726 1.45 1.443 1.45 0.287 0 0.55-0.066 0.828-0.208l0.024-0.012v-0.496l-0.068 0.045c-0.262 0.169-0.492 0.245-0.747 0.245zM42.139 28.026c-0.174 0-0.321 0.147-0.321 0.322 0 0.17 0.15 0.321 0.321 0.321 0.174 0 0.322-0.147 0.322-0.321 0.001-0.178-0.144-0.322-0.322-0.322zM40.786 31.439c-0.127 0.018-0.272 0.026-0.462 0.026-0.704 0-1.14-0.397-1.14-1.036 0-0.625 0.415-1.029 1.060-1.029 0.213 0 0.403 0.037 0.542 0.106v1.933zM40.786 29.075v0c-0.155-0.066-0.375-0.096-0.542-0.096-0.898 0-1.525 0.596-1.525 1.449 0 0.895 0.615 1.45 1.604 1.45 0.3 0 0.607-0.035 0.886-0.1l0.033-0.007v-4.083h-0.457v1.387zM28.187 31.44v0c-0.11 0.019-0.23 0.030-0.332 0.030-0.375 0-0.82-0.077-0.82-0.443 0-0.401 0.576-0.462 0.919-0.462h0.233v0.876zM27.707 28.979c-0.294 0-0.597 0.076-0.853 0.215l-0.023 0.012v0.45l0.064-0.033c0.209-0.11 0.446-0.211 0.77-0.211 0.337 0 0.522 0.171 0.522 0.481v0.283h-0.258c-0.872 0-1.351 0.303-1.351 0.852s0.435 0.839 1.259 0.839c0.257 0 0.547-0.037 0.776-0.1l0.032-0.009v-1.89c0-0.581-0.324-0.888-0.937-0.888zM15.545 28.997c-0.361 0-0.715 0.103-1.023 0.296l-0.020 0.013v2.51h0.457v-2.262c0.149-0.078 0.338-0.118 0.561-0.118 0.102 0 0.296 0.008 0.461 0.065l0.058 0.020v-0.46l-0.033-0.008c-0.16-0.038-0.31-0.057-0.461-0.057zM19.775 31.303v0l-0.846-2.263h-0.483l1.078 2.749 0.010 0.028h0.467l1.089-2.777h-0.47l-0.846 2.262zM13.522 31.477c-0.242 0-0.345-0.131-0.345-0.438v-1.596h0.759v-0.403h-0.759v-0.653h-0.458v0.653h-0.413v0.403h0.413v1.633c0 0.517 0.257 0.802 0.723 0.802 0.217 0 0.407-0.044 0.599-0.14l0.024-0.012v-0.425l-0.063 0.032c-0.186 0.093-0.317 0.144-0.48 0.144zM17.753 31.44v0c-0.111 0.019-0.231 0.030-0.333 0.030-0.374 0-0.82-0.077-0.82-0.443 0-0.401 0.576-0.462 0.918-0.462h0.234v0.876zM17.272 28.979c-0.293 0-0.597 0.076-0.853 0.215l-0.023 0.012v0.45l0.064-0.033c0.209-0.11 0.446-0.211 0.769-0.211 0.338 0 0.524 0.171 0.524 0.481v0.283h-0.259c-0.872 0-1.351 0.303-1.351 0.852s0.435 0.839 1.259 0.839c0.258 0 0.548-0.037 0.776-0.1l0.032-0.009v-1.89c-0-0.581-0.324-0.888-0.939-0.888zM24.094 31.817v0h0.457v-4.128h-0.457v4.128zM21.694 30.095c0.11-0.44 0.409-0.702 0.809-0.702 0.45 0 0.696 0.237 0.731 0.702h-1.54zM22.42 28.979c-0.753 0-1.32 0.624-1.32 1.449 0 0.868 0.568 1.45 1.413 1.45 0.372 0 0.716-0.097 0.945-0.268l0.017-0.013v-0.48l-0.070 0.053c-0.277 0.209-0.536 0.294-0.893 0.294-0.467 0-0.94-0.335-0.955-0.974h2.036v-0.296c0-0.762-0.439-1.216-1.173-1.216z"></path>
<path fill="#1c4b8b" style="fill: var(--color2, #1c4b8b)" d="M16.493 22.666h-16.314v2.507h17.145l1.3-1.3 1.298 1.3h30.138v-2.507h-29.307l-2.13-2.13z"></path>
</symbol>
<symbol id="yacht" viewBox="0 0 33 32">
<title>Dans-Yacht-01</title>
<path fill="#00b9bf" style="fill: var(--color1, #00b9bf)" d="M4.056 28.568c-0.219 0-0.436-0.104-0.57-0.298-1.214-1.764-2.087-3.711-2.594-5.791-0.098-0.421-0.003-0.848 0.259-1.179 0.266-0.335 0.662-0.526 1.086-0.526l28.76-0.015c0.424 0 0.82 0.191 1.085 0.522 0.263 0.333 0.36 0.761 0.266 1.174-0.484 2.062-1.341 3.989-2.543 5.729-0.219 0.313-0.651 0.39-0.962 0.175-0.315-0.217-0.394-0.649-0.177-0.962 1.106-1.599 1.891-3.365 2.335-5.256l-28.763 0.016c0.465 1.909 1.269 3.702 2.388 5.326 0.216 0.315 0.137 0.747-0.177 0.963-0.12 0.082-0.257 0.122-0.393 0.122z"></path>
<path fill="#00b9bf" style="fill: var(--color1, #00b9bf)" d="M15.221 1.381l-11.956 14.284 11.96 4.722-0.004-19.007zM15.918 22.098c-0.086 0-0.172-0.016-0.253-0.048l-12.908-5.099c-0.411-0.16-0.723-0.513-0.833-0.942-0.109-0.436-0.003-0.895 0.281-1.234l11.957-14.284c0.373-0.439 0.998-0.604 1.533-0.412 0.546 0.2 0.912 0.722 0.912 1.302l0.005 19.83c0.017 0.061 0.027 0.127 0.027 0.193 0 0.383-0.31 0.693-0.693 0.693-0.006 0-0.017 0.001-0.027 0z"></path>
<path fill="#00b9bf" style="fill: var(--color1, #00b9bf)" d="M19.377 5.631l0.001 14.583 7.912-4.473-7.914-10.111zM18.686 22.092c-0.12 0-0.241-0.031-0.349-0.095-0.212-0.124-0.343-0.351-0.343-0.598v-15.768c0-0.59 0.373-1.117 0.932-1.308 0.552-0.188 1.183-0.003 1.543 0.456l7.913 10.111c0.248 0.321 0.345 0.729 0.266 1.123-0.078 0.398-0.325 0.738-0.677 0.935l-8.944 5.056c-0.106 0.058-0.223 0.088-0.34 0.088z"></path>
<path fill="#1c4a8b" style="fill: var(--color2, #1c4a8b)" d="M31.583 32c-2.35 0-4.29-1.564-5.225-2.48-1.215 1.433-2.99 2.296-4.893 2.352-1.887-0.001-3.666-0.843-4.859-2.251-1.198 1.405-2.98 2.247-4.85 2.251-1.92-0.053-3.691-0.916-4.897-2.35-1.078 1.055-3.487 2.96-6.309 2.365-0.375-0.079-0.614-0.447-0.534-0.82 0.080-0.376 0.453-0.606 0.821-0.533 2.939 0.625 5.522-2.497 5.548-2.53 0.142-0.17 0.358-0.251 0.577-0.252 0.222 0.012 0.425 0.13 0.543 0.319 0.933 1.467 2.53 2.371 4.27 2.418 1.711-0.004 3.344-0.925 4.243-2.405 0.126-0.208 0.351-0.333 0.591-0.333h0.002c0.242 0 0.468 0.128 0.592 0.336 0.89 1.482 2.514 2.401 4.241 2.403 1.724-0.050 3.329-0.955 4.272-2.421 0.12-0.187 0.321-0.305 0.542-0.316 0.25 0.012 0.436 0.082 0.577 0.252 0.026 0.033 2.621 3.147 5.548 2.53 0.357-0.072 0.741 0.157 0.82 0.533 0.080 0.373-0.16 0.741-0.534 0.82-0.37 0.078-0.731 0.114-1.085 0.114z"></path>
</symbol>
<symbol id="icon-ABATA-MedSailors-01" viewBox="0 0 82 32">
<title>ABATA-MedSailors-01</title>
<path fill="#1c4b8b" style="fill: var(--color2, #1c4b8b)" d="M2.184 25.955v0.837h1.585v4.63h1.013v-4.63h1.494l0.24-0.837z"></path>
<path fill="#1c4b8b" style="fill: var(--color2, #1c4b8b)" d="M8.638 28.419c-0.166-0.099-0.34-0.124-0.466-0.124-0.231 0-0.489 0.108-0.755 0.349v2.78h-0.995v-3.924h0.838l0.116 0.416c0.398-0.358 0.705-0.507 1.087-0.507 0.183 0 0.398 0.058 0.548 0.166l-0.373 0.845z"></path>
<path fill="#1c4b8b" style="fill: var(--color2, #1c4b8b)" d="M11.674 31.422v0l-0.166-0.349c-0.257 0.233-0.613 0.432-1.136 0.432-0.721 0-1.286-0.49-1.286-1.261 0-0.814 0.638-1.253 1.651-1.287l0.697-0.024v-0.101c0-0.472-0.34-0.663-0.755-0.663-0.423 0-0.763 0.141-1.013 0.29l-0.315-0.622c0.523-0.349 1.013-0.431 1.535-0.431 0.97 0 1.551 0.398 1.551 1.426v1.553c0 0.565 0.017 0.854 0.075 1.036h-0.838zM11.426 29.623v0l-0.564 0.014c-0.54 0.017-0.78 0.201-0.78 0.533 0 0.324 0.224 0.548 0.638 0.548 0.349 0 0.581-0.132 0.706-0.249v-0.845z"></path>
<path fill="#1c4b8b" style="fill: var(--color2, #1c4b8b)" d="M15.814 27.498l-0.996 2.672h-0.016l-0.979-2.672h-1.021l1.618 3.949h0.722l1.634-3.949z"></path>
<path fill="#1c4b8b" style="fill: var(--color2, #1c4b8b)" d="M17.978 29.722v0c0.017 0.581 0.498 0.988 1.104 0.988 0.373 0 0.68-0.091 1.020-0.274l0.24 0.638c-0.439 0.306-0.962 0.431-1.426 0.431-1.369 0-1.951-0.996-1.951-2.049 0-1.12 0.664-2.049 1.785-2.049 1.062 0 1.758 0.804 1.758 2.023v0.291h-2.53zM18.725 28.154c-0.481 0-0.771 0.431-0.771 0.862h1.527c-0.017-0.423-0.249-0.862-0.755-0.862z"></path>
<path fill="#1c4b8b" style="fill: var(--color2, #1c4b8b)" d="M22.159 31.505c-0.655 0-0.904-0.373-0.904-0.863v-5.095h0.995v4.654c0 0.291 0.058 0.408 0.266 0.408 0.067 0 0.15-0.008 0.29-0.042l0.124 0.738c-0.29 0.157-0.546 0.199-0.771 0.199z"></path>
<path fill="#1c4b8b" style="fill: var(--color2, #1c4b8b)" d="M30.257 27.498l-0.83 2.662h-0.017l-0.88-2.662h-0.756l-0.862 2.655h-0.025l-0.837-2.655h-1.013l1.428 3.949h0.755l0.88-2.672h0.024l0.88 2.672h0.755l1.452-3.949z"></path>
<path fill="#1c4b8b" style="fill: var(--color2, #1c4b8b)" d="M32.314 26.891c-0.348 0-0.614-0.265-0.614-0.606 0-0.323 0.267-0.596 0.614-0.596 0.349 0 0.614 0.264 0.614 0.596s-0.265 0.606-0.614 0.606zM31.816 27.499v0h0.996v3.923h-0.996v-3.923z"></path>
<path fill="#1c4b8b" style="fill: var(--color2, #1c4b8b)" d="M35.185 31.505c-0.697 0-0.97-0.39-0.97-0.921v-2.34h-0.697v-0.747h0.697v-0.906l0.996-0.298v1.203h1.219l-0.29 0.747h-0.929v1.974c0 0.306 0.115 0.448 0.373 0.448 0.249 0 0.505-0.116 0.655-0.217l0.266 0.631c-0.407 0.292-0.938 0.423-1.32 0.423z"></path>
<path fill="#1c4b8b" style="fill: var(--color2, #1c4b8b)" d="M39.599 31.422v0-2.289c0-0.441-0.066-0.855-0.597-0.855-0.34 0-0.688 0.191-0.954 0.415v2.73h-0.996v-5.875h0.996v2.374c0.365-0.3 0.796-0.515 1.303-0.515 0.605 0 1.253 0.291 1.253 1.445v2.57h-1.004z"></path>
<path fill="#1c4b8b" style="fill: var(--color2, #1c4b8b)" d="M45.232 31.505c-1.276 0-1.933-0.921-1.933-2.025 0-1.194 0.863-2.074 2.032-2.074 0.531 0 0.897 0.132 1.121 0.272l-0.017 0.814c-0.274-0.206-0.58-0.323-0.987-0.323-0.671 0-1.153 0.531-1.153 1.261 0 0.673 0.366 1.27 1.144 1.27 0.374 0 0.656-0.116 0.929-0.275l0.25 0.656c-0.316 0.216-0.848 0.423-1.386 0.423z"></path>
<path fill="#1c4b8b" style="fill: var(--color2, #1c4b8b)" d="M50.376 30.941c-0.349 0.356-0.83 0.564-1.419 0.564-0.548 0-1.012-0.175-1.352-0.49-0.391-0.365-0.607-0.904-0.607-1.535 0-0.615 0.208-1.146 0.574-1.519 0.348-0.348 0.82-0.555 1.393-0.555 0.606 0 1.096 0.207 1.443 0.564 0.341 0.364 0.523 0.88 0.523 1.477 0.001 0.596-0.19 1.127-0.555 1.493zM48.949 28.195c-0.63 0-0.937 0.531-0.937 1.261 0 0.764 0.357 1.277 0.962 1.277 0.623 0 0.938-0.539 0.938-1.277 0-0.755-0.348-1.261-0.962-1.261z"></path>
<path fill="#1c4b8b" style="fill: var(--color2, #1c4b8b)" d="M54.258 31.422v0-2.306c0-0.407-0.075-0.855-0.579-0.855-0.349 0-0.689 0.181-0.996 0.414v2.746h-0.995v-3.924h0.845l0.109 0.423c0.422-0.315 0.845-0.515 1.377-0.515 0.597 0 1.236 0.356 1.236 1.41v2.605h-0.996z"></path>
<path fill="#1c4b8b" style="fill: var(--color2, #1c4b8b)" d="M58.432 26.451c-0.157-0.067-0.332-0.107-0.497-0.107-0.316 0-0.465 0.191-0.465 0.53v0.623h1.037l-0.258 0.763h-0.779v3.16h-0.996v-3.16h-0.572v-0.763h0.572v-0.547c0-1.163 0.838-1.403 1.386-1.403 0.207 0 0.514 0.050 0.771 0.175l-0.198 0.728z"></path>
<path fill="#1c4b8b" style="fill: var(--color2, #1c4b8b)" d="M59.684 26.891c-0.349 0-0.614-0.265-0.614-0.606 0-0.323 0.265-0.596 0.614-0.596s0.613 0.264 0.613 0.596c0 0.332-0.265 0.606-0.613 0.606zM59.186 27.499v0h0.996v3.923h-0.996v-3.923z"></path>
<path fill="#1c4b8b" style="fill: var(--color2, #1c4b8b)" d="M63.186 31.504c-1.17 0-2.133-0.688-2.133-2.016 0-1.219 0.904-2.082 2.173-2.082 0.201 0 0.357 0.007 0.5 0.033v-1.892h0.996v5.642c-0.375 0.19-0.865 0.314-1.535 0.314zM63.725 28.253c-0.132-0.034-0.25-0.058-0.466-0.058-0.705 0-1.211 0.471-1.211 1.244 0 0.714 0.464 1.244 1.228 1.244 0.158 0 0.332-0.024 0.449-0.059v-2.371z"></path>
<path fill="#1c4b8b" style="fill: var(--color2, #1c4b8b)" d="M66.462 29.722v0c0.016 0.581 0.498 0.988 1.103 0.988 0.374 0 0.682-0.091 1.022-0.274l0.239 0.638c-0.439 0.306-0.961 0.431-1.427 0.431-1.369 0-1.95-0.996-1.95-2.049 0-1.12 0.664-2.049 1.785-2.049 1.061 0 1.758 0.804 1.758 2.023v0.291h-2.531zM67.209 28.154c-0.481 0-0.771 0.431-0.771 0.862h1.526c-0.016-0.423-0.248-0.862-0.755-0.862z"></path>
<path fill="#1c4b8b" style="fill: var(--color2, #1c4b8b)" d="M72.311 31.422v0-2.306c0-0.407-0.074-0.855-0.58-0.855-0.349 0-0.689 0.181-0.996 0.414v2.746h-0.995v-3.924h0.845l0.108 0.423c0.423-0.315 0.847-0.515 1.378-0.515 0.597 0 1.236 0.356 1.236 1.41v2.605h-0.996z"></path>
<path fill="#1c4b8b" style="fill: var(--color2, #1c4b8b)" d="M75.969 31.505c-1.277 0-1.933-0.921-1.933-2.025 0-1.194 0.862-2.074 2.032-2.074 0.531 0 0.896 0.132 1.121 0.272l-0.017 0.814c-0.275-0.206-0.581-0.323-0.987-0.323-0.671 0-1.154 0.531-1.154 1.261 0 0.673 0.365 1.27 1.144 1.27 0.374 0 0.656-0.116 0.93-0.275l0.249 0.656c-0.315 0.216-0.845 0.423-1.386 0.423z"></path>
<path fill="#1c4b8b" style="fill: var(--color2, #1c4b8b)" d="M78.75 29.722v0c0.017 0.581 0.498 0.988 1.103 0.988 0.374 0 0.68-0.091 1.021-0.274l0.239 0.638c-0.439 0.306-0.962 0.431-1.427 0.431-1.369 0-1.951-0.996-1.951-2.049 0-1.12 0.663-2.049 1.785-2.049 1.062 0 1.759 0.804 1.759 2.023v0.291h-2.53zM79.496 28.154c-0.481 0-0.771 0.431-0.771 0.862h1.527c-0.018-0.423-0.249-0.862-0.755-0.862z"></path>
<path fill="#1c4b8b" style="fill: var(--color2, #1c4b8b)" d="M47.056 20.949h-5.852v-18.443h5.764c3.725 0 5.432 2.548 5.432 4.786 0 1.764-0.73 2.939-2.211 3.835v0.056c2.13 0.474 3.412 1.959 3.412 4.198-0.001 2.632-1.905 5.568-6.546 5.568zM46.495 5.364h-1.905v4.812h1.789c1.516 0 2.635-0.978 2.635-2.519 0-1.314-0.896-2.293-2.518-2.293zM47.137 13.002h-2.547v5.095h2.156c2.267 0 3.385-1.011 3.385-2.687-0.001-1.43-1.093-2.409-2.994-2.409z"></path>
<path fill="#1c4b8b" style="fill: var(--color2, #1c4b8b)" d="M67.186 5.334v0h-4.912v15.615h-3.416v-15.615h-5.343v-2.828h14.772z"></path>
<path fill="#1c4b8b" style="fill: var(--color2, #1c4b8b)" d="M36.051 20.95v0l-1.822-4.625h-6.582l-1.709 4.624h-3.389l7.135-18.447h2.538l7.39 18.447h-3.56zM31.681 9.322c-0.339-0.924-0.561-1.681-0.7-2.294h-0.030c-0.109 0.644-0.36 1.37-0.669 2.24l-1.599 4.297h4.49l-1.491-4.243z"></path>
<path fill="#1c4b8b" style="fill: var(--color2, #1c4b8b)" d="M78.302 20.95v0l-1.821-4.624h-6.584l-1.707 4.624h-3.391l7.135-18.447h2.54l7.389 18.447h-3.561zM73.934 9.322c-0.34-0.924-0.562-1.681-0.7-2.294h-0.030c-0.11 0.644-0.362 1.37-0.67 2.24l-1.6 4.297h4.49l-1.49-4.243z"></path>
<path fill="#1c4b8b" style="fill: var(--color2, #1c4b8b)" d="M11.148 0c-0.353 0-0.7 0.018-1.044 0.049v1.796h-0.001v19.694h0.001v0.703c0.344 0.033 0.692 0.051 1.044 0.051 6.155 0 11.145-4.991 11.145-11.147s-4.99-11.145-11.145-11.145zM15.223 12.162v0c-0.046 0.711-0.136 1.407-0.276 2.080h-2.611v-2.080h2.887zM12.335 10.081v0-2.081h2.599c0.141 0.674 0.237 1.37 0.284 2.081h-2.883zM17.414 12.162h2.615c-0.082 0.722-0.246 1.42-0.49 2.080h-2.404c0.139-0.673 0.234-1.368 0.279-2.080zM17.412 10.081c-0.050-0.711-0.148-1.407-0.29-2.081h2.399c0.247 0.66 0.415 1.357 0.501 2.081h-2.61zM18.399 5.919h-1.882c-0.374-1.005-0.851-1.943-1.417-2.794 1.314 0.648 2.447 1.612 3.3 2.794zM14.336 5.919h-2v-3.631c0.826 1.063 1.504 2.287 2 3.631zM12.335 20.008v0-3.681h2.020c-0.495 1.36-1.179 2.605-2.016 3.681h-0.003zM15.119 19.156c0.571-0.863 1.049-1.814 1.423-2.83h1.89c-0.853 1.194-1.988 2.171-3.314 2.83z"></path>
<path fill="#1c4b8b" style="fill: var(--color2, #1c4b8b)" d="M9.050 9.044v0-0.845l-5.336-5.338c-0.297 0.265-0.579 0.546-0.846 0.842l5.342 5.34h0.84z"></path>
<path fill="#1c4b8b" style="fill: var(--color2, #1c4b8b)" d="M9.050 13.188v0 0.845l-5.336 5.336c-0.297-0.265-0.579-0.545-0.846-0.843l5.342-5.339h0.84z"></path>
<path fill="#1c4b8b" style="fill: var(--color2, #1c4b8b)" d="M9.050 10.108v0h-9c-0.032 0.341-0.050 0.688-0.050 1.037 0 0.35 0.018 0.695 0.050 1.037h9v-2.074z"></path>
<path fill="#1c4b8b" style="fill: var(--color2, #1c4b8b)" d="M2.283 4.411v0c-1.017 1.337-1.738 2.914-2.062 4.634h6.696l-4.634-4.634z"></path>
<path fill="#1c4b8b" style="fill: var(--color2, #1c4b8b)" d="M9.050 6.904v0-6.69c-1.715 0.324-3.289 1.044-4.63 2.060l4.63 4.63z"></path>
<path fill="#1c4b8b" style="fill: var(--color2, #1c4b8b)" d="M4.42 19.955v0c1.341 1.017 2.915 1.735 4.63 2.061v-6.69l-4.63 4.629z"></path>
<path fill="#1c4b8b" style="fill: var(--color2, #1c4b8b)" d="M6.915 13.188v0h-6.695c0.324 1.717 1.045 3.292 2.063 4.633l4.632-4.633z"></path>
</symbol>
<symbol id="icon-The Guardian" viewBox="0 0 181 32">
<title>The-Guardian</title>
<path fill="#fff" style="fill: var(--color3, #fff)" d="M12.541 22.742l1.789-0.824v-18.373l-1.883-0.874v-1.535l6.962-1.123h0.472v9.192h0.187c1.519-1.373 3.558-2.23 5.826-2.23 2.85 0 4.266 1.419 4.266 4.516v10.425l1.81 0.826v1.555h-9.218v-1.555l1.81-0.826v-9.163c0-1.714-0.749-2.356-2.268-2.356-0.832 0-1.623 0.152-2.31 0.429v11.091l1.81 0.827v1.556h-9.241v-1.561l-0.014 0.002zM37.348 16.324h10.066c0-7.087-2.434-9.347-7.497-9.347-5.029 0-8.329 3.238-8.329 8.797 0 5.743 2.992 8.92 8.793 8.92 3.117 0 5.635-1.394 6.418-2.455v-1.643c-1.172 0.354-2.376 0.583-4.536 0.583-3.049 0-4.619-1.582-4.915-4.868v0.013zM39.824 8.828c1.403 0 2.16 0.25 2.16 5.207l-4.682 0.274c0.062-4.495 0.741-5.481 2.522-5.481zM2.588 19.594v-9.347h-2.588v-2.556l2.588-0.346v-3.188l5.584-0.785v3.975h3.704v2.913h-3.704v8.863c0 1.665 0.464 2.518 2.102 2.518 0.582 0 1.378-0.063 1.784-0.146v2.162c-0.895 0.529-2.81 0.978-4.578 0.978-3.329 0-4.891-1.467-4.891-5.042h-0.002z"></path>
<path fill="#fff" style="fill: var(--color3, #fff)" d="M139.295 0c1.666 0 3.006 1.346 3.006 3.009 0 1.66-1.345 3.008-3.008 3.008-1.666 0-3.017-1.332-3.017-2.996s1.352-2.996 3.017-2.996l0.002-0.025zM68.385 10.488l-1.873-0.873v-1.52l7.033-1.103h0.478v11.879c0 1.926 0.943 2.269 2.362 2.269 1.040 0 1.456-0.187 2.018-0.402v-10.252l-1.893-0.873v-1.534l7.013-1.119h0.458v14.439l1.872 0.979v1.465l-6.825 0.748h-0.491l-0.006-2.247h-0.187c-1.078 1.331-2.857 2.31-5.14 2.31-3.391 0-4.842-2.414-4.842-5.347v-8.821l0.023 0.002zM91.564 9.261l-1.186 3.454h-2.913v-4.455c1.581-0.486 3.495-1.282 6.45-1.282 4.516 0 7.221 1.332 7.221 5.119v9.823l1.788 0.831v1.273c-0.541 0.295-1.788 0.673-3.142 0.673-1.748 0-3.328-0.561-3.578-2.393h-0.168c-0.749 1.499-2.747 2.413-4.835 2.413-2.991 0-4.869-1.935-4.869-4.744 0-3.455 2.283-4.017 5.984-4.786l3.243-0.562v-2.204c0-2.168-0.654-3.247-2.81-3.247-0.281 0-0.811 0.038-1.149 0.071l-0.037 0.016zM95.539 21.058v-4.578l-1.29 0.126c-1.289 0.125-2.35 0.997-2.35 2.622 0 1.872 1.020 2.477 2.101 2.477 0.625 0 1.26-0.313 1.569-0.646h-0.030zM103.28 8.095v1.54l1.894 0.874v11.444l-1.79 0.831v1.56h9.694v-1.539l-2.31-0.832v-9.427c0.958-0.458 2.216-0.612 3.725-0.612 0.495 0 1.081 0.063 1.421 0.152v-4.929c-0.187-0.063-0.556-0.092-0.831-0.092-1.853 0-3.365 1.192-4.354 3.454h-0.166v-3.561h-0.48l-6.803 1.119v0.018zM61.019 20.664h-6.034c-0.646 0-1.187-0.499-1.187-1.082 0-0.457 0.333-0.936 0.749-1.249 0.915 0.271 1.665 0.355 2.789 0.355 4.349 0 7.324-1.977 7.324-5.661 0-1.643-0.687-2.58-1.768-3.537v-0.126l2.788 0.979 0.375 0.020v-3.393h-0.312l-4.293 0.854h-0.239c-1.070-0.396-2.56-0.812-3.912-0.812-4.349 0-7.357 2.158-7.357 5.823 0 2.232 1.123 3.896 2.802 4.816v0.175c-0.97 0.683-2.83 2.085-2.83 3.881 0 1.31 0.866 2.607 2.676 2.996v0.181c-1.904 0.396-4.037 1.019-4.037 3.205 0 2.248 3.256 3.912 8.565 3.912 6.596 0 9.451-2.538 9.451-6.555 0-3.308-1.831-4.848-5.556-4.848l0.006 0.067zM57.294 8.949c1.227 0 2.018 0.541 2.018 3.912s-0.793 3.722-2 3.722c-1.207 0-1.985-0.28-1.985-3.719 0-3.433 0.77-3.912 1.993-3.912l-0.027-0.004zM57.246 29.924c-3.067 0-4.12-1.082-4.12-2.249 0-0.811 0.216-1.372 0.649-1.893h5.937c1.388 0 2.018 0.416 2.018 1.29 0.005 1.749-0.967 2.852-4.484 2.852zM126.897 21.329v-11.425c-0.437-0.332-0.894-0.61-1.914-0.61-1.756 0-3.1 1.582-3.1 6.347 0 4.174 1.061 5.992 3.285 5.992 0.863 0 1.348-0.174 1.726-0.328l0.003 0.024zM126.897 3.559l-1.876-0.853v-1.539l7.019-1.124h0.472v21.37l1.789 0.978v1.456l-6.659 0.77h-0.458v-1.749h-0.187c-0.707 0.895-2.142 1.831-4.245 1.831-3.079 0-6.763-1.956-6.763-8.427 0-6.804 3.767-9.26 8.24-9.26 0.938 0 2.040 0.209 2.726 0.708v-4.162h-0.060zM161.647 22.744l1.789-0.811v-11.445l-1.883-0.873v-1.52l6.965-1.103h0.472v2.248h0.187c1.519-1.373 3.558-2.227 5.826-2.227 2.85 0 4.265 1.416 4.265 4.516v10.425l1.81 0.831v1.56h-9.217v-1.539l1.81-0.816v-9.238c0-1.714-0.748-2.356-2.267-2.356-0.831 0-1.623 0.152-2.311 0.429v11.091l1.79 0.827v1.556h-9.198v-1.561l-0.039 0.004zM149.837 9.247l-1.186 3.446h-2.905v-4.433c1.57-0.486 3.482-1.282 6.443-1.282 4.504 0 7.211 1.332 7.211 5.119v9.823l1.788 0.831v1.273c-0.549 0.295-1.793 0.673-3.151 0.673-1.759 0-3.336-0.561-3.596-2.393h-0.166c-0.749 1.499-2.748 2.413-4.848 2.413-2.997 0-4.892-1.935-4.892-4.744 0-3.455 2.269-4.017 5.973-4.786l3.224-0.562v-2.204c0-2.168-0.665-3.247-2.808-3.247-0.292 0-0.811 0.038-1.144 0.071h0.056zM153.798 21.032v-4.563l-1.307 0.125c-1.299 0.125-2.365 0.989-2.365 2.606 0 1.862 1.022 2.476 2.102 2.476 0.624 0 1.258-0.308 1.568-0.644l0.002 0.001zM134.718 8.080v1.535l1.881 0.873v11.446l-1.792 0.832v1.559h9.203v-1.54l-1.793-0.831v-14.982h-0.472l-7.025 1.122v-0.015z"></path>
</symbol>
<symbol id="icon-Stylist" viewBox="0 0 157 32">
<title>Stylist</title>
<path fill="#fff" style="fill: var(--color3, #fff)" d="M6.199 22.62c0-1.515 0.416-2.77 1.133-3.653 0.716-0.883 1.739-1.384 2.895-1.383 0.74-0.002 1.127 0.041 1.838 0.266l0.166 0.052v0.449l-0.206 0.027c-1.289 0.178-1.695 0.986-1.708 1.733 0.002 0.915 0.811 1.655 1.714 1.657 0.975-0.002 1.896-0.81 1.899-1.912-0.002-1.806-1.567-2.991-3.886-3.005-3.678 0.011-6.602 2.546-6.609 6.532 0.008 3.863 3.278 7.902 10.438 7.915 7.804-0.010 11.385-4.946 11.395-9.479 0.008-4.302-3.408-7.243-6.217-9.757-2.713-2.423-4.204-3.853-4.201-6.612-0-0.991 0.3-1.909 0.938-2.579 0.638-0.672 1.606-1.076 2.869-1.074 1.352-0.004 2.511 0.399 3.608 1.423 1.076 1 2.111 2.575 3.334 4.953l0.464-0.080-0.486-7.102h-0.533l-1.184 1.794-0.205-0.178c-1.209-1.042-2.405-1.899-4.887-1.905-3.865 0.009-6.566 2.586-6.573 6.095-0.005 3.693 2.633 5.893 5.154 8.27 3.159 2.968 4.719 4.631 4.712 8.063 0 1.857-0.695 3.585-1.98 4.845-1.284 1.26-3.154 2.047-5.472 2.046-2.839 0.001-4.951-0.787-6.348-2.121s-2.062-3.195-2.060-5.279z"></path>
<path fill="#fff" style="fill: var(--color3, #fff)" d="M29.548 27.926l-0.132 0.656h11.038l0.136-0.675-3.646-0.728 4.81-22.648 3.891 0.801 2.695 6.91 0.366-0.091 0.595-8.129h-18.778l-2.208 8.14 0.418 0.094 5.192-7.010 4.377-0.728-4.816 22.679z"></path>
<path fill="#fff" style="fill: var(--color3, #fff)" d="M71.578 5.401l2.885-0.712 0.157-0.665h-7.317l-0.166 0.7 2.373 0.757-7.855 11.585-3.412-11.436 3.298-0.937 0.158-0.67h-9.343l-0.167 0.71 2.378 0.877 4.142 12.278-1.997 9.307-3.575 0.728-0.155 0.658h10.335l0.161-0.681-3.27-0.726 2.046-9.699z"></path>
<path fill="#fff" style="fill: var(--color3, #fff)" d="M87.264 27.11l-8.264 0.844 4.811-22.544 3.574-0.728 0.156-0.658h-10.226l-0.161 0.682 3.198 0.726-4.644 21.762-3.501 0.728-0.155 0.659h18.52l2.525-8.178-0.415-0.094z"></path>
<path fill="#fff" style="fill: var(--color3, #fff)" d="M98.276 27.196l-3.611 0.727-0.155 0.659h10.372l0.161-0.681-3.308-0.727 4.644-21.765 3.611-0.728 0.156-0.659h-9.825c-2.494-0.001-4.399 0.453-5.659 1.309-1.257 0.858-1.903 2.099-1.908 3.805 0.015 2.18 1.344 2.913 2.488 2.931 1.008-0.002 1.75-0.804 1.751-1.694-0.002-0.827-0.665-1.589-1.515-1.591-0.431 0.001-0.936 0.188-1.47 0.703l-0.069 0.067h-0.661l0.017-0.25c0.16-2.312 2.701-4.231 7.136-4.22h2.574l-4.729 22.114z"></path>
<path fill="#fff" style="fill: var(--color3, #fff)" d="M132.287 12.163l0.418 0.094 5.192-7.009 4.376-0.728-4.815 22.679-3.937 0.727-0.134 0.657h11.039l0.137-0.675-3.648-0.728 4.809-22.648 3.893 0.802 2.695 6.91 0.367-0.091 0.594-8.129h-18.778z"></path>
<path fill="#fff" style="fill: var(--color3, #fff)" d="M110.040 22.619c0-1.515 0.416-2.769 1.133-3.652s1.739-1.384 2.895-1.384c0.739-0.001 1.127 0.042 1.838 0.266l0.166 0.052v0.449l-0.206 0.027c-1.288 0.178-1.694 0.986-1.709 1.733 0.003 0.916 0.813 1.657 1.715 1.658 0.974-0.002 1.896-0.81 1.898-1.912-0.002-1.805-1.567-2.99-3.886-3.004-3.678 0.010-6.602 2.545-6.61 6.533 0.008 3.861 3.278 7.902 10.438 7.914 7.804-0.010 11.384-4.945 11.395-9.479 0.008-4.302-3.407-7.242-6.217-9.757-2.714-2.422-4.203-3.853-4.2-6.613-0.001-0.99 0.299-1.908 0.939-2.579 0.638-0.671 1.605-1.075 2.869-1.074 1.352-0.005 2.512 0.399 3.608 1.422 1.075 1 2.111 2.574 3.333 4.953l0.464-0.080-0.485-7.101h-0.534l-1.184 1.794-0.205-0.179c-1.209-1.043-2.406-1.899-4.886-1.905-3.865 0.008-6.566 2.585-6.573 6.095-0.004 3.692 2.633 5.893 5.153 8.27 3.16 2.967 4.719 4.63 4.712 8.063 0 1.858-0.695 3.585-1.98 4.845s-3.154 2.047-5.473 2.046c-2.84 0.001-4.951-0.788-6.349-2.121-1.396-1.333-2.059-3.195-2.058-5.28z"></path>
</symbol>
<symbol id="icon-Huffpost" viewBox="0 0 274 32">
<title>HuffPost</title>
<path fill="#fff" style="fill: var(--color3, #fff)" d="M35.383 31.355h9.995l5.358-30.671h-9.995l-1.976 10.984h-8.665l1.976-10.984h-9.995l-5.359 30.671h9.995l2.014-11.478h8.665l-2.014 11.478z"></path>
<path fill="#fff" style="fill: var(--color3, #fff)" d="M56.4 0.646l-3.040 17.065c-0.267 1.33-0.38 2.622-0.38 3.838 0 9.045 7.905 10.414 12.656 10.414 9.957 0 14.252-3.307 15.81-12.238l3.344-19.116h-9.995l-2.85 16.038c-0.912 5.017-1.558 7.639-5.283 7.639-2.432 0-3.611-1.293-3.611-3.953 0-1.026 0.152-2.28 0.456-3.839l2.888-15.886h-9.995v0.037z"></path>
<path fill="#fff" style="fill: var(--color3, #fff)" d="M137.617 31.355h9.995l1.406-7.906h4.713c8.703 0 13.529-4.713 13.529-13.302 0-6.043-4.181-9.501-11.515-9.501h-12.77l-5.359 30.709zM153.2 15.886h-2.888l1.33-7.221h2.699c2.204 0 3.382 1.102 3.382 3.116-0 2.546-1.711 4.104-4.523 4.104z"></path>
<path fill="#fff" style="fill: var(--color3, #fff)" d="M186.682 0c-10.87 0-17.369 7.031-17.369 18.851 0 8.209 5.169 13.15 13.834 13.15 10.87 0 17.368-7.031 17.368-18.851 0.038-8.248-5.13-13.15-13.833-13.15zM183.756 24.057c-2.584 0-4.105-1.862-4.105-4.978 0-1.178 0.114-2.205 0.343-3.382 0.76-4.029 2.052-7.715 6.119-7.715 2.584 0 4.105 1.862 4.105 4.979 0 1.178-0.114 2.204-0.342 3.382-0.761 3.991-2.052 7.715-6.119 7.715z"></path>
<path fill="#fff" style="fill: var(--color3, #fff)" d="M235.291 31.355h9.995l3.953-22.461h7.525l1.444-8.209h-25.578l-1.444 8.209h7.981l-3.877 22.461z"></path>
<path fill="#fff" style="fill: var(--color3, #fff)" d="M218.721 12.010c-3.154-0.988-4.447-1.407-4.447-2.888 0-0.988 0.646-2.167 2.546-2.167 1.406 0 2.584 0.798 3.040 1.976l8.817-2.394c-1.026-4.333-4.751-6.537-11.174-6.537-12.086 0-13.036 8.095-13.036 10.565 0 5.017 2.661 8.095 8.437 9.691 1.52 0.418 3.268 0.874 3.268 2.546 0 1.33-0.988 2.166-2.698 2.166-1.558 0-3.23-0.912-3.801-2.508l-8.703 2.356c0.95 4.561 5.245 7.145 11.972 7.145 5.131 0 13.72-1.369 13.72-10.642 0.038-4.636-2.584-7.677-7.943-9.311v0z"></path>
<path fill="#fff" style="fill: var(--color3, #fff)" d="M11.136 31.355l5.396-30.671h-16.532v30.671h11.136z"></path>
<path fill="#fff" style="fill: var(--color3, #fff)" d="M262.503 0.684l-5.359 30.671h16.532v-30.671h-11.174z"></path>
<path fill="#fff" style="fill: var(--color3, #fff)" d="M96.724 22.309h8.399l1.368-7.716h-8.399l0.95-5.701h11.744l1.444-8.247h-21.739l-5.359 30.709h9.995z"></path>
<path fill="#fff" style="fill: var(--color3, #fff)" d="M122.909 22.309h8.437l1.368-7.716h-8.399l0.95-5.701h11.744l1.444-8.247h-21.739l-5.359 30.709h9.995z"></path>
</symbol>
<symbol id="icon-ms" viewBox="0 0 34 32">
<title>icon-ms</title>
<path fill="#1c4b8b" style="fill: var(--color2, #1c4b8b)" d="M0 0h32v32h-32v-32z"></path>
<path fill="#fedc00" style="fill: var(--color4, #fedc00)" d="M4.608 20.384c0 0.5 0.34 0.923 0.9 0.923 0.501 0 0.891-0.314 0.891-0.829 0-0.601-0.569-0.753-1.035-0.889-0.442-0.127-0.815-0.237-1.188-0.516-0.433-0.321-0.662-0.779-0.662-1.321 0-0.999 0.857-1.744 1.833-1.744 0.416 0 0.823 0.135 1.078 0.466v-0.338h0.883v1.625h-1.035c-0.009-0.448-0.34-0.787-0.789-0.787s-0.823 0.279-0.823 0.753c0 0.592 0.526 0.719 0.993 0.855 0.467 0.127 0.908 0.254 1.298 0.55 0.39 0.313 0.603 0.762 0.603 1.269 0 1.092-0.815 1.896-1.918 1.896-0.467 0-0.874-0.16-1.163-0.516v0.398h-0.917v-1.794h1.052z"></path>
<path fill="#fedc00" style="fill: var(--color4, #fedc00)" d="M11.189 18.393c0-0.745-0.619-1.346-1.366-1.346-0.773 0-1.367 0.635-1.367 1.396 0 0.736 0.62 1.346 1.35 1.346 0.781 0 1.383-0.627 1.383-1.397zM11.172 20.069c-0.331 0.5-0.866 0.728-1.46 0.728-1.299 0-2.325-1.075-2.325-2.353 0-1.311 1.052-2.404 2.377-2.404 0.586 0 1.095 0.271 1.409 0.762v-0.644h1.621v0.965h-0.569v2.59h0.569v0.965h-1.621v-0.609z"></path>
<path fill="#fedc00" style="fill: var(--color4, #fedc00)" d="M14.295 17.249h-1.035v-1.092h1.035v1.092zM14.295 21.237h0.586v0.965h-2.215v-0.965h0.594v-2.59h-0.586v-0.965h1.621v3.555z"></path>
<path fill="#fedc00" style="fill: var(--color4, #fedc00)" d="M16.791 21.237h0.585v0.965h-2.249v-0.965h0.628v-4.114h-0.586v-0.965h1.621z"></path>
<path fill="#fedc00" style="fill: var(--color4, #fedc00)" d="M20.767 18.441c0-0.736-0.585-1.38-1.341-1.38-0.747 0-1.375 0.601-1.375 1.354 0 0.745 0.577 1.388 1.349 1.388 0.756 0 1.366-0.609 1.366-1.363zM17.032 18.423c0-1.321 1.077-2.378 2.393-2.378 1.307 0 2.36 1.083 2.36 2.37 0 1.321-1.053 2.404-2.385 2.404-1.324 0-2.368-1.092-2.368-2.396z"></path>
<path fill="#fedc00" style="fill: var(--color4, #fedc00)" d="M22.519 10.141c0-0.201-0.16-0.377-0.366-0.377-0.203 0-0.375 0.164-0.375 0.369 0 0.203 0.157 0.379 0.368 0.379 0.206 0 0.373-0.166 0.373-0.372zM21.501 10.137c0-0.36 0.294-0.649 0.653-0.649 0.356 0 0.644 0.295 0.644 0.646 0 0.361-0.288 0.656-0.651 0.656-0.362 0-0.646-0.298-0.646-0.653z"></path>
<path fill="#fedc00" style="fill: var(--color4, #fedc00)" d="M23.158 16.937c0.263-0.533 0.772-0.796 1.358-0.821v1.058c-0.331 0.017-0.636 0.102-0.891 0.33-0.34 0.288-0.39 0.652-0.39 1.075v1.143h0.585v0.965h-2.207v-0.965h0.585v-2.59h-0.585v-0.965h1.545v0.77z"></path>
<path fill="#fedc00" style="fill: var(--color4, #fedc00)" d="M10.719 14.846h0.662v0.965h-2.47v-0.965h0.653v-3.513l-1.671 4.478h-0.815l-1.723-4.477v3.513h0.704v0.965h-2.521v-0.965h0.662v-4.113h-0.662v-0.965h2.275l1.646 4.266 1.647-4.266h2.274v0.965h-0.662z"></path>
<path fill="#fedc00" style="fill: var(--color4, #fedc00)" d="M14.869 13.145c-0.178-0.652-0.756-1.067-1.426-1.067-0.611 0-1.197 0.474-1.324 1.067h2.75zM15.659 14.482c-0.357 0.863-1.197 1.447-2.139 1.447-1.324 0-2.385-1.032-2.385-2.362 0-1.337 1.010-2.412 2.359-2.412 0.628 0 1.256 0.279 1.697 0.728 0.45 0.474 0.637 1.050 0.637 1.693l-0.034 0.364h-3.666c0.135 0.626 0.713 1.083 1.358 1.083 0.45 0 0.84-0.169 1.095-0.541h1.078z"></path>
<path fill="#fedc00" style="fill: var(--color4, #fedc00)" d="M19.868 13.534c0-0.745-0.619-1.355-1.358-1.355-0.772 0-1.384 0.618-1.384 1.388 0 0.745 0.612 1.363 1.367 1.363 0.773 0 1.375-0.634 1.375-1.396zM19.843 15.133c-0.34 0.508-0.883 0.745-1.485 0.745-1.265 0-2.309-1.075-2.309-2.328 0-1.261 1.019-2.336 2.3-2.336 0.577 0 1.137 0.271 1.494 0.736v-1.219h-0.594v-0.965h1.63v5.078h0.586v0.965h-1.621v-0.677z"></path>
<path fill="#fedc00" style="fill: var(--color4, #fedc00)" d="M25.749 19.368c0.034 0.407 0.306 0.679 0.732 0.679 0.315 0 0.622-0.221 0.622-0.56 0-0.45-0.426-0.526-0.775-0.619-0.791-0.203-1.66-0.45-1.66-1.443 0-0.866 0.732-1.367 1.541-1.367 0.409 0 0.775 0.085 1.030 0.407v-0.314h0.766v1.231h-1.004c-0.017-0.323-0.264-0.535-0.587-0.535-0.281 0-0.579 0.161-0.579 0.475 0 0.425 0.417 0.518 0.749 0.595 0.817 0.187 1.694 0.441 1.694 1.46 0 0.917-0.775 1.426-1.626 1.426-0.46 0-0.876-0.144-1.175-0.492v0.373h-0.791v-1.316h1.064z"></path>
<path fill="#fedc00" style="fill: var(--color4, #fedc00)" d="M7.768 28.423l17.705-24.846h-0.258l-17.705 24.846z"></path>
<path fill="#00bac0" style="fill: var(--color1, #00bac0)" d="M32 0h1.778v32h-1.778v-32z"></path>
</symbol>
<symbol id="icon-Facebook" viewBox="0 0 32 32">
<title>Facebook-Footer-01</title>
<path fill="#fff" style="fill: var(--color1, #fff)" d="M16 0c-8.838 0-16 7.163-16 15.998 0 7.989 5.858 14.613 11.384 15.474 0 0 2.113 0.327 2.126-1.805v-9.042h-4.087v-4.622h4.087l0.003-3.527c0-4.011 2.376-6.235 6.032-6.235 1.747 0 1.747 0 3.567 0.336v3.913h-2.007c-1.983 0-2.622 1.242-2.622 2.51l0.002 3.001h4.447l-0.711 4.621h-3.736v9.029c0 0 0 2.153 2.127 1.822 5.528-0.862 11.387-7.486 11.387-15.474 0-8.834-7.166-15.998-16-15.998z"></path>
</symbol>
<symbol id="icon-Instagram" viewBox="0 0 35 32">
<title>Instagram</title>
<path fill="#fff" style="fill: var(--color3, #fff)" d="M28.579 15.994c0-5.692-4.994-10.318-11.174-10.318-6.164 0-11.174 4.628-11.174 10.318 0 5.706 5.012 10.318 11.174 10.318 6.18 0 11.174-4.61 11.174-10.318zM28.369 4.279c-0.994 0-1.8 0.744-1.8 1.663 0 0.915 0.806 1.658 1.8 1.658 0.997 0 1.8-0.742 1.8-1.658 0-0.918-0.802-1.663-1.8-1.663zM8.279 1.895h18.274c3.388 0 6.143 2.544 6.143 5.671v16.877c0 3.127-2.755 5.671-6.143 5.671h-18.274c-3.388 0-6.145-2.544-6.145-5.671v-16.877c0-3.128 2.757-5.671 6.145-5.671zM26.553 0h-18.274c-4.5 0-8.191 3.394-8.191 7.566v16.877c0 4.149 3.693 7.559 8.191 7.559h18.274c4.516 0 8.19-3.41 8.19-7.559v-16.877c0-4.172-3.674-7.566-8.19-7.566zM8.566 15.994c0-4.506 3.962-8.182 8.839-8.182 4.9 0 8.86 3.676 8.86 8.182 0 4.522-3.962 8.182-8.86 8.182-4.879 0-8.839-3.66-8.839-8.182z"></path>
</symbol>
<symbol id="icon-Login" viewBox="0 0 32 32">
<title>Login</title>
<path fill="#fff" style="fill: var(--color3, #fff)" d="M16 0c-8.837 0-16 7.163-16 16s7.163 16 16 16 16-7.163 16-16-7.163-16-16-16zM26.491 26.825c-1.715-2.851-5.133-3.788-7.559-4.085v-2.284c1.894-1.333 2.133-3.466 2.133-3.466 1.473-0.547 1.402-3.521 1.402-3.521 0.028-0.253-0.364-0.238-0.364-0.238 0.533-0.954 0.196-2.133 0.196-2.133-0.099-0.196-0.084-0.813-0.084-0.813 0.168-0.885-0.59-1.782-0.59-1.782-0.435-1.234-0.968-1.108-0.968-1.108-0.632-0.126-1.038-0.8-1.038-0.8-0.352-0.631-1.306-0.379-1.306-0.379-0.294-0.042-0.532-0.547-0.532-0.547-0.478-0.436-1.544 0.309-1.544 0.309-0.407 0.168-0.309-0.617-0.309-0.617 0.196-0.183 0.094-0.295 0.094-0.295-0.917-0.547-2.17 0.87-2.17 0.87-0.351 0.435-0.253-0.070-0.253-0.070 0.084-0.337 0-0.491 0-0.491-0.295-0.295-1.15 1.361-1.15 1.361-0.099 0.252-0.196 0.084-0.196 0.084l-0.238-0.183c-0.267-0.154-0.295 0.070-0.295 0.070l-0.575 1.305-0.238-0.142c-0.323-0.168-0.744 0.758-0.744 0.758-1.137 1.642-0.084 4.757-0.084 4.757-0.463-0.281-0.491 0.084-0.491 0.084-0.042 3.156 1.419 3.484 1.419 3.484 0.279 2.277 2.037 3.516 2.037 3.516v2.25c-5.261 0.595-7.093 3.319-7.522 4.119-2.834-2.741-4.598-6.583-4.598-10.838 0-8.326 6.75-15.076 15.076-15.076s15.076 6.75 15.076 15.076c0 4.248-1.758 8.085-4.585 10.825z"></path>
</symbol>
<symbol id="icon-Metro" viewBox="0 0 174 32">
<title>Metro</title>
<path fill="#fff" style="fill: var(--color3, #fff)" d="M29.167 28.405h-6.48c-0.445-3.127-0.888-6.243-1.381-9.712-1.692 3.401-3.222 6.476-4.877 9.804-1.623-3.272-3.15-6.349-4.828-9.733-0.485 3.404-0.922 6.476-1.367 9.612h-6.549c1.137-8.102 2.266-16.143 3.417-24.343 1.481 0 2.941-0.057 4.391 0.043 0.331 0.023 0.736 0.527 0.92 0.901 1.319 2.703 2.589 5.43 4 8.414 1.006-2.073 1.92-3.919 2.803-5.781 1.777-3.751 1.77-3.754 5.937-3.579 0.193 0.009 0.386 0.054 0.667 0.094 1.111 8.057 2.22 16.102 3.348 24.281z"></path>
<path fill="#fff" style="fill: var(--color3, #fff)" d="M100.446 16.394c0.009-3.458-2.621-6.243-5.865-6.21-3.194 0.032-5.795 2.795-5.811 6.173-0.018 3.429 2.623 6.198 5.893 6.183 3.226-0.015 5.776-2.724 5.783-6.145zM94.676 3.452c6.877 0.010 12.399 5.668 12.394 12.701-0.004 7.048-5.614 12.788-12.498 12.783-6.863-0.005-12.358-5.746-12.335-12.887 0.023-7.080 5.482-12.607 12.439-12.597z"></path>
<path fill="#fff" style="fill: var(--color3, #fff)" d="M70.825 15.534c1.404 0.082 2.645-0.125 3.376-1.349 0.606-1.012 0.597-2.165-0.072-3.148-0.763-1.12-1.956-1.335-3.304-1.211v5.708zM81.991 28.278c-2.312 0-4.412 0.041-6.507-0.038-0.371-0.014-0.889-0.448-1.057-0.817-1.029-2.272-1.975-4.582-2.954-6.878-0.194-0.459-0.408-0.909-0.832-1.319v8.992h-6.376v-23.974c3.675 0 7.335-0.265 10.938 0.079 3.191 0.304 5.14 2.913 5.451 6.16 0.271 2.827-0.328 5.3-2.708 7.076-0.626 0.466-0.318 0.882-0.117 1.331 1.195 2.675 2.404 5.347 3.602 8.021 0.177 0.39 0.327 0.794 0.561 1.366z"></path>
<path fill="#fff" style="fill: var(--color3, #fff)" d="M31.641 4.079h12.69c0.364 2.111 0.724 4.198 1.111 6.439h-7.519v2.553c1.346 0 2.648-0.042 3.944 0.031 0.284 0.018 0.772 0.435 0.781 0.682 0.067 1.857 0.036 3.718 0.036 5.768h-4.793v2.509h8.242c-0.528 2.212-1.020 4.278-1.522 6.376h-12.971v-24.357z"></path>
<path fill="#fff" style="fill: var(--color3, #fff)" d="M62.638 10.285h-4.837v17.897h-6.253v-17.869h-5.016c0.207-2.037 0.38-3.914 0.617-5.783 0.024-0.192 0.425-0.478 0.651-0.479 4.674-0.001 9.348 0.032 14.022 0.061 0.034 0 0.069 0.037 0.222 0.126 0.188 1.913 0.384 3.905 0.593 6.047z"></path>
<path fill="#fff" style="fill: var(--color3, #fff)" d="M170.241 14.491c-1.364 1.396-2.532 2.67-3.789 3.848-0.613 0.572-0.638 1.022-0.254 1.727 1.247 2.298 2.431 4.631 3.634 6.951 0.122 0.235 0.209 0.486 0.395 0.917-0.877 0-1.633 0.1-2.34-0.041-0.365-0.071-0.748-0.515-0.947-0.886-1.030-1.915-2.004-3.864-3.027-5.856-1.1 0.696-1.742 1.479-1.616 2.826 0.117 1.253 0.024 2.525 0.024 3.874h-2.572v-19.991h2.558v11.43c1.302-1.296 2.565-2.287 3.485-3.532 1.167-1.58 2.638-1.38 4.45-1.268z"></path>
<path fill="#fff" style="fill: var(--color3, #fff)" d="M155.725 27.806c-2.254 0.367-2.487 0.286-2.766-1.112-1.421 1.224-3.068 1.447-4.795 1.29-1.576-0.141-2.858-1.087-2.92-2.638-0.139-3.586-0.045-7.184-0.045-10.85h2.556v4.387c0 1.426-0.011 2.854 0.004 4.282 0.015 1.539 0.457 2.2 1.58 2.419 1.486 0.291 2.961-0.312 3.394-1.521 0.246-0.691 0.33-1.467 0.343-2.209 0.042-2.412 0.016-4.826 0.016-7.334h2.632v13.286z"></path>
<path fill="#fff" style="fill: var(--color3, #fff)" d="M128.398 21.117c0.056 0.598 0.069 1.359 0.213 2.094 0.314 1.603 1.268 2.397 2.777 2.407 1.514 0.011 2.584-0.752 2.824-2.339 0.2-1.317 0.212-2.691 0.081-4.020-0.177-1.796-1.236-2.632-2.939-2.598-1.637 0.033-2.563 0.892-2.811 2.64-0.075 0.547-0.090 1.105-0.145 1.816zM137.1 21.012c0 0.594 0.052 1.193-0.008 1.781-0.434 4.281-4.51 6.55-8.392 4.692-1.602-0.767-2.555-2.102-2.749-3.777-0.201-1.711-0.229-3.485-0.010-5.189 0.371-2.868 2.554-4.392 5.742-4.294 3.17 0.096 5.002 1.749 5.392 4.889 0.078 0.628 0.071 1.265 0.102 1.897-0.025 0-0.052 0-0.078 0.001z"></path>
<path fill="#fff" style="fill: var(--color3, #fff)" d="M123.687 19.004c-0.921 0.161-1.762 0.307-2.588 0.45-0.868-2.406-1.617-2.987-3.397-2.747-1.148 0.154-2.043 0.746-2.163 1.878-0.169 1.594-0.234 3.237-0.042 4.821 0.181 1.498 1.223 2.193 2.648 2.225 1.626 0.040 2.288-0.462 2.817-2.12 0.047-0.145 0.131-0.275 0.219-0.457 0.831 0.139 1.637 0.273 2.628 0.436-0.275 0.719-0.455 1.355-0.752 1.931-1.048 2.029-3.138 2.893-6.036 2.547-2.143-0.259-3.86-1.629-4.158-3.806-0.26-1.892-0.316-3.884-0.029-5.765 0.441-2.895 2.63-4.303 5.848-4.17 2.937 0.123 4.518 1.573 5.006 4.776z"></path>
<path fill="#fff" style="fill: var(--color3, #fff)" d="M139.362 24.794h2.676v3.052h-2.676v-3.052z"></path>
<path fill="#fff" style="fill: var(--color3, #fff)" d="M107.526 24.852h2.721v2.988h-2.721v-2.988z"></path>
</symbol>
<symbol id="icon-Play-Button-White-A-1" viewBox="0 0 32 32">
<title>Play-Button-White-A-1</title>
<path fill="#fff" style="fill: var(--color3, #fff)" d="M31.865 15.932c0-8.799-7.134-15.932-15.932-15.932s-15.932 7.133-15.932 15.932c0 8.801 7.133 15.932 15.932 15.932s15.932-7.131 15.932-15.932z"></path>
<path fill="#29b99a" style="fill: var(--color5, #29b99a)" d="M12.746 10.912v10.039l10.039-5.019z"></path>
</symbol>
<symbol id="icon-Star" viewBox="0 0 32 32">
<title>Star</title>
<path fill="#fed12a" style="fill: var(--color6, #fed12a)" d="M15.676 0l-3.598 11.462-0.098-0.016-11.98 0.862 9.563 7.163-3.933 12.528 10.326-7.737 10.327 7.737-4.101-12.401 9.731-7.29-11.98-0.862z"></path>
</symbol>
<symbol id="icon-Youtube" viewBox="0 0 47 32">
<title>Youtube</title>
<path fill="#fff" style="fill: var(--color3, #fff)" d="M29.854 14.669c0 0 1.69 0.847-0.003 1.691l-9.401 4.676c0 0-1.695 0.84-1.695-1.050v-9.393c0 0 0-1.488 1.432-0.768l4.362 2.191 5.305 2.653zM46.816 6.906c0 0-0.486-3.147-1.896-4.519-1.794-1.797-3.818-1.819-4.716-1.941-6.61-0.446-16.525-0.446-16.525-0.446h-0.053c0 0-9.891 0-16.502 0.446-0.949 0.122-2.947 0.144-4.74 1.941-1.413 1.373-1.896 4.519-1.896 4.519s-0.488 3.687-0.488 7.33v3.476c0 3.692 0.488 7.334 0.488 7.334s0.485 3.144 1.898 4.541c1.792 1.819 4.151 1.751 5.226 1.938 3.767 0.357 16.069 0.475 16.069 0.475s9.915-0.046 16.525-0.475c0.899-0.118 2.922-0.118 4.716-1.938 1.41-1.397 1.896-4.541 1.896-4.541s0.459-3.642 0.459-7.334v-3.476c-0.002-3.644-0.461-7.33-0.461-7.33z"></path>
</symbol>
<symbol id="icon-wheel" viewBox="0 0 32 32">
<title>wheel</title>
<path fill="#fff" style="fill: var(--color1, #fff)" d="M15.986 4.838c-6.132 0-11.121 4.989-11.121 11.122s4.989 11.122 11.121 11.122 11.12-4.99 11.12-11.122-4.988-11.122-11.12-11.122zM15.986 28.473c-6.899 0-12.511-5.614-12.511-12.514s5.612-12.512 12.511-12.512 12.511 5.612 12.511 12.512-5.612 12.514-12.511 12.514z"></path>
<path fill="#fff" style="fill: var(--color1, #fff)" d="M15.986 32c-0.384 0-0.695-0.311-0.695-0.695v-10.479c0-0.383 0.311-0.694 0.695-0.694s0.695 0.311 0.695 0.694v10.479c0.001 0.384-0.311 0.695-0.695 0.695z"></path>
<path fill="#fff" style="fill: var(--color1, #fff)" d="M15.986 11.794c-0.384 0-0.695-0.312-0.695-0.695v-10.402c0-0.385 0.311-0.696 0.695-0.696s0.695 0.31 0.695 0.695v10.402c0.001 0.385-0.311 0.696-0.695 0.696z"></path>
<path fill="#fff" style="fill: var(--color1, #fff)" d="M5.162 27.525c-0.178 0-0.355-0.068-0.491-0.204-0.272-0.271-0.272-0.711 0-0.982l7.322-7.325c0.271-0.272 0.711-0.272 0.983 0s0.271 0.711 0 0.983l-7.323 7.324c-0.135 0.136-0.314 0.204-0.491 0.204z"></path>
<path fill="#fff" style="fill: var(--color1, #fff)" d="M19.49 13.2c-0.178 0-0.356-0.068-0.491-0.205-0.272-0.27-0.272-0.711 0-0.982l7.318-7.32c0.272-0.271 0.712-0.271 0.983 0s0.271 0.712 0 0.983l-7.319 7.318c-0.135 0.138-0.313 0.206-0.49 0.206z"></path>
<path fill="#fff" style="fill: var(--color1, #fff)" d="M12.503 13.222c-0.178 0-0.355-0.069-0.491-0.205l-7.341-7.34c-0.271-0.271-0.271-0.711 0-0.983s0.712-0.271 0.983 0l7.34 7.342c0.272 0.271 0.272 0.712 0 0.982-0.136 0.135-0.314 0.204-0.491 0.204z"></path>
<path fill="#fff" style="fill: var(--color1, #fff)" d="M26.809 27.518c-0.178 0-0.356-0.068-0.491-0.204l-7.343-7.345c-0.271-0.273-0.271-0.712 0-0.983s0.711-0.27 0.983 0l7.342 7.346c0.272 0.271 0.272 0.711 0 0.982-0.135 0.135-0.314 0.203-0.491 0.203z"></path>
<path fill="#fff" style="fill: var(--color1, #fff)" d="M11.086 16.683h-10.39c-0.385 0-0.695-0.31-0.695-0.694s0.31-0.695 0.695-0.695h10.39c0.383 0 0.695 0.311 0.695 0.695s-0.311 0.694-0.695 0.694z"></path>
<path fill="#fff" style="fill: var(--color1, #fff)" d="M31.305 16.683h-10.448c-0.384 0-0.694-0.311-0.694-0.694s0.31-0.695 0.694-0.695h10.448c0.384 0 0.695 0.311 0.695 0.695s-0.311 0.694-0.695 0.694z"></path>
<path fill="#fff" style="fill: var(--color1, #fff)" d="M15.986 11.789c-2.3 0-4.17 1.872-4.17 4.172 0 2.298 1.87 4.17 4.17 4.17s4.17-1.872 4.17-4.17c0-2.3-1.87-4.172-4.17-4.172zM15.986 21.521c-3.066 0-5.561-2.494-5.561-5.56 0-3.067 2.494-5.562 5.561-5.562s5.561 2.495 5.561 5.562c0.001 3.066-2.494 5.56-5.561 5.56z"></path>
</symbol>
</defs>
<defs>
<symbol id="icon-Days-01" viewBox="0 0 32 32">
<title>Days-01</title>
<path fill="#00bac0" style="fill: var(--color1, #00bac0)" d="M3.265 1.537h25.471v28.926h-25.471v-28.926zM1.702 32h28.596v-32h-28.596v32z"></path>
<path fill="#00bac0" style="fill: var(--color1, #00bac0)" d="M25.731 9.826h-19.464v-5.343h19.464v5.343zM27.294 2.946h-22.589v8.417h22.589v-8.417z"></path>
<path fill="#1c4b8b" style="fill: var(--color2, #1c4b8b)" d="M12.694 17.732h4.467l-3.702 7.157h2.234l3.613-7.231v-1.658h-6.612z"></path>
</symbol>
<symbol id="icon-Bed-01" viewBox="0 0 32 32">
<title>Bed-01</title>
<path fill="#00bac0" style="fill: var(--color1, #00bac0)" d="M29.843 26.558h-27.686c-0.396 0-0.718-0.323-0.718-0.721l-0.001-3.528h29.124l0.001 3.528c0 0.398-0.323 0.721-0.719 0.721zM6.23 13.191h2.825v-1.442h-2.476v-4.134h0.004v-1.452c0-0.396 0.324-0.72 0.719-0.72h17.3c0.396 0 0.718 0.324 0.718 0.72v1.009h0.002v4.577h-2.642v1.442h3.278l4.391 7.677h-28.512l4.393-7.677zM31.945 20.867c-0.009-0.057-0.013-0.116-0.034-0.167l0.001-0.001-0.001-0.001c-0.011-0.029-0.030-0.052-0.046-0.079l-5.104-8.922v-4.999h-0.002v-0.535c0-1.192-0.967-2.162-2.156-2.162h-17.3c-1.188 0-2.157 0.97-2.157 2.162v0.535h-0.005v5.497l-5.025 8.782c-0.014 0.026-0.033 0.049-0.044 0.077l-0.001 0.001h0.001c-0.032 0.081-0.052 0.167-0.052 0.26h-0.020v4.523c0 1.193 0.967 2.162 2.157 2.162h27.686c1.189 0 2.158-0.97 2.158-2.163v-4.97h-0.055z"></path>
<path fill="#1c4b8b" style="fill: var(--color2, #1c4b8b)" d="M22.191 11.298v1.305c0 0.397-0.322 0.721-0.718 0.721h-11.041c-0.396 0-0.719-0.324-0.719-0.721v-0.859l0.001-0.001v-1.305c0-0.396 0.322-0.721 0.718-0.721h11.041c0.396 0 0.719 0.324 0.719 0.721v0.86h-0.001zM21.473 8.277h-11.041c-1.19 0-2.156 0.969-2.156 2.162v2.165c0 1.193 0.968 2.162 2.156 2.162h11.041c1.19 0 2.156-0.97 2.156-2.162v-2.165c-0.001-1.193-0.969-2.162-2.156-2.162z"></path>
</symbol>
<symbol id="icon-BYO-Drinks-01" viewBox="0 0 32 32">
<title>BYO-Drinks-01</title>
<path fill="#1c4b8b" style="fill: var(--color2, #1c4b8b)" d="M21.769 15.993c-1.828 0-3.568-0.624-4.965-1.771-3.065 2.508-7.653 2.332-10.503-0.501-0.263-0.262-0.262-0.684 0.003-0.943 0.264-0.261 0.69-0.261 0.954 0.003 2.482 2.467 6.555 2.497 9.077 0.069 0.262-0.255 0.68-0.253 0.943 0 1.211 1.168 2.806 1.81 4.496 1.81 0.018 0 0.039 0.003 0.054 0 0.931 0 1.861-0.208 2.696-0.601 0.334-0.16 0.738-0.020 0.9 0.314 0.161 0.333 0.018 0.73-0.319 0.889-1.015 0.479-2.147 0.732-3.271 0.732-0.023 0.004-0.043 0-0.065 0z"></path>
<path fill="#00bac0" style="fill: var(--color1, #00bac0)" d="M13.432 9.329c-0.232 0-0.458-0.118-0.584-0.33l-3.278-5.554c-0.281-0.475-0.752-0.818-1.292-0.941-0.541-0.123-1.118-0.020-1.58 0.283l-3.689 2.43c-0.312 0.203-0.731 0.121-0.936-0.185-0.207-0.306-0.123-0.72 0.187-0.925l3.689-2.43c0.771-0.506 1.731-0.678 2.632-0.473 0.902 0.206 1.688 0.777 2.155 1.569l3.279 5.554c0.187 0.317 0.078 0.726-0.243 0.912-0.107 0.062-0.224 0.091-0.34 0.091z"></path>
<path fill="#00bac0" style="fill: var(--color1, #00bac0)" d="M20.18 32h-6.748c-0.060 0-0.12-0.008-0.177-0.023-4.482-1.202-9.271-4.805-9.271-11.311 0-2.74 0.767-5.422 2.221-7.756l2.461-3.957c0.372-0.597 1.016-0.953 1.725-0.953h9.248c0.373 0 0.675 0.298 0.675 0.667s-0.302 0.667-0.675 0.667h-9.247c-0.236 0-0.452 0.118-0.575 0.317l-2.462 3.958c-1.322 2.124-2.021 4.566-2.021 7.059 0 7.139 6.155 9.439 8.19 10.001h6.565c2.035-0.562 8.19-2.862 8.19-10.001 0-1.965-0.444-3.941-1.286-5.718-0.158-0.334-0.013-0.731 0.325-0.887 0.335-0.156 0.739-0.012 0.897 0.322 0.923 1.951 1.413 4.123 1.413 6.282 0 6.507-4.789 10.109-9.271 11.311-0.057 0.015-0.118 0.023-0.178 0.023z"></path>
<path fill="#00bac0" style="fill: var(--color1, #00bac0)" d="M23.554 5.332c-0.743 0-1.35 0.598-1.35 1.333s0.607 1.334 1.35 1.334 1.35-0.598 1.35-1.334c0.001-0.735-0.606-1.333-1.35-1.333zM23.554 9.332c-1.489 0-2.699-1.197-2.699-2.667s1.21-2.666 2.699-2.666 2.699 1.196 2.699 2.666-1.209 2.667-2.699 2.667z"></path>
<path fill="#00bac0" style="fill: var(--color1, #00bac0)" d="M23.555 7.998c0.317 0.037 0.675 0.298 0.675 0.667v0.461c-0.001 0.857 0.52 1.613 1.327 1.926 0.392 0.153 0.85 0.114 1.212-0.103 0.234-0.212 0.415-0.626 0.391-1.046-0.050-0.844-0.607-1.565-1.418-1.836l-0.47-0.151c-0.355-0.114-0.547-0.491-0.432-0.841s0.496-0.539 0.85-0.427l0.010 0.004 0.434 0.139c0.895 0.28 1.73-0.014 2.262-0.655 0.268-0.325 0.371-0.763 0.272-1.17-0.131-0.285-0.476-0.583-0.889-0.689-0.821-0.215-1.724 0.112-2.22 0.786l-0.266 0.37c-0.217 0.298-0.639 0.368-0.941 0.156-0.185-0.13-0.283-0.336-0.283-0.545 0-0.133 0.041-0.268 0.125-0.385l0.27-0.375c0.513-0.697 0.542-1.608 0.077-2.328-0.229-0.357-0.619-0.591-1.046-0.628-0.309 0.037-0.699 0.271-0.929 0.628-0.468 0.721-0.442 1.633 0.065 2.326l0.272 0.38c0.085 0.118 0.124 0.251 0.124 0.385 0 0.208-0.098 0.414-0.284 0.543-0.304 0.214-0.725 0.144-0.941-0.157l-0.27-0.375c-0.491-0.668-1.393-0.989-2.217-0.778-0.412 0.107-0.756 0.402-0.92 0.79-0.065 0.306 0.037 0.745 0.304 1.069 0.537 0.646 1.454 0.916 2.262 0.654l0.446-0.143c0.352-0.114 0.735 0.077 0.851 0.427 0.115 0.351-0.078 0.727-0.433 0.841l-0.005 0.001-0.439 0.142c-0.819 0.266-1.382 0.991-1.431 1.844-0.025 0.419 0.153 0.833 0.475 1.108 0.211 0.106 0.731 0.19 1.127 0.039 0.804-0.313 1.325-1.068 1.324-1.925l0.004-0.468c0.003-0.367 0.304-0.662 0.675-0.662zM26.056 12.479c-0.341 0-0.675-0.063-0.993-0.185-0.618-0.241-1.134-0.639-1.51-1.138-0.374 0.499-0.891 0.897-1.509 1.137-0.787 0.306-1.689 0.225-2.409-0.204-0.73-0.609-1.083-1.43-1.032-2.262 0.039-0.655 0.26-1.264 0.625-1.772-0.609-0.2-1.154-0.567-1.572-1.071-0.534-0.647-0.735-1.516-0.539-2.327 0.359-0.871 1.041-1.456 1.857-1.667 0.628-0.164 1.301-0.142 1.908 0.047 0.007-0.622 0.189-1.245 0.548-1.799 0.453-0.703 1.226-1.167 2.068-1.238 0.96 0.071 1.732 0.536 2.185 1.241 0.356 0.552 0.534 1.172 0.541 1.793 0.603-0.187 1.272-0.211 1.898-0.047 0.817 0.211 1.499 0.795 1.827 1.564 0.23 0.914 0.027 1.782-0.504 2.429-0.418 0.503-0.962 0.87-1.57 1.070 0.37 0.51 0.595 1.119 0.635 1.776 0.047 0.832-0.308 1.654-0.948 2.197-0.516 0.321-1.005 0.456-1.505 0.456z"></path>
</symbol>
<symbol id="icon-Guest-Leader-01" viewBox="0 0 32 32">
<title>Guest-Leader-01</title>
<path fill="#00bac0" style="fill: var(--color1, #00bac0)" d="M16 16.001c-0.844 0-1.687-0.265-2.391-0.796-0.293-0.22-0.353-0.638-0.132-0.932s0.636-0.353 0.929-0.133c0.938 0.707 2.249 0.707 3.187 0 0.295-0.22 0.71-0.161 0.929 0.133 0.221 0.295 0.162 0.712-0.132 0.932-0.704 0.531-1.547 0.796-2.391 0.796z"></path>
<path fill="#00bac0" style="fill: var(--color1, #00bac0)" d="M18.656 12.34c-0.549 0-0.996-0.448-0.996-0.999s0.447-1 0.996-1 0.996 0.449 0.996 1c0 0.552-0.447 0.999-0.996 0.999z"></path>
<path fill="#00bac0" style="fill: var(--color1, #00bac0)" d="M13.344 12.34c-0.549 0-0.996-0.448-0.996-0.999s0.447-1 0.996-1c0.549 0 0.996 0.449 0.996 1s-0.447 0.999-0.996 0.999z"></path>
<path fill="#00bac0" style="fill: var(--color1, #00bac0)" d="M15.455 1.333c-1.916 0-3.796 0.345-5.588 1.024-0.706 0.303-1.177 1.022-1.171 1.821v7.159c0 4.041 3.276 7.329 7.304 7.329s7.304-3.288 7.304-7.329v-7.155c0.006-0.802-0.462-1.521-1.192-1.836-1.925-0.73-3.988-1.078-6.090-1.005-0.218-0.005-0.393-0.008-0.567-0.008zM16 19.999c-4.76 0-8.633-3.886-8.633-8.663v-7.155c-0.008-1.333 0.779-2.537 2.004-3.061 2.148-0.815 4.382-1.19 6.65-1.111 0.148-0.007 0.338-0.010 0.529-0.010 2.079 0 4.116 0.374 6.059 1.111 1.249 0.539 2.033 1.742 2.023 3.076v7.15c0 4.777-3.873 8.663-8.633 8.663z"></path>
<path fill="#00bac0" style="fill: var(--color1, #00bac0)" d="M23.968 10.009c-0.167 0-0.335-0.063-0.464-0.19-0.031-0.029-1.968-1.809-7.504-1.809-5.553 0-7.485 1.791-7.504 1.809-0.262 0.252-0.681 0.248-0.936-0.013s-0.255-0.676 0.003-0.935c0.089-0.089 2.256-2.194 8.437-2.194s8.348 2.105 8.439 2.194c0.258 0.26 0.258 0.682 0 0.942-0.13 0.13-0.3 0.196-0.471 0.196z"></path>
<path fill="#00bac0" style="fill: var(--color1, #00bac0)" d="M23.968 7.343c-0.167 0-0.335-0.063-0.464-0.19-0.031-0.029-1.968-1.809-7.504-1.809-5.553 0-7.485 1.791-7.504 1.809-0.262 0.252-0.681 0.248-0.936-0.013s-0.255-0.676 0.003-0.935c0.089-0.089 2.256-2.194 8.437-2.194s8.348 2.105 8.439 2.194c0.258 0.26 0.258 0.682 0 0.942-0.13 0.13-0.3 0.196-0.471 0.196z"></path>
<path fill="#00bac0" style="fill: var(--color1, #00bac0)" d="M16 31.996c-0.367 0-0.664-0.297-0.664-0.666v-11.992c0-0.368 0.297-0.666 0.664-0.666s0.664 0.298 0.664 0.666v11.992c0 0.369-0.297 0.666-0.664 0.666z"></path>
<path fill="#00bac0" style="fill: var(--color1, #00bac0)" d="M30.609 32c-0.367 0-0.664-0.298-0.664-0.666v-4.14c0.004-0.617-0.282-1.204-0.764-1.577-2.713-1.914-5.921-3.088-9.255-3.377-0.366-0.031-0.636-0.354-0.604-0.721s0.339-0.649 0.719-0.607c3.567 0.309 6.999 1.565 9.927 3.631 0.832 0.643 1.311 1.629 1.305 2.654v4.136c0.001 0.368-0.296 0.666-0.663 0.666z"></path>
<path fill="#00bac0" style="fill: var(--color1, #00bac0)" d="M1.391 32c-0.367 0-0.664-0.298-0.664-0.666v-4.14c-0.007-1.020 0.473-2.007 1.281-2.633 2.951-2.083 6.383-3.34 9.95-3.649 0.368-0.041 0.687 0.239 0.719 0.607s-0.239 0.689-0.604 0.721c-3.334 0.288-6.541 1.463-9.277 3.393-0.458 0.356-0.744 0.944-0.74 1.556v4.144c0 0.368-0.297 0.666-0.664 0.666z"></path>
<path fill="#00bac0" style="fill: var(--color1, #00bac0)" d="M16.046 24c-1.619-0.106-3.105-0.604-4.391-1.438-0.19-0.123-0.304-0.334-0.304-0.561v-3.731c0-0.369 0.297-0.666 0.664-0.666s0.664 0.297 0.664 0.666v3.359c1.025 0.599 2.182 0.959 3.367 1.040 1.101-0.081 2.249-0.44 3.274-1.040v-3.359c0-0.369 0.297-0.666 0.664-0.666s0.664 0.297 0.664 0.666v3.731c0 0.227-0.114 0.438-0.303 0.561-1.286 0.834-2.772 1.332-4.299 1.438z"></path>
<path fill="#1c4b8b" style="fill: var(--color2, #1c4b8b)" d="M18.656 28.332c-0.549 0-0.996-0.448-0.996-0.999s0.447-1 0.996-1 0.996 0.449 0.996 1-0.447 0.999-0.996 0.999z"></path>
<path fill="#1c4b8b" style="fill: var(--color2, #1c4b8b)" d="M18.656 31.664c-0.549 0-0.996-0.448-0.996-0.999s0.447-1 0.996-1 0.996 0.449 0.996 1-0.447 0.999-0.996 0.999z"></path>
<path fill="#00bac0" style="fill: var(--color1, #00bac0)" d="M24.556 19.934c-0.466 0-0.932-0.050-1.395-0.15-0.359-0.076-0.588-0.431-0.51-0.791 0.076-0.36 0.428-0.589 0.789-0.511 1.113 0.239 2.252 0.119 3.292-0.349-2.717-1.776-3.428-6.36-3.428-8.789 0-0.369 0.297-0.667 0.664-0.667s0.664 0.298 0.664 0.667c0 2.015 0.58 6.21 2.776 7.666 0.391 0.236 0.637 0.692 0.621 1.177-0.015 0.484-0.29 0.924-0.719 1.145-0.891 0.401-1.821 0.602-2.754 0.602z"></path>
<path fill="#00bac0" style="fill: var(--color1, #00bac0)" d="M7.443 19.937c-0.931 0-1.852-0.198-2.72-0.59-0.461-0.239-0.737-0.678-0.753-1.162s0.231-0.94 0.644-1.191c2.173-1.441 2.753-5.636 2.753-7.652 0-0.368 0.297-0.666 0.664-0.666s0.665 0.298 0.665 0.666c0 0.67-0.095 6.606-3.373 8.778 0.983 0.479 2.116 0.603 3.225 0.367 0.357-0.079 0.711 0.153 0.787 0.514s-0.153 0.713-0.513 0.79c-0.457 0.097-0.919 0.145-1.379 0.145z"></path>
</symbol>
<symbol id="icon-Map-01" viewBox="0 0 32 32">
<title>Map-01</title>
<path fill="#00bac0" style="fill: var(--color1, #00bac0)" d="M15.999 26.717c0.178 0 0.355 0.024 0.528 0.071l6.67 1.812c0.108 0.029 0.229 0.031 0.342 0.003l6.616-1.648c0.31-0.078 0.524-0.364 0.505-0.682l-1.187-21.931c-0.012-0.202-0.113-0.386-0.276-0.504s-0.376-0.154-0.567-0.103l-5.393 1.467c-0.356 0.098-0.746 0.094-1.108-0.014l-5.94-1.785c-0.123-0.036-0.257-0.037-0.383 0.001l-5.941 1.776c-0.347 0.108-0.741 0.112-1.106 0.013l-5.384-1.463c-0.191-0.052-0.402-0.016-0.566 0.103-0.163 0.117-0.266 0.303-0.278 0.507l-1.194 21.927c-0.018 0.321 0.195 0.61 0.507 0.689l6.614 1.648c0.111 0.027 0.232 0.026 0.342-0.003l6.668-1.812c0.173-0.047 0.351-0.071 0.529-0.071zM23.372 29.957c-0.178 0-0.355-0.023-0.526-0.070l-6.672-1.812c-0.112-0.031-0.238-0.031-0.35 0l-6.67 1.812c-0.331 0.089-0.681 0.093-1.017 0.011l-6.617-1.649c-0.934-0.234-1.572-1.099-1.517-2.058l1.194-21.928c0.036-0.607 0.337-1.158 0.831-1.513 0.494-0.353 1.123-0.466 1.703-0.308l5.386 1.465c0.123 0.035 0.247 0.033 0.361-0.003l5.946-1.777c0.374-0.112 0.779-0.112 1.153 0l5.942 1.786c0.121 0.035 0.246 0.037 0.364 0.004l5.394-1.467c0.582-0.158 1.217-0.045 1.703 0.308 0.492 0.351 0.795 0.903 0.83 1.511l1.187 21.932c0.054 0.953-0.582 1.817-1.518 2.049l-6.618 1.648c-0.161 0.040-0.327 0.060-0.49 0.060z"></path>
<path fill="#1c4b8b" style="fill: var(--color2, #1c4b8b)" d="M26.039 15.99c-0.172 0-0.342-0.065-0.473-0.195l-5.353-5.336c-0.261-0.261-0.261-0.682 0-0.943 0.262-0.261 0.685-0.261 0.947 0l5.352 5.336c0.262 0.26 0.262 0.682 0 0.943-0.131 0.13-0.302 0.195-0.473 0.195z"></path>
<path fill="#1c4b8b" style="fill: var(--color2, #1c4b8b)" d="M20.686 15.99c-0.172 0-0.342-0.065-0.473-0.195-0.261-0.261-0.261-0.683 0-0.943l5.353-5.336c0.261-0.261 0.685-0.261 0.946 0s0.261 0.682 0 0.943l-5.352 5.336c-0.131 0.13-0.303 0.195-0.474 0.195z"></path>
<path fill="#1c4b8b" style="fill: var(--color2, #1c4b8b)" d="M5.294 17.324c-0.303 0-0.577-0.206-0.651-0.513-0.085-0.357 0.138-0.718 0.497-0.802l2.119-0.5c0.362-0.086 0.72 0.136 0.805 0.495s-0.137 0.718-0.496 0.803l-2.119 0.5c-0.052 0.013-0.103 0.018-0.155 0.018z"></path>
<path fill="#1c4b8b" style="fill: var(--color2, #1c4b8b)" d="M11.316 19.992c-0.216 0-0.428-0.104-0.557-0.297l-1.029-1.541c-0.205-0.306-0.122-0.72 0.186-0.924 0.303-0.204 0.721-0.123 0.927 0.184l1.030 1.54c0.205 0.306 0.121 0.721-0.186 0.925-0.114 0.076-0.243 0.112-0.371 0.112z"></path>
<path fill="#1c4b8b" style="fill: var(--color2, #1c4b8b)" d="M16 22.659h-2.007c-0.37 0-0.669-0.298-0.669-0.667s0.3-0.667 0.669-0.667h2.007c0.37 0 0.669 0.298 0.669 0.667s-0.3 0.667-0.669 0.667z"></path>
<path fill="#1c4b8b" style="fill: var(--color2, #1c4b8b)" d="M18.007 20.659c-0.171 0-0.342-0.065-0.473-0.195-0.261-0.261-0.261-0.683 0-0.943l1.339-1.334c0.262-0.261 0.685-0.261 0.946 0s0.261 0.682 0 0.943l-1.338 1.334c-0.131 0.13-0.302 0.195-0.474 0.195z"></path>
</symbol>
<symbol id="icon-Pizza-01" viewBox="0 0 32 32">
<title>Pizza-01</title>
<path fill="#00bac0" style="fill: var(--color1, #00bac0)" d="M16.679 5.645l0.165 0.051c0.163 0.048 0.365 0.108 0.492 0.155 3.905 1.267 6.822 3.493 8.44 6.39 0.372-0.813 0.989-1.474 1.786-1.818 0.582-0.253 1.216-0.307 1.809-0.17-1.923-3.498-5.364-6.237-9.958-7.864-0.903-0.325-1.817-0.598-2.719-0.813-0.21-0.050-0.43 0.024-0.589 0.193-0.57 0.615-0.789 1.569-0.559 2.433 0.176 0.655 0.589 1.181 1.133 1.443zM26.174 15.803c-0.285 0-0.547-0.213-0.637-0.545-0.978-3.622-4.026-6.431-8.585-7.911-0.131-0.049-0.3-0.098-0.435-0.138-0.113-0.033-0.226-0.066-0.327-0.115l-0.001 0.004c-0.922-0.436-1.622-1.321-1.919-2.429-0.385-1.438-0.021-3.026 0.929-4.047 0.468-0.505 1.119-0.726 1.759-0.575 0.947 0.225 1.903 0.511 2.847 0.849 6.124 2.169 10.362 6.253 11.955 11.513 0.075 0.126 0.119 0.28 0.119 0.445 0 0.432-0.3 0.781-0.669 0.781h-0.026c-0.259 0-0.507-0.178-0.616-0.474-0.41-1.119-1.557-1.704-2.54-1.275-1.003 0.435-1.537 1.708-1.216 2.899v0.003c0.111 0.412-0.083 0.849-0.436 0.979-0.067 0.025-0.134 0.036-0.201 0.036z"></path>
<path fill="#00bac0" style="fill: var(--color1, #00bac0)" d="M10.277 15.54c-0.643 0-1.289-0.119-1.903-0.358-0.351-0.136-0.54-0.578-0.424-0.986 0.118-0.411 0.494-0.629 0.847-0.495 0.955 0.371 2.009 0.371 2.965-0.004 2.049-0.754 3.334-2.74 2.878-4.431-0.141-0.508-0.431-0.96-0.812-1.267-0.305-0.246-0.381-0.73-0.17-1.086 0.209-0.358 0.625-0.441 0.93-0.199 0.621 0.502 1.091 1.238 1.325 2.077 0.679 2.518-0.998 5.383-3.737 6.392-0.609 0.239-1.254 0.358-1.898 0.358z"></path>
<path fill="#00bac0" style="fill: var(--color1, #00bac0)" d="M1.471 28.159c-0.107 0-0.213-0.030-0.31-0.088-0.157-0.095-0.275-0.259-0.328-0.457l-0.803-2.976c-0.111-0.412 0.085-0.851 0.436-0.979 0.352-0.126 0.73 0.099 0.838 0.51l0.603 2.233 7.918-2.913c0.352-0.129 0.727 0.099 0.838 0.51s-0.083 0.849-0.436 0.978l-8.557 3.146c-0.065 0.024-0.133 0.037-0.201 0.037z"></path>
<path fill="#00bac0" style="fill: var(--color1, #00bac0)" d="M22.061 20.587c-0.285 0-0.548-0.213-0.637-0.545-0.111-0.413 0.083-0.851 0.436-0.979l7.467-2.745c1.034-0.497 1.593-1.922 1.221-3.223-0.116-0.408 0.072-0.85 0.422-0.986s0.728 0.083 0.846 0.493c0.594 2.078-0.3 4.354-2.035 5.184l-7.519 2.767c-0.066 0.024-0.134 0.035-0.2 0.035z"></path>
<path fill="#00bac0" style="fill: var(--color1, #00bac0)" d="M14.039 23.538c-0.285 0-0.547-0.213-0.637-0.545-0.111-0.412 0.083-0.85 0.436-0.979l4.012-1.475c0.352-0.125 0.727 0.099 0.838 0.51 0.11 0.411-0.083 0.849-0.437 0.979l-4.011 1.475c-0.067 0.024-0.134 0.036-0.201 0.036z"></path>
<path fill="#1c4b8b" style="fill: var(--color2, #1c4b8b)" d="M20.056 32c-1.474 0-2.675-1.4-2.675-3.121v-9.804l-2.674 0.984v4.918c0 1.722-1.2 3.121-2.674 3.121s-2.674-1.4-2.674-3.121l-0.006-2.951-8.483 3.117c-0.289 0.106-0.603-0.029-0.767-0.328-0.161-0.299-0.13-0.688 0.076-0.947l14.873-18.728c0.25-0.317 0.677-0.333 0.944-0.042 0.271 0.294 0.288 0.787 0.035 1.103l-13.159 16.57 6.945-2.551c0.204-0.072 0.424-0.033 0.595 0.115 0.173 0.147 0.274 0.38 0.274 0.627l0.009 4.014c0 0.862 0.599 1.563 1.337 1.563s1.337-0.701 1.337-1.561v-5.491c0-0.34 0.189-0.641 0.467-0.744l4.012-1.476c0.199-0.074 0.424-0.032 0.596 0.115 0.171 0.147 0.273 0.381 0.273 0.629v10.869c0 0.861 0.598 1.561 1.337 1.561 0.737 0 1.337-0.701 1.337-1.561v-12.344c0-0.339 0.189-0.641 0.467-0.744l4.113-1.512c0.353-0.128 0.729 0.099 0.838 0.51 0.111 0.411-0.083 0.849-0.436 0.979l-3.645 1.34v11.772c-0.001 1.721-1.201 3.121-2.675 3.121z"></path>
</symbol>
<symbol id="icon-Tea-01" viewBox="0 0 32 32">
<title>Tea-01</title>
<path fill="#00bac0" style="fill: var(--color1, #00bac0)" d="M6.667 8.353c-0.167 0-0.332-0.061-0.462-0.186-0.577-0.554-0.894-1.291-0.894-2.079s0.317-1.525 0.894-2.079c0.312-0.301 0.486-0.698 0.486-1.119-0.001-0.422-0.173-0.817-0.486-1.117-0.265-0.255-0.274-0.676-0.018-0.942 0.255-0.264 0.677-0.274 0.943-0.018 0.575 0.553 0.893 1.29 0.894 2.076 0 0.787-0.317 1.526-0.894 2.080-0.314 0.301-0.486 0.699-0.486 1.119s0.172 0.818 0.486 1.119c0.265 0.255 0.273 0.676 0.018 0.942-0.13 0.135-0.306 0.204-0.481 0.204z"></path>
<path fill="#00bac0" style="fill: var(--color1, #00bac0)" d="M12.667 8.353c-0.167 0-0.332-0.061-0.462-0.186-0.577-0.554-0.894-1.291-0.894-2.079s0.318-1.525 0.894-2.079c0.312-0.301 0.486-0.698 0.486-1.119-0.001-0.422-0.173-0.817-0.486-1.117-0.265-0.255-0.274-0.676-0.018-0.942 0.255-0.264 0.677-0.274 0.943-0.018 0.575 0.553 0.893 1.29 0.894 2.076 0 0.787-0.318 1.526-0.894 2.080-0.314 0.301-0.486 0.699-0.486 1.119s0.172 0.818 0.486 1.119c0.265 0.255 0.273 0.676 0.018 0.942-0.13 0.135-0.307 0.204-0.481 0.204z"></path>
<path fill="#00bac0" style="fill: var(--color1, #00bac0)" d="M18.667 8.353c-0.167 0-0.332-0.061-0.462-0.186-0.577-0.554-0.894-1.291-0.894-2.079s0.317-1.525 0.894-2.079c0.312-0.301 0.486-0.698 0.486-1.119-0.001-0.422-0.173-0.817-0.486-1.117-0.265-0.255-0.274-0.676-0.018-0.942 0.253-0.264 0.677-0.274 0.943-0.018 0.575 0.553 0.893 1.29 0.894 2.076 0 0.787-0.317 1.526-0.894 2.080-0.314 0.301-0.486 0.699-0.486 1.119s0.172 0.818 0.486 1.119c0.265 0.255 0.273 0.676 0.018 0.942-0.131 0.135-0.306 0.204-0.481 0.204z"></path>
<path fill="#00bac0" style="fill: var(--color1, #00bac0)" d="M2.667 12.19v8.286c0 5.274 4.486 9.565 10 9.565s10-4.291 10-9.565v-8.286h-20.001zM12.667 31.373c-6.249 0-11.333-4.888-11.333-10.897v-8.313c0-0.719 0.597-1.304 1.333-1.304h20.667c0.368 0 0.666 0.297 0.666 0.666v8.952c-0.001 6.009-5.085 10.897-11.333 10.897z"></path>
<path fill="#00bac0" style="fill: var(--color1, #00bac0)" d="M25.333 23.699h-2.332c-0.368 0-0.666-0.299-0.666-0.666s0.299-0.666 0.666-0.666h2.332c2.942 0 5.333-2.284 5.333-5.089s-2.392-5.088-5.333-5.088h-2c-0.368 0-0.666-0.298-0.666-0.666s0.298-0.666 0.666-0.666h2c3.676 0 6.667 2.88 6.667 6.42s-2.991 6.421-6.667 6.421z"></path>
<path fill="#1c4b8b" style="fill: var(--color2, #1c4b8b)" d="M8.666 16.026c-1.102 0-2 0.849-2 1.892v3.198l4-0.028c0.008 0 0.011-0.001 0.011-0.001l-0.011-3.169c0-1.043-0.897-1.892-2-1.892zM10.667 22.421h-4c-0.736 0-1.333-0.586-1.333-1.305v-3.198c0-1.777 1.495-3.224 3.333-3.224s3.334 1.447 3.334 3.224v3.198c0 0.72-0.598 1.305-1.333 1.305z"></path>
<path fill="#1c4b8b" style="fill: var(--color2, #1c4b8b)" d="M8.666 16.026c-0.368 0-0.666-0.298-0.666-0.666v-5.115c0-0.368 0.298-0.666 0.666-0.666s0.666 0.298 0.666 0.666v5.115c0.001 0.368-0.298 0.666-0.666 0.666z"></path>
<path fill="#00bac0" style="fill: var(--color1, #00bac0)" d="M0.666 31.373c-0.368 0-0.666-0.298-0.666-0.666s0.298-0.666 0.666-0.666h26.667c0.368 0 0.667 0.298 0.667 0.666s-0.299 0.666-0.667 0.666z"></path>
</symbol>
<symbol id="icon-Water-Sports-01" viewBox="0 0 32 32">
<title>Water-Sports-01</title>
<path fill="#00bac0" style="fill: var(--color1, #00bac0)" d="M12.666 20.657c-0.104 0-0.209-0.024-0.307-0.074-0.327-0.17-0.454-0.572-0.284-0.897l2.668-5.123c0.17-0.327 0.576-0.451 0.899-0.284 0.327 0.17 0.454 0.572 0.284 0.897l-2.668 5.122c-0.119 0.228-0.351 0.359-0.591 0.359z"></path>
<path fill="#00bac0" style="fill: var(--color1, #00bac0)" d="M19.213 8.091c-0.104 0-0.21-0.024-0.307-0.075-0.327-0.169-0.454-0.571-0.284-0.897l2.12-4.069c0.171-0.327 0.578-0.452 0.899-0.283 0.327 0.169 0.454 0.571 0.284 0.897l-2.12 4.068c-0.119 0.228-0.352 0.359-0.592 0.359z"></path>
<path fill="#00bac0" style="fill: var(--color1, #00bac0)" d="M12 2.026c-1.47 0-2.666 1.194-2.666 2.662s1.197 2.662 2.666 2.662c1.47 0 2.666-1.194 2.666-2.662s-1.197-2.662-2.666-2.662zM12 8.68c-2.206 0-4-1.791-4-3.992s1.794-3.992 4-3.992 4 1.791 4 3.992c0 2.202-1.794 3.992-4 3.992z"></path>
<path fill="#00bac0" style="fill: var(--color1, #00bac0)" d="M30.147 26.646c-0.125 0-0.25-0.035-0.364-0.108-0.309-0.201-0.394-0.614-0.194-0.922 0.709-1.082 1.080-2.336 1.078-3.627-0.001-2.721-2.045-4.995-4.755-5.29-0.287 2.243-2.273 3.958-4.577 3.958h-20.669c-0.369-0.001-0.666-0.297-0.666-0.666 0-0.367 0.298-0.665 0.666-0.665h20.668c1.646 0 3.064-1.226 3.298-2.852 0.113-0.687 0.73-1.155 1.416-1.1 3.395 0.37 5.951 3.213 5.952 6.614 0.002 1.549-0.446 3.057-1.294 4.356-0.128 0.195-0.342 0.302-0.559 0.302z"></path>
<path fill="#00bac0" style="fill: var(--color1, #00bac0)" d="M7.845 20.657c-0.094 0-0.189-0.019-0.279-0.061-0.335-0.154-0.48-0.548-0.326-0.883l2.444-5.299c0.15-0.325 0.531-0.474 0.858-0.337 2.803 1.144 6.039 0.255 7.858-2.166l1.335-1.77c0.284-0.378 0.345-0.885 0.158-1.32-0.186-0.437-0.594-0.742-1.065-0.799-0.466-0.055-0.942 0.143-1.226 0.522l-1.336 1.769c-1.156 1.544-3.25 2.040-4.983 1.182l-1.352-0.675c-0.322-0.161-0.701-0.185-1.038-0.067-0.339 0.119-0.62 0.374-0.769 0.699l-4 8.65c-0.121 0.347-0.524 0.584-0.872 0.463s-0.553-0.447-0.431-0.794c0.025-0.072 0.054-0.144 0.087-0.216l4.004-8.66c0.301-0.65 0.861-1.158 1.539-1.396 0.676-0.237 1.434-0.19 2.076 0.131l1.352 0.674c1.151 0.572 2.55 0.241 3.322-0.79l1.334-1.77c0.568-0.758 1.516-1.155 2.451-1.045 0.943 0.113 1.76 0.725 2.133 1.598 0.374 0.87 0.251 1.882-0.318 2.641l-1.335 1.77c-2.053 2.733-5.608 3.841-8.828 2.816l-2.188 4.743c-0.111 0.245-0.353 0.388-0.605 0.388z"></path>
<path fill="#1c4b8b" style="fill: var(--color2, #1c4b8b)" d="M1.583 31.304c-0.34 0-0.689-0.034-1.046-0.11-0.36-0.076-0.59-0.43-0.513-0.79s0.439-0.584 0.792-0.513c2.813 0.604 5.252-2.417 5.277-2.448 0.133-0.168 0.317-0.269 0.552-0.253 0.212 0.009 0.409 0.119 0.527 0.297 0.957 1.444 2.564 2.355 4.297 2.438 1.802-0.094 3.528-0.996 4.668-2.477 0.14-0.181 0.361-0.275 0.587-0.257 0.227 0.020 0.428 0.154 0.533 0.355 0.75 1.437 2.224 2.348 3.846 2.378 1.722-0.041 3.32-0.947 4.253-2.424 0.121-0.194 0.334-0.311 0.564-0.311 0.229 0 0.443 0.118 0.565 0.312 0.074 0.12 1.891 2.915 4.71 2.335 0.362-0.073 0.714 0.155 0.789 0.515s-0.156 0.712-0.515 0.787c-2.705 0.564-4.634-1.13-5.54-2.175-1.197 1.407-2.942 2.248-4.822 2.292-1.814-0.033-3.469-0.891-4.526-2.292-1.348 1.371-3.166 2.194-5.111 2.291-1.93-0.090-3.69-0.957-4.899-2.36-0.888 0.892-2.729 2.408-4.988 2.408z"></path>
</symbol>
<symbol id="icon-Wheel-01" viewBox="0 0 32 32">
<title>Wheel-01</title>
<path fill="#1c4b8b" style="fill: var(--color2, #1c4b8b)" d="M15.986 4.838c-6.132 0-11.121 4.99-11.121 11.122s4.989 11.122 11.121 11.122c6.132 0 11.121-4.989 11.121-11.122s-4.99-11.122-11.121-11.122zM15.986 28.473c-6.899 0-12.511-5.613-12.511-12.513s5.612-12.513 12.511-12.513c6.899 0 12.511 5.613 12.511 12.513s-5.612 12.513-12.511 12.513z"></path>
<path fill="#00bac0" style="fill: var(--color1, #00bac0)" d="M15.986 32c-0.384 0-0.695-0.311-0.695-0.695v-10.479c0-0.384 0.311-0.695 0.695-0.695s0.695 0.311 0.695 0.695v10.479c0 0.385-0.311 0.695-0.695 0.695z"></path>
<path fill="#00bac0" style="fill: var(--color1, #00bac0)" d="M15.986 11.793c-0.384 0-0.695-0.311-0.695-0.695v-10.402c0-0.385 0.311-0.695 0.695-0.695s0.695 0.311 0.695 0.695v10.402c0 0.385-0.311 0.695-0.695 0.695z"></path>
<path fill="#00bac0" style="fill: var(--color1, #00bac0)" d="M5.162 27.525c-0.178 0-0.356-0.067-0.491-0.203-0.272-0.271-0.272-0.711 0-0.983l7.322-7.325c0.271-0.271 0.711-0.271 0.983 0s0.271 0.711 0 0.983l-7.322 7.325c-0.136 0.136-0.314 0.204-0.492 0.204z"></path>
<path fill="#00bac0" style="fill: var(--color1, #00bac0)" d="M19.49 13.2c-0.178 0-0.356-0.068-0.492-0.204-0.271-0.271-0.271-0.711 0-0.983l7.319-7.32c0.271-0.272 0.711-0.272 0.983 0s0.271 0.711 0 0.983l-7.318 7.32c-0.136 0.135-0.314 0.204-0.492 0.204z"></path>
<path fill="#00bac0" style="fill: var(--color1, #00bac0)" d="M12.503 13.222c-0.178 0-0.356-0.068-0.492-0.204l-7.34-7.341c-0.272-0.272-0.272-0.711 0-0.983s0.711-0.271 0.983 0l7.34 7.342c0.271 0.271 0.271 0.711 0 0.983-0.135 0.136-0.314 0.204-0.492 0.204z"></path>
<path fill="#00bac0" style="fill: var(--color1, #00bac0)" d="M26.809 27.518c-0.178 0-0.356-0.067-0.492-0.204l-7.343-7.345c-0.271-0.271-0.271-0.711 0-0.983s0.711-0.271 0.983 0l7.343 7.346c0.271 0.271 0.271 0.711 0 0.983-0.136 0.136-0.314 0.204-0.492 0.204z"></path>
<path fill="#00bac0" style="fill: var(--color1, #00bac0)" d="M11.086 16.683h-10.391c-0.384 0-0.695-0.311-0.695-0.695s0.311-0.695 0.695-0.695h10.391c0.384 0 0.695 0.311 0.695 0.695s-0.311 0.695-0.695 0.695z"></path>
<path fill="#00bac0" style="fill: var(--color1, #00bac0)" d="M31.305 16.683h-10.447c-0.385 0-0.695-0.311-0.695-0.695s0.311-0.695 0.695-0.695h10.447c0.384 0 0.695 0.311 0.695 0.695s-0.311 0.695-0.695 0.695z"></path>
<path fill="#00bac0" style="fill: var(--color1, #00bac0)" d="M15.986 11.789c-2.3 0-4.17 1.871-4.17 4.171s1.871 4.171 4.17 4.171 4.17-1.871 4.17-4.171c0-2.3-1.871-4.171-4.17-4.171zM15.986 21.521c-3.066 0-5.561-2.494-5.561-5.561s2.494-5.561 5.561-5.561 5.561 2.494 5.561 5.561c0 3.067-2.494 5.561-5.561 5.561z"></path>
<path fill="#00bac0" style="fill: var(--color1, #00bac0)" d="M15.986 14.569c-0.767 0-1.39 0.623-1.39 1.39s0.623 1.391 1.39 1.391c0.767 0 1.39-0.623 1.39-1.391s-0.623-1.39-1.39-1.39zM15.986 18.74c-1.533 0-2.78-1.247-2.78-2.781 0-1.532 1.247-2.78 2.78-2.78s2.78 1.248 2.78 2.78c0 1.534-1.248 2.781-2.78 2.781z"></path>
</symbol>
</defs>
</svg>

