<?xml version="1.0" encoding="utf-8"?>
<!-- Generator: Adobe Illustrator 16.0.0, SVG Export Plug-In . SVG Version: 6.00 Build 0)  -->
<!DOCTYPE svg PUBLIC "-//W3C//DTD SVG 1.1//EN" "http://www.w3.org/Graphics/SVG/1.1/DTD/svg11.dtd">
<svg version="1.1" id="Layer_1" xmlns="http://www.w3.org/2000/svg" xmlns:xlink="http://www.w3.org/1999/xlink" x="0px" y="0px"
	 width="67.496px" height="70.224px" viewBox="0 0 67.496 70.224" enable-background="new 0 0 67.496 70.224" xml:space="preserve">
<g>
	<path fill="#29B99A" d="M59.89,53.355H11.925H9.44H7.607c-0.747,0-1.356-0.61-1.356-1.357L6.25,45.353h54.997l0.001,6.646
		C61.248,52.745,60.637,53.355,59.89,53.355 M15.298,28.178h5.336v-2.717h-4.676v-7.787h0.008V14.94c0-0.747,0.61-1.357,1.358-1.357
		h28.351h0.662h3.657c0.747,0,1.356,0.61,1.356,1.357v1.899h0.003v8.621h-4.99v2.717h6.189l8.293,14.459H7.004L15.298,28.178z
		 M63.859,42.637c-0.017-0.107-0.025-0.219-0.065-0.316h0.001l-0.001-0.002c-0.021-0.054-0.057-0.099-0.086-0.149l-9.639-16.806
		v-9.415h-0.003V14.94c0-2.246-1.826-4.073-4.072-4.073h-3.657h-0.943h-28.07c-2.244,0-4.073,1.827-4.073,4.073v1.008h-0.009v10.354
		l-9.488,16.54c-0.026,0.05-0.061,0.092-0.082,0.144l-0.001,0.003v0.001c-0.06,0.152-0.098,0.316-0.099,0.49H3.534v8.519
		c0,2.246,1.826,4.073,4.073,4.073H9.44h2.766H59.89c2.244,0,4.072-1.827,4.072-4.073v-9.361H63.859z"/>
	<path fill="#29B99A" d="M13.144,54.949h-2.716v4.201H9.156v-4.201H6.44v5.56v0.001c0,0.743,0.603,1.346,1.346,1.346h0.001v0.012
		h4.114v-0.032c0.693-0.057,1.243-0.619,1.243-1.325v-0.001V54.949z"/>
	<path fill="#29B99A" d="M61.2,54.539h-2.716v4.202h-1.271v-4.202h-2.716V60.1v0.001c0,0.743,0.602,1.346,1.345,1.346h0.001v0.011
		h4.114v-0.031c0.693-0.057,1.243-0.619,1.243-1.325V60.1V54.539z"/>
	<path fill="#F15B62" d="M45.439,24.613v2.459c0,0.747-0.609,1.357-1.356,1.357H28.002H27.53h-4.296
		c-0.747,0-1.358-0.61-1.358-1.357v-1.618h0.003v-2.459c0-0.747,0.608-1.357,1.355-1.357h4.072h0.938h15.839
		c0.747,0,1.358,0.61,1.358,1.357v1.618H45.439z M44.083,18.923H27.909H27.53h-4.296c-2.246,0-4.072,1.826-4.072,4.072v2.359v0.313
		v1.404c0,2.246,1.829,4.072,4.072,4.072h4.296h0.826h15.727c2.246,0,4.072-1.826,4.072-4.072v-2.359v-0.313v-1.404
		C48.155,20.749,46.327,18.923,44.083,18.923"/>
</g>
</svg>
