<svg aria-hidden="true" style="position: absolute; width: 0; height: 0; overflow: hidden;" version="1.1" xmlns="http://www.w3.org/2000/svg" xmlns:xlink="http://www.w3.org/1999/xlink">
<defs>
<symbol id="icon-Bed" viewBox="0 0 31 32">
<title>Bed</title>
<path fill="#29b99a" style="fill: var(--color1, #29b99a)" d="M27.291 24.313h-23.825c-0.34 0-0.618-0.278-0.618-0.618l-0-3.028h25.061l0 3.028c0 0.34-0.278 0.618-0.619 0.618zM6.971 12.84h2.432v-1.238h-2.131v-3.548h0.004v-1.246c0-0.34 0.278-0.618 0.619-0.618h14.887c0.34 0 0.618 0.278 0.618 0.618v0.865h0.001v3.928h-2.274v1.238h2.82l3.779 6.589h-24.535l3.779-6.588zM29.1 19.429c-0.008-0.049-0.011-0.1-0.030-0.144h0l-0-0.001c-0.010-0.025-0.026-0.045-0.039-0.068l-4.392-7.658v-4.29h-0.001v-0.46c0-1.023-0.832-1.856-1.856-1.856h-14.887c-1.023 0-1.856 0.833-1.856 1.856v0.459h-0.004v4.718l-4.324 7.537c-0.012 0.023-0.028 0.042-0.037 0.066l-0 0.001v0c-0.027 0.069-0.045 0.144-0.045 0.223h-0.017v3.882c0 1.023 0.832 1.856 1.856 1.856h23.825c1.023 0 1.856-0.833 1.856-1.856v-4.266h-0.047z"></path>
<path fill="#29b99a" style="fill: var(--color1, #29b99a)" d="M5.99 25.039h-1.238v1.914h-0.58v-1.914h-1.238v2.534c0 0.339 0.275 0.613 0.613 0.613h0v0.005h1.875v-0.015c0.316-0.026 0.566-0.282 0.566-0.604v-2.535z"></path>
<path fill="#29b99a" style="fill: var(--color1, #29b99a)" d="M27.888 24.853h-1.238v1.915h-0.579v-1.915h-1.238v2.535c0 0.339 0.274 0.613 0.613 0.613h0v0.005h1.875v-0.014c0.316-0.026 0.566-0.282 0.566-0.604v-2.535z"></path>
<path fill="#f15b62" style="fill: var(--color2, #f15b62)" d="M20.706 11.216v1.121c0 0.34-0.277 0.618-0.618 0.618h-9.501c-0.34 0-0.619-0.278-0.619-0.618v-0.737h0.001v-1.121c0-0.34 0.277-0.618 0.617-0.618h9.501c0.34 0 0.619 0.278 0.619 0.618v0.737h-0.001zM20.088 8.623h-9.501c-1.023 0-1.856 0.832-1.856 1.856v1.857c0 1.023 0.833 1.856 1.856 1.856h9.501c1.023 0 1.856-0.832 1.856-1.856v-1.857c0-1.023-0.833-1.856-1.856-1.856z"></path>
</symbol>
<symbol id="icon-Guide" viewBox="0 0 31 32">
<title>Guide</title>
<path fill="#29b99a" style="fill: var(--color1, #29b99a)" d="M15.378 15.501c-0.72 0-1.439-0.226-2.040-0.677-0.25-0.188-0.3-0.542-0.113-0.793s0.543-0.299 0.794-0.113c0.8 0.601 1.919 0.601 2.719 0 0.252-0.186 0.606-0.137 0.793 0.113 0.188 0.251 0.137 0.606-0.113 0.793-0.601 0.451-1.32 0.677-2.040 0.677z"></path>
<path fill="#29b99a" style="fill: var(--color1, #29b99a)" d="M17.645 12.389c-0.468 0-0.85-0.382-0.85-0.85s0.382-0.85 0.85-0.85c0.469 0 0.85 0.381 0.85 0.85s-0.381 0.85-0.85 0.85z"></path>
<path fill="#29b99a" style="fill: var(--color1, #29b99a)" d="M13.112 12.389c-0.468 0-0.85-0.382-0.85-0.85s0.381-0.85 0.85-0.85c0.469 0 0.85 0.381 0.85 0.85s-0.381 0.85-0.85 0.85z"></path>
<path fill="#29b99a" style="fill: var(--color1, #29b99a)" d="M14.913 3.028c-1.635 0-3.239 0.293-4.768 0.87-0.602 0.257-1.003 0.869-0.999 1.548v6.087c0 3.437 2.796 6.233 6.233 6.233s6.233-2.796 6.233-6.233v-6.084c0.005-0.682-0.395-1.293-1.018-1.561-1.642-0.621-3.403-0.916-5.197-0.854-0.186-0.005-0.335-0.007-0.484-0.007zM15.378 18.901c-4.062 0-7.366-3.305-7.366-7.366v-6.084c-0.007-1.134 0.664-2.156 1.71-2.603 1.833-0.693 3.739-1.012 5.675-0.945 0.126-0.005 0.288-0.008 0.451-0.008 1.774 0 3.512 0.318 5.17 0.944 1.066 0.458 1.735 1.481 1.727 2.616v6.080c0 4.062-3.305 7.366-7.366 7.366z"></path>
<path fill="#29b99a" style="fill: var(--color1, #29b99a)" d="M22.177 10.406c-0.143 0-0.286-0.054-0.396-0.161-0.026-0.025-1.68-1.538-6.403-1.538-4.738 0-6.387 1.523-6.403 1.538-0.223 0.215-0.582 0.211-0.799-0.011s-0.217-0.575 0.002-0.795c0.076-0.076 1.926-1.866 7.2-1.866s7.124 1.789 7.199 1.866c0.221 0.221 0.221 0.58 0 0.802-0.11 0.11-0.255 0.165-0.401 0.165z"></path>
<path fill="#29b99a" style="fill: var(--color1, #29b99a)" d="M22.177 8.139c-0.143 0-0.286-0.054-0.396-0.162-0.026-0.024-1.68-1.538-6.403-1.538-4.738 0-6.387 1.523-6.403 1.538-0.223 0.215-0.582 0.212-0.799-0.010s-0.217-0.575 0.002-0.795c0.076-0.076 1.926-1.866 7.2-1.866s7.124 1.789 7.199 1.866c0.221 0.221 0.221 0.58 0 0.802-0.11 0.11-0.255 0.165-0.401 0.165z"></path>
<path fill="#29b99a" style="fill: var(--color1, #29b99a)" d="M15.378 29.103c-0.313 0-0.566-0.254-0.566-0.566v-10.199c0-0.314 0.253-0.566 0.566-0.566s0.566 0.253 0.566 0.566v10.199c0 0.312-0.253 0.566-0.566 0.566z"></path>
<path fill="#29b99a" style="fill: var(--color1, #29b99a)" d="M27.844 29.106c-0.313 0-0.566-0.254-0.566-0.567v-3.52c0.004-0.524-0.241-1.023-0.652-1.341-2.314-1.628-5.051-2.626-7.896-2.871-0.312-0.027-0.542-0.302-0.515-0.613s0.288-0.552 0.613-0.516c3.044 0.262 5.973 1.331 8.47 3.088 0.71 0.546 1.12 1.385 1.113 2.257v3.517c0 0.314-0.253 0.567-0.566 0.567z"></path>
<path fill="#29b99a" style="fill: var(--color1, #29b99a)" d="M2.913 29.106c-0.313 0-0.566-0.254-0.566-0.567v-3.52c-0.006-0.869 0.403-1.707 1.093-2.239 2.518-1.771 5.446-2.84 8.49-3.103 0.314-0.035 0.586 0.204 0.613 0.516s-0.204 0.586-0.516 0.613c-2.845 0.246-5.582 1.244-7.916 2.885-0.391 0.303-0.635 0.803-0.632 1.323v3.523c-0 0.314-0.253 0.567-0.566 0.567z"></path>
<path fill="#29b99a" style="fill: var(--color1, #29b99a)" d="M15.418 22.303c-1.381-0.091-2.649-0.514-3.747-1.223-0.161-0.104-0.259-0.284-0.259-0.475v-3.173c0-0.314 0.253-0.567 0.566-0.567s0.567 0.254 0.567 0.567v2.856c0.874 0.51 1.861 0.814 2.872 0.884 0.94-0.070 1.919-0.375 2.794-0.884v-2.856c0-0.314 0.253-0.567 0.566-0.567s0.567 0.254 0.567 0.567v3.173c0 0.191-0.097 0.371-0.259 0.475-1.097 0.709-2.365 1.132-3.668 1.223z"></path>
<path fill="#f15c64" style="fill: var(--color3, #f15c64)" d="M17.645 25.988c-0.468 0-0.85-0.382-0.85-0.85s0.382-0.85 0.85-0.85c0.469 0 0.85 0.381 0.85 0.85s-0.381 0.85-0.85 0.85z"></path>
<path fill="#f15c64" style="fill: var(--color3, #f15c64)" d="M17.645 28.821c-0.468 0-0.85-0.382-0.85-0.85s0.382-0.85 0.85-0.85c0.469 0 0.85 0.381 0.85 0.85s-0.381 0.85-0.85 0.85z"></path>
<path fill="#29b99a" style="fill: var(--color1, #29b99a)" d="M22.679 18.845c-0.397 0-0.795-0.043-1.19-0.127-0.305-0.065-0.501-0.367-0.434-0.673 0.065-0.305 0.364-0.501 0.673-0.434 0.95 0.203 1.923 0.101 2.81-0.297-2.32-1.51-2.925-5.408-2.925-7.475 0-0.313 0.254-0.566 0.566-0.566s0.567 0.253 0.567 0.566c0 1.714 0.495 5.281 2.369 6.519 0.333 0.2 0.543 0.588 0.529 1s-0.248 0.785-0.614 0.974c-0.76 0.342-1.553 0.513-2.35 0.513z"></path>
<path fill="#29b99a" style="fill: var(--color1, #29b99a)" d="M8.077 18.848c-0.794 0-1.581-0.168-2.321-0.501-0.394-0.203-0.63-0.577-0.643-0.988s0.197-0.8 0.549-1.013c1.855-1.225 2.35-4.793 2.35-6.507 0-0.313 0.253-0.566 0.566-0.566s0.567 0.253 0.567 0.566c0 0.57-0.081 5.617-2.878 7.465 0.838 0.408 1.806 0.514 2.752 0.312 0.304-0.066 0.607 0.131 0.671 0.438s-0.131 0.606-0.437 0.671c-0.391 0.083-0.785 0.124-1.177 0.124z"></path>
</symbol>
<symbol id="icon-Toaster" viewBox="0 0 31 32">
<title>Toaster</title>
<path fill="#f15c64" style="fill: var(--color3, #f15c64)" d="M8.087 12.354h17.013v-1.823c-0.060-0.813-0.62-1.562-1.426-1.861-0.276-0.102-0.439-0.387-0.387-0.677s0.303-0.5 0.598-0.5c1.341 0 2.43-1.090 2.43-2.431s-1.090-2.43-2.43-2.43h-14.582c-1.34 0-2.43 1.090-2.43 2.43s1.090 2.431 2.43 2.431c0.294 0 0.546 0.211 0.598 0.5s-0.111 0.575-0.387 0.677c-0.807 0.299-1.367 1.047-1.428 1.904l0.001 1.779zM25.707 13.569h-18.227c-0.336 0-0.607-0.272-0.607-0.607v-2.431c0.058-0.828 0.397-1.578 0.931-2.145-1.265-0.573-2.146-1.846-2.146-3.323 0-2.010 1.635-3.645 3.645-3.645h14.582c2.010 0 3.645 1.636 3.645 3.645 0 1.475-0.881 2.749-2.144 3.322 0.533 0.562 0.871 1.301 0.928 2.103l0.001 2.474c0 0.335-0.272 0.607-0.607 0.607z"></path>
<path fill="#f15c64" style="fill: var(--color3, #f15c64)" d="M11.947 10.281c-0.155 0-0.311-0.059-0.43-0.178-0.237-0.237-0.237-0.622 0-0.859l4.253-4.253c0.237-0.237 0.622-0.237 0.859 0s0.237 0.621 0 0.859l-4.253 4.253c-0.119 0.119-0.274 0.178-0.43 0.178z"></path>
<path fill="#f15c64" style="fill: var(--color3, #f15c64)" d="M17.415 10.281c-0.155 0-0.311-0.059-0.43-0.178-0.237-0.237-0.237-0.622 0-0.859l4.253-4.253c0.237-0.237 0.622-0.237 0.859 0s0.237 0.621 0 0.859l-4.253 4.253c-0.119 0.119-0.274 0.178-0.43 0.178z"></path>
<path fill="#29b99a" style="fill: var(--color1, #29b99a)" d="M6.265 13.57c-1.005 0-1.823 0.818-1.823 1.823v13.367c0 0.335 0.272 0.607 0.607 0.607h23.088c0.335 0 0.607-0.273 0.607-0.607v-13.367c0-1.005-0.817-1.823-1.823-1.823h-20.658zM28.138 30.582h-23.088c-1.005 0-1.823-0.817-1.823-1.823v-13.367c0-1.675 1.363-3.038 3.038-3.038h20.658c1.675 0 3.038 1.363 3.038 3.038v13.367c0 1.005-0.817 1.823-1.823 1.823z"></path>
<path fill="#29b99a" style="fill: var(--color1, #29b99a)" d="M2.619 16c-0.335 0-0.607 0.273-0.607 0.607v1.215c0 0.335 0.272 0.607 0.607 0.607h0.608v-2.43h-0.608zM3.835 19.645h-1.215c-1.005 0-1.823-0.817-1.823-1.823v-1.215c0-1.005 0.818-1.823 1.823-1.823h1.215c0.336 0 0.607 0.272 0.607 0.608v3.645c0 0.335-0.272 0.607-0.607 0.607z"></path>
<path fill="#29b99a" style="fill: var(--color1, #29b99a)" d="M8.695 22.076c-1.005 0-1.823 0.818-1.823 1.823s0.817 1.823 1.823 1.823 1.823-0.817 1.823-1.823c0-1.005-0.818-1.823-1.823-1.823zM8.695 26.936c-1.675 0-3.038-1.363-3.038-3.038s1.363-3.038 3.038-3.038 3.038 1.363 3.038 3.038c0 1.675-1.363 3.038-3.038 3.038z"></path>
<path fill="#29b99a" style="fill: var(--color1, #29b99a)" d="M8.695 19.645c-0.336 0-0.607-0.272-0.607-0.607v-1.215c0-0.336 0.272-0.607 0.607-0.607s0.607 0.272 0.607 0.607v1.215c0 0.335-0.272 0.607-0.607 0.607z"></path>
<path fill="#29b99a" style="fill: var(--color1, #29b99a)" d="M12.341 24.506h-1.215c-0.336 0-0.607-0.272-0.607-0.607s0.272-0.608 0.607-0.608h1.215c0.336 0 0.607 0.273 0.607 0.608s-0.272 0.607-0.607 0.607z"></path>
</symbol>
<symbol id="icon-Van" viewBox="0 0 31 32">
<title>Van</title>
<path fill="#29b99a" style="fill: var(--color1, #29b99a)" d="M23.882 7.832h-17.007c-0.314 0-0.567-0.254-0.567-0.567s0.253-0.567 0.567-0.567h17.007c0.314 0 0.567 0.253 0.567 0.567s-0.253 0.567-0.567 0.567z"></path>
<path fill="#29b99a" style="fill: var(--color1, #29b99a)" d="M10.843 3.3c-1.876 0-3.402 1.526-3.402 3.401v18.708c0 0.313 0.255 0.567 0.567 0.567h14.74c0.312 0 0.567-0.255 0.567-0.567v-18.708c0-1.875-1.526-3.401-3.401-3.401h-9.070zM22.748 27.11h-14.74c-0.937 0-1.701-0.763-1.701-1.7v-18.708c0-2.5 2.034-4.535 4.535-4.535h9.070c2.501 0 4.535 2.035 4.535 4.535v18.708c0 0.938-0.763 1.701-1.701 1.701z"></path>
<path fill="#29b99a" style="fill: var(--color1, #29b99a)" d="M13.111 6.701h4.535v-1.133h-4.535v1.133zM18.213 7.835h-5.669c-0.313 0-0.567-0.253-0.567-0.567v-1.7c0-0.625 0.508-1.134 1.134-1.134h4.535c0.626 0 1.134 0.509 1.134 1.134v1.7c0 0.314-0.253 0.567-0.567 0.567z"></path>
<path fill="#f15c64" style="fill: var(--color3, #f15c64)" d="M12.544 23.142h-3.401c-0.313 0-0.567-0.254-0.567-0.567s0.253-0.567 0.567-0.567h3.401c0.313 0 0.567 0.253 0.567 0.567s-0.253 0.567-0.567 0.567z"></path>
<path fill="#f15c64" style="fill: var(--color3, #f15c64)" d="M21.614 23.142h-3.401c-0.314 0-0.567-0.254-0.567-0.567s0.253-0.567 0.567-0.567h3.401c0.314 0 0.567 0.253 0.567 0.567s-0.253 0.567-0.567 0.567z"></path>
<path fill="#29b99a" style="fill: var(--color1, #29b99a)" d="M3.474 11.236c-0.312 0-0.567 0.255-0.567 0.567v5.669c0 0.313 0.255 0.567 0.567 0.567h0.567v-6.803h-0.567zM4.041 18.039v0.567l0.001-0.567h-0.001zM4.041 19.173h-0.567c-0.938 0-1.701-0.763-1.701-1.7v-5.67c0-0.938 0.763-1.7 1.701-1.7h1.134c0.314 0 0.567 0.253 0.567 0.567v7.37c0 0.624-0.508 1.133-1.134 1.133z"></path>
<path fill="#29b99a" style="fill: var(--color1, #29b99a)" d="M26.716 11.236v6.803h0.567c0.312 0 0.567-0.255 0.567-0.567v-5.67c0-0.313-0.255-0.567-0.567-0.567h-0.567zM27.284 19.173h-0.567c-0.626 0-1.134-0.509-1.134-1.133v-7.37c0-0.313 0.253-0.567 0.567-0.567h1.134c0.938 0 1.701 0.763 1.701 1.7v5.669c-0 0.938-0.763 1.701-1.701 1.701z"></path>
<path fill="#29b99a" style="fill: var(--color1, #29b99a)" d="M6.875 11.236h-2.268c-0.314 0-0.567-0.253-0.567-0.566s0.253-0.567 0.567-0.567h2.268c0.314 0 0.567 0.253 0.567 0.567s-0.253 0.566-0.567 0.566z"></path>
<path fill="#29b99a" style="fill: var(--color1, #29b99a)" d="M26.149 11.236h-2.268c-0.314 0-0.567-0.253-0.567-0.566s0.253-0.567 0.567-0.567h2.267c0.314 0 0.567 0.253 0.567 0.567s-0.253 0.566-0.567 0.566z"></path>
<path fill="#29b99a" style="fill: var(--color1, #29b99a)" d="M11.977 29.377h-2.268c-0.626 0-1.134-0.509-1.134-1.134v-1.7c0-0.314 0.253-0.567 0.567-0.567s0.567 0.253 0.567 0.567v1.7h2.268v-1.7c0-0.314 0.253-0.567 0.567-0.567s0.567 0.253 0.567 0.567v1.7c-0 0.625-0.508 1.134-1.134 1.134z"></path>
<path fill="#29b99a" style="fill: var(--color1, #29b99a)" d="M21.048 29.377h-2.268c-0.626 0-1.134-0.509-1.134-1.134v-1.7c0-0.314 0.253-0.567 0.567-0.567s0.567 0.253 0.567 0.567v1.7h2.267v-1.7c0-0.314 0.253-0.567 0.567-0.567s0.567 0.253 0.567 0.567v1.7c0 0.625-0.508 1.134-1.134 1.134z"></path>
<path fill="#29b99a" style="fill: var(--color1, #29b99a)" d="M23.882 14.846h-17.007c-0.314 0-0.567-0.253-0.567-0.567s0.253-0.566 0.567-0.566h17.007c0.314 0 0.567 0.253 0.567 0.566s-0.253 0.567-0.567 0.567z"></path>
</symbol>
</defs>
</svg>
