<?xml version="1.0" encoding="utf-8"?>
<!-- Generator: Adobe Illustrator 16.0.0, SVG Export Plug-In . SVG Version: 6.00 Build 0)  -->
<!DOCTYPE svg PUBLIC "-//W3C//DTD SVG 1.1//EN" "http://www.w3.org/Graphics/SVG/1.1/DTD/svg11.dtd">
<svg version="1.1" id="Layer_1" xmlns="http://www.w3.org/2000/svg" xmlns:xlink="http://www.w3.org/1999/xlink" x="0px" y="0px"
	 width="67.496px" height="70.224px" viewBox="0 0 67.496 70.224" enable-background="new 0 0 67.496 70.224" xml:space="preserve">
<g>
	<path fill="#F15C64" d="M17.747,27.111h37.335v-4c-0.132-1.785-1.361-3.427-3.13-4.083c-0.606-0.224-0.963-0.85-0.849-1.485
		c0.114-0.635,0.666-1.097,1.312-1.097c2.942,0,5.333-2.393,5.333-5.335c0-2.94-2.391-5.333-5.333-5.333h-32
		c-2.941,0-5.333,2.393-5.333,5.333c0,2.942,2.392,5.335,5.333,5.335c0.646,0,1.198,0.462,1.313,1.097
		c0.113,0.636-0.244,1.262-0.849,1.485c-1.77,0.656-2.999,2.298-3.134,4.179L17.747,27.111z M56.415,29.778h-40
		c-0.737,0-1.333-0.596-1.333-1.332v-5.335c0.127-1.816,0.871-3.463,2.043-4.708c-2.775-1.258-4.71-4.052-4.71-7.292
		c0-4.41,3.589-8,8-8h32c4.411,0,8,3.59,8,8c0,3.237-1.934,6.032-4.706,7.291c1.17,1.234,1.911,2.856,2.036,4.614l0.003,5.43
		C57.748,29.182,57.152,29.778,56.415,29.778"/>
	<path fill="#F15C64" d="M26.217,22.562c-0.341,0-0.682-0.13-0.943-0.391c-0.52-0.521-0.52-1.364,0-1.885l9.334-9.333
		c0.52-0.521,1.364-0.521,1.885,0c0.521,0.52,0.521,1.363,0,1.885l-9.333,9.333C26.899,22.432,26.558,22.562,26.217,22.562"/>
	<path fill="#F15C64" d="M38.217,22.562c-0.341,0-0.682-0.13-0.943-0.391c-0.52-0.521-0.52-1.364,0-1.885l9.334-9.333
		c0.52-0.521,1.364-0.521,1.885,0c0.521,0.52,0.521,1.363,0,1.885l-9.333,9.333C38.899,22.432,38.558,22.562,38.217,22.562"/>
	<path fill="#29B99A" d="M13.748,29.779c-2.206,0-4,1.794-4,4v29.333c0,0.735,0.598,1.333,1.333,1.333h50.667
		c0.736,0,1.333-0.598,1.333-1.333V33.779c0-2.206-1.794-4-4-4H13.748z M61.748,67.112H11.081c-2.205,0-4-1.794-4-4V33.779
		c0-3.676,2.991-6.667,6.667-6.667h45.333c3.676,0,6.667,2.991,6.667,6.667v29.333C65.748,65.318,63.954,67.112,61.748,67.112"/>
	<path fill="#29B99A" d="M5.748,35.112c-0.735,0-1.333,0.598-1.333,1.333v2.667c0,0.735,0.598,1.333,1.333,1.333h1.334v-5.333H5.748
		z M8.415,43.112H5.748c-2.205,0-4-1.794-4-4v-2.667c0-2.205,1.795-4,4-4h2.667c0.737,0,1.333,0.597,1.333,1.334v8
		C9.748,42.515,9.152,43.112,8.415,43.112"/>
	<path fill="#29B99A" d="M19.082,48.445c-2.206,0-4,1.795-4,4c0,2.206,1.794,4,4,4c2.206,0,4-1.794,4-4
		C23.082,50.24,21.287,48.445,19.082,48.445 M19.082,59.112c-3.676,0-6.667-2.991-6.667-6.667c0-3.675,2.991-6.666,6.667-6.666
		c3.676,0,6.667,2.991,6.667,6.666C25.749,56.121,22.757,59.112,19.082,59.112"/>
	<path fill="#29B99A" d="M19.082,43.112c-0.737,0-1.333-0.597-1.333-1.333v-2.667c0-0.737,0.596-1.333,1.333-1.333
		c0.737,0,1.333,0.596,1.333,1.333v2.667C20.415,42.515,19.818,43.112,19.082,43.112"/>
	<path fill="#29B99A" d="M27.082,53.778h-2.667c-0.737,0-1.333-0.596-1.333-1.332c0-0.737,0.596-1.335,1.333-1.335h2.667
		c0.737,0,1.333,0.598,1.333,1.335C28.415,53.182,27.818,53.778,27.082,53.778"/>
</g>
</svg>
