<?xml version="1.0" encoding="utf-8"?>
<!-- Generator: Adobe Illustrator 16.0.0, SVG Export Plug-In . SVG Version: 6.00 Build 0)  -->
<!DOCTYPE svg PUBLIC "-//W3C//DTD SVG 1.1//EN" "http://www.w3.org/Graphics/SVG/1.1/DTD/svg11.dtd">
<svg version="1.1" id="Layer_1" xmlns="http://www.w3.org/2000/svg" xmlns:xlink="http://www.w3.org/1999/xlink" x="0px" y="0px"
	 width="67.496px" height="70.224px" viewBox="0 0 67.496 70.224" enable-background="new 0 0 67.496 70.224" xml:space="preserve">
<g>
	<path fill="#29B99A" d="M52.409,17.187H15.087c-0.688,0-1.244-0.557-1.244-1.244c0-0.688,0.556-1.244,1.244-1.244h37.322
		c0.688,0,1.244,0.556,1.244,1.244C53.653,16.63,53.097,17.187,52.409,17.187"/>
	<path fill="#29B99A" d="M23.796,7.242c-4.116,0-7.465,3.349-7.465,7.464V55.76c0,0.686,0.559,1.244,1.244,1.244h32.346
		c0.685,0,1.244-0.559,1.244-1.244V14.706c0-4.115-3.348-7.464-7.464-7.464H23.796z M49.921,59.492H17.575
		c-2.057,0-3.732-1.674-3.732-3.731V14.706c0-5.487,4.464-9.952,9.953-9.952h19.905c5.489,0,9.952,4.465,9.952,9.952V55.76
		C53.653,57.818,51.979,59.492,49.921,59.492"/>
	<path fill="#29B99A" d="M28.771,14.706h9.952v-2.487h-9.952V14.706z M39.968,17.194H27.527c-0.687,0-1.244-0.556-1.244-1.244
		v-3.731c0-1.372,1.115-2.488,2.488-2.488h9.953c1.373,0,2.488,1.116,2.488,2.488v3.731C41.212,16.638,40.656,17.194,39.968,17.194"
		/>
	<path fill="#F15C64" d="M27.528,50.784h-7.464c-0.688,0-1.244-0.557-1.244-1.244c0-0.688,0.556-1.244,1.244-1.244h7.464
		c0.688,0,1.244,0.556,1.244,1.244C28.772,50.227,28.216,50.784,27.528,50.784"/>
	<path fill="#F15C64" d="M47.433,50.784h-7.464c-0.688,0-1.244-0.557-1.244-1.244c0-0.688,0.556-1.244,1.244-1.244h7.464
		c0.688,0,1.244,0.556,1.244,1.244C48.677,50.227,48.121,50.784,47.433,50.784"/>
	<path fill="#29B99A" d="M7.623,24.658c-0.685,0-1.244,0.559-1.244,1.244v12.441c0,0.686,0.559,1.244,1.244,1.244h1.244v-14.93
		H7.623z M8.867,39.587v1.244l0.002-1.244H8.867z M8.867,42.075H7.623c-2.058,0-3.732-1.674-3.732-3.731V25.902
		c0-2.058,1.674-3.731,3.732-3.731h2.488c0.688,0,1.244,0.556,1.244,1.244v16.173C11.355,40.958,10.24,42.075,8.867,42.075"/>
	<path fill="#29B99A" d="M58.629,24.658v14.93h1.244c0.685,0,1.244-0.559,1.244-1.244V25.902c0-0.686-0.559-1.244-1.244-1.244
		H58.629z M59.874,42.075h-1.244c-1.373,0-2.488-1.116-2.488-2.487V23.415c0-0.688,0.556-1.244,1.244-1.244h2.488
		c2.058,0,3.732,1.674,3.732,3.731v12.441C63.605,40.401,61.932,42.075,59.874,42.075"/>
	<path fill="#29B99A" d="M15.087,24.658h-4.976c-0.688,0-1.244-0.556-1.244-1.243c0-0.688,0.556-1.244,1.244-1.244h4.976
		c0.688,0,1.244,0.556,1.244,1.244C16.331,24.102,15.775,24.658,15.087,24.658"/>
	<path fill="#29B99A" d="M57.385,24.658h-4.976c-0.688,0-1.244-0.556-1.244-1.243c0-0.688,0.556-1.244,1.244-1.244h4.976
		c0.688,0,1.244,0.556,1.244,1.244C58.629,24.102,58.073,24.658,57.385,24.658"/>
	<path fill="#29B99A" d="M26.284,64.468h-4.976c-1.373,0-2.488-1.117-2.488-2.488v-3.731c0-0.688,0.556-1.244,1.244-1.244
		c0.687,0,1.244,0.556,1.244,1.244v3.731h4.976v-3.731c0-0.688,0.556-1.244,1.244-1.244s1.244,0.556,1.244,1.244v3.731
		C28.771,63.351,27.657,64.468,26.284,64.468"/>
	<path fill="#29B99A" d="M46.189,64.468h-4.976c-1.373,0-2.488-1.117-2.488-2.488v-3.731c0-0.688,0.556-1.244,1.244-1.244
		c0.687,0,1.244,0.556,1.244,1.244v3.731h4.976v-3.731c0-0.688,0.556-1.244,1.244-1.244s1.244,0.556,1.244,1.244v3.731
		C48.677,63.351,47.562,64.468,46.189,64.468"/>
	<path fill="#29B99A" d="M52.409,32.58H15.087c-0.688,0-1.244-0.556-1.244-1.244c0-0.688,0.556-1.243,1.244-1.243h37.322
		c0.688,0,1.244,0.556,1.244,1.243C53.653,32.024,53.097,32.58,52.409,32.58"/>
</g>
</svg>
