<?xml version="1.0" encoding="utf-8"?>
<!-- Generator: Adobe Illustrator 16.0.0, SVG Export Plug-In . SVG Version: 6.00 Build 0)  -->
<!DOCTYPE svg PUBLIC "-//W3C//DTD SVG 1.1//EN" "http://www.w3.org/Graphics/SVG/1.1/DTD/svg11.dtd">
<svg version="1.1" id="Layer_1" xmlns="http://www.w3.org/2000/svg" xmlns:xlink="http://www.w3.org/1999/xlink" x="0px" y="0px"
	 width="67.496px" height="70.224px" viewBox="0 0 67.496 70.224" enable-background="new 0 0 67.496 70.224" xml:space="preserve">
<g>
	<path fill="#29B99A" d="M33.748,34.018c-1.58,0-3.158-0.495-4.477-1.485c-0.549-0.412-0.659-1.19-0.248-1.741
		c0.413-0.55,1.191-0.657,1.742-0.248c1.756,1.319,4.211,1.319,5.967,0c0.552-0.408,1.329-0.3,1.741,0.248
		c0.412,0.551,0.301,1.329-0.248,1.741C36.906,33.523,35.328,34.018,33.748,34.018"/>
	<path fill="#29B99A" d="M38.721,27.188c-1.027,0-1.865-0.838-1.865-1.865c0-1.029,0.838-1.865,1.865-1.865
		c1.029,0,1.865,0.836,1.865,1.865C40.586,26.35,39.75,27.188,38.721,27.188"/>
	<path fill="#29B99A" d="M28.774,27.188c-1.028,0-1.865-0.838-1.865-1.865c0-1.029,0.837-1.865,1.865-1.865
		c1.029,0,1.865,0.836,1.865,1.865C30.639,26.35,29.803,27.188,28.774,27.188"/>
	<path fill="#29B99A" d="M32.727,6.646c-3.587,0-7.107,0.644-10.464,1.91c-1.322,0.565-2.202,1.907-2.193,3.398v13.359
		c0,7.542,6.136,13.678,13.678,13.678c7.542,0,13.678-6.136,13.678-13.678V11.962c0.011-1.497-0.866-2.837-2.233-3.425
		c-3.604-1.363-7.468-2.011-11.404-1.875C33.38,6.652,33.053,6.646,32.727,6.646 M33.748,41.479
		c-8.913,0-16.165-7.252-16.165-16.165V11.962c-0.015-2.488,1.458-4.732,3.753-5.712c4.023-1.52,8.206-2.221,12.453-2.073
		c0.276-0.012,0.633-0.018,0.99-0.018c3.892,0,7.708,0.697,11.345,2.072c2.34,1.005,3.807,3.25,3.789,5.74v13.343
		C49.913,34.227,42.661,41.479,33.748,41.479"/>
	<path fill="#29B99A" d="M48.668,22.835c-0.313,0-0.627-0.118-0.869-0.354c-0.057-0.054-3.686-3.376-14.051-3.376
		c-10.398,0-14.017,3.342-14.052,3.376c-0.49,0.472-1.277,0.464-1.753-0.024c-0.476-0.487-0.477-1.261,0.005-1.744
		c0.167-0.167,4.227-4.094,15.8-4.094c11.573,0,15.633,3.927,15.799,4.094c0.486,0.486,0.486,1.273,0,1.759
		C49.305,22.714,48.987,22.835,48.668,22.835"/>
	<path fill="#29B99A" d="M48.668,17.861c-0.313,0-0.627-0.118-0.869-0.355c-0.057-0.053-3.686-3.375-14.051-3.375
		c-10.398,0-14.017,3.342-14.052,3.375c-0.49,0.471-1.277,0.465-1.753-0.023c-0.476-0.487-0.477-1.262,0.005-1.744
		c0.167-0.167,4.227-4.094,15.8-4.094c11.573,0,15.633,3.927,15.799,4.094c0.486,0.486,0.486,1.273,0,1.759
		C49.305,17.739,48.987,17.861,48.668,17.861"/>
	<path fill="#29B99A" d="M33.748,63.866c-0.687,0-1.243-0.557-1.243-1.242V40.243c0-0.688,0.556-1.242,1.243-1.242
		s1.243,0.555,1.243,1.242v22.381C34.991,63.309,34.435,63.866,33.748,63.866"/>
	<path fill="#29B99A" d="M61.103,63.874c-0.687,0-1.243-0.557-1.243-1.244v-7.725c0.008-1.15-0.529-2.246-1.431-2.943
		c-5.079-3.572-11.085-5.762-17.328-6.301c-0.685-0.059-1.19-0.662-1.131-1.346c0.058-0.686,0.632-1.211,1.345-1.133
		c6.68,0.576,13.107,2.922,18.588,6.777c1.559,1.199,2.457,3.039,2.443,4.953v7.717C62.346,63.317,61.79,63.874,61.103,63.874"/>
	<path fill="#29B99A" d="M6.393,63.874c-0.687,0-1.243-0.557-1.243-1.244v-7.725c-0.013-1.906,0.885-3.746,2.399-4.914
		c5.525-3.887,11.952-6.232,18.632-6.809c0.689-0.076,1.286,0.447,1.346,1.133c0.059,0.684-0.447,1.287-1.132,1.346
		c-6.243,0.539-12.249,2.729-17.372,6.332c-0.858,0.666-1.394,1.762-1.387,2.904v7.732C7.635,63.317,7.08,63.874,6.393,63.874"/>
	<path fill="#29B99A" d="M33.834,48.944c-3.031-0.199-5.814-1.127-8.222-2.684c-0.354-0.229-0.568-0.623-0.568-1.043v-6.963
		c0-0.688,0.556-1.244,1.243-1.244c0.688,0,1.244,0.557,1.244,1.244v6.268c1.919,1.119,4.085,1.787,6.303,1.941
		c2.062-0.154,4.211-0.822,6.131-1.941v-6.268c0-0.688,0.556-1.244,1.242-1.244c0.688,0,1.244,0.557,1.244,1.244v6.963
		c0,0.42-0.213,0.814-0.568,1.043C39.476,47.817,36.692,48.745,33.834,48.944"/>
	<path fill="#F15C64" d="M38.721,57.03c-1.027,0-1.865-0.838-1.865-1.865c0-1.029,0.838-1.865,1.865-1.865
		c1.029,0,1.865,0.836,1.865,1.865C40.586,56.192,39.75,57.03,38.721,57.03"/>
	<path fill="#F15C64" d="M38.721,63.247c-1.027,0-1.865-0.838-1.865-1.865c0-1.029,0.838-1.865,1.865-1.865
		c1.029,0,1.865,0.836,1.865,1.865C40.586,62.409,39.75,63.247,38.721,63.247"/>
	<path fill="#29B99A" d="M49.769,41.356c-0.872,0-1.745-0.094-2.612-0.279c-0.67-0.143-1.099-0.805-0.953-1.477
		c0.143-0.67,0.799-1.1,1.476-0.953c2.085,0.445,4.219,0.221,6.166-0.652c-5.091-3.314-6.42-11.867-6.42-16.403
		c0-0.688,0.557-1.243,1.243-1.243c0.688,0,1.244,0.556,1.244,1.243c0,3.761,1.086,11.589,5.199,14.307
		c0.73,0.439,1.191,1.291,1.162,2.195c-0.027,0.902-0.545,1.723-1.348,2.137C53.259,40.981,51.518,41.356,49.769,41.356"/>
	<path fill="#29B99A" d="M17.724,41.362c-1.743,0-3.469-0.369-5.093-1.1c-0.864-0.445-1.382-1.266-1.41-2.168
		c-0.029-0.904,0.433-1.756,1.205-2.223c4.07-2.689,5.157-10.519,5.157-14.28c0-0.688,0.556-1.243,1.243-1.243
		c0.688,0,1.244,0.556,1.244,1.243c0,1.25-0.177,12.327-6.316,16.381c1.84,0.895,3.963,1.127,6.04,0.684
		c0.668-0.145,1.331,0.287,1.473,0.961c0.142,0.672-0.287,1.33-0.96,1.473C19.449,41.272,18.585,41.362,17.724,41.362"/>
</g>
</svg>
