<?xml version="1.0" encoding="utf-8"?>
<!-- Generator: Adobe Illustrator 16.0.0, SVG Export Plug-In . SVG Version: 6.00 Build 0)  -->
<!DOCTYPE svg PUBLIC "-//W3C//DTD SVG 1.1//EN" "http://www.w3.org/Graphics/SVG/1.1/DTD/svg11.dtd">
<svg version="1.1" id="Layer_1" xmlns="http://www.w3.org/2000/svg" xmlns:xlink="http://www.w3.org/1999/xlink" x="0px" y="0px"
	 width="200px" height="200px" viewBox="0 0 200 200" enable-background="new 0 0 200 200" xml:space="preserve">
<circle fill="#0DBABF" cx="100" cy="100" r="100"/>
<path fill="#FFFFFF" d="M181.271,109.552l0.007-0.015l-17.474-22.403h-0.016c-0.788-1.029-2.016-1.704-3.413-1.704
	c-1.396,0-2.624,0.675-3.411,1.704h-0.016l-17.706,22.693l0.004,0.008c-0.522,0.713-0.841,1.585-0.841,2.537
	c0,2.381,1.932,4.312,4.313,4.312h6.827c-4.405,19.516-19.922,34.815-39.562,38.881V79.318
	c11.814-4.275,20.258-15.591,20.258-28.881c0-16.959-13.748-30.708-30.707-30.708S68.828,33.479,68.828,50.438
	c0,13.289,8.443,24.605,20.258,28.881v76.248c-19.641-4.065-35.158-19.366-39.563-38.882h6.829c2.381,0,4.312-1.932,4.312-4.312
	c0-1.085-0.414-2.063-1.074-2.82l0.006-0.015L42.122,87.134h-0.015c-0.789-1.029-2.017-1.704-3.414-1.704
	c-1.395,0-2.623,0.675-3.411,1.704h-0.016l-17.706,22.693l0.004,0.008c-0.521,0.713-0.84,1.585-0.84,2.537
	c0,2.381,1.931,4.312,4.312,4.312h7.315c5.438,34.421,35.233,60.741,71.183,60.741s65.744-26.32,71.182-60.741h7.316
	c2.382,0,4.312-1.932,4.312-4.312C182.346,111.287,181.932,110.309,181.271,109.552z M99.536,39.562
	c6.005,0,10.874,4.87,10.874,10.876s-4.869,10.875-10.874,10.875c-6.008,0-10.877-4.869-10.877-10.875S93.528,39.562,99.536,39.562z
	"/>
</svg>
