<?xml version="1.0" encoding="utf-8"?>
<!-- Generator: Adobe Illustrator 16.0.0, SVG Export Plug-In . SVG Version: 6.00 Build 0)  -->
<!DOCTYPE svg PUBLIC "-//W3C//DTD SVG 1.1//EN" "http://www.w3.org/Graphics/SVG/1.1/DTD/svg11.dtd">
<svg version="1.1" id="Layer_1" xmlns="http://www.w3.org/2000/svg" xmlns:xlink="http://www.w3.org/1999/xlink" x="0px" y="0px"
	 width="40px" height="40px" viewBox="0 0 40 40" enable-background="new 0 0 40 40" xml:space="preserve">
<g>
	<path fill="#FFFFFF" d="M19.983,6.047c-7.665,0-13.901,6.236-13.901,13.902s6.236,13.903,13.901,13.903s13.9-6.237,13.9-13.903
		S27.648,6.047,19.983,6.047 M19.983,35.591c-8.624,0-15.639-7.017-15.639-15.642s7.015-15.64,15.639-15.64
		s15.639,7.015,15.639,15.64S28.607,35.591,19.983,35.591"/>
	<path fill="#FFFFFF" d="M19.983,40c-0.48,0-0.869-0.389-0.869-0.869V26.032c0-0.479,0.389-0.868,0.869-0.868
		c0.479,0,0.869,0.389,0.869,0.868v13.099C20.853,39.611,20.463,40,19.983,40"/>
	<path fill="#FFFFFF" d="M19.983,14.742c-0.48,0-0.869-0.39-0.869-0.869V0.87C19.114,0.389,19.503,0,19.983,0
		c0.479,0,0.869,0.388,0.869,0.869v13.003C20.853,14.353,20.463,14.742,19.983,14.742"/>
	<path fill="#FFFFFF" d="M6.453,34.406c-0.222,0-0.444-0.085-0.614-0.255c-0.34-0.339-0.34-0.889,0-1.228l9.153-9.156
		c0.339-0.34,0.889-0.34,1.229,0c0.339,0.339,0.339,0.889,0,1.229l-9.154,9.155C6.898,34.321,6.675,34.406,6.453,34.406"/>
	<path fill="#FFFFFF" d="M24.363,16.5c-0.223,0-0.445-0.085-0.614-0.256c-0.34-0.338-0.34-0.889,0-1.228l9.147-9.15
		c0.34-0.339,0.89-0.339,1.229,0c0.339,0.34,0.339,0.89,0,1.229l-9.149,9.148C24.807,16.415,24.585,16.5,24.363,16.5"/>
	<path fill="#FFFFFF" d="M15.629,16.527c-0.223,0-0.444-0.086-0.614-0.256L5.839,7.096C5.5,6.757,5.5,6.207,5.839,5.867
		c0.34-0.339,0.89-0.339,1.229,0l9.175,9.177c0.34,0.339,0.34,0.89,0,1.228C16.073,16.441,15.851,16.527,15.629,16.527"/>
	<path fill="#FFFFFF" d="M33.511,34.397c-0.222,0-0.445-0.085-0.614-0.255l-9.179-9.181c-0.339-0.341-0.339-0.89,0-1.229
		c0.339-0.338,0.889-0.338,1.229,0l9.178,9.183c0.34,0.339,0.34,0.889,0,1.228C33.956,34.312,33.732,34.397,33.511,34.397"/>
	<path fill="#FFFFFF" d="M13.857,20.854H0.869C0.388,20.854,0,20.466,0,19.986c0-0.48,0.388-0.869,0.869-0.869h12.988
		c0.479,0,0.869,0.389,0.869,0.869C14.727,20.466,14.337,20.854,13.857,20.854"/>
	<path fill="#FFFFFF" d="M39.131,20.854h-13.06c-0.48,0-0.868-0.389-0.868-0.868c0-0.48,0.388-0.869,0.868-0.869h13.06
		c0.48,0,0.869,0.389,0.869,0.869C40,20.466,39.611,20.854,39.131,20.854"/>
	<path fill="#FFFFFF" d="M19.983,14.736c-2.875,0-5.213,2.34-5.213,5.215c0,2.873,2.338,5.213,5.213,5.213s5.213-2.34,5.213-5.213
		C25.196,17.076,22.858,14.736,19.983,14.736 M19.983,26.901c-3.833,0-6.951-3.118-6.951-6.95c0-3.834,3.118-6.953,6.951-6.953
		s6.951,3.119,6.951,6.953C26.935,23.783,23.816,26.901,19.983,26.901"/>
</g>
</svg>
