<?xml version="1.0" encoding="utf-8"?>
<!-- Generator: Adobe Illustrator 16.0.0, SVG Export Plug-In . SVG Version: 6.00 Build 0)  -->
<!DOCTYPE svg PUBLIC "-//W3C//DTD SVG 1.1//EN" "http://www.w3.org/Graphics/SVG/1.1/DTD/svg11.dtd">
<svg version="1.1" id="Layer_1" xmlns="http://www.w3.org/2000/svg" xmlns:xlink="http://www.w3.org/1999/xlink" x="0px" y="0px"
	 width="512px" height="511.999px" viewBox="0 0 512 511.999" enable-background="new 0 0 512 511.999" xml:space="preserve">
<path stroke="#000000" stroke-miterlimit="10" d="M512,256c0,141.378-114.615,255.999-256,255.999S0,397.378,0,256
	C0,114.612,114.615,0,256,0S512,114.612,512,256z"/>
<g>
	<path fill="#FFFFFF" d="M445.613,94.49l-4.271,2.114l-4.277,2.483l-3.858,2.815l-3.846,3.233l-3.459,3.572l-3.046,3.532
		l-3.046,3.908l-3.059,3.517l-2.646,3.853l-2.64,4.271l-2.259,3.803l-2.64,4.258l-1.84,4.554l-2.24,4.197l-3.692,9.114l-1.858,4.154
		l-1.446,4.511l-1.434,4.893l-1.834,4.936l-1.096,3.286l-1.827,4.941l-1.446,4.511l-1.059,4.449l-1.452,4.886l-1.44,4.493
		l-1.046,4.474l-2.117,9.298l-2.116,8.911l-1.847,4.554l-1.428,4.88l-1.046,4.462l-1.047,5.249l-0.695,3.225l-1.039,5.249
		l-1.047,4.837l-2.893,8.998l-1.046,4.85l-1.452,4.51l-1.059,4.455l-1.052,4.838l-2.099,8.904l-1.046,4.861l-1.459,4.492
		l-2.11,8.898l-1.453,4.504l-3.68,9.115l-1.858,4.16l-2.233,4.609l-2.246,4.201l-2.259,3.799l-3.034,4.312l-3.021,4.715
		l-1.901,2.578l-3.409,4.344l-3.064,3.521l-3.452,3.182l-3.858,2.836l-4.265,2.881l-3.896,2.049l-4.702,0.965l-4.308,0.537
		l-4.338,0.135l-4.363-1.041l-4-1.857l-2.843-3.193l-2.462-3.238l-1.692-4.109l-1.298-4.174l-0.924-4.609l-0.381-13.697l0.258-4.764
		l1.064-4.455l1.04-4.83l1.452-4.518l1.041-4.838l0.658-4.424l1.059-4.824l1.439-4.518l1.046-4.836l0.652-4.801l1.047-4.836
		l1.058-4.457l1.44-4.898l1.452-4.51l1.047-4.855l1.058-4.438l1.047-4.855l1.058-4.449l1.041-4.843l1.439-4.893l1.059-4.461
		l1.434-4.88l2.117-8.929l1.046-4.85l1.44-4.886l1.046-4.855l1.059-4.449l1.439-4.893l2.099-9.298l1.446-4.499l1.046-4.861
		l1.453-4.499l2.886-9.391l1.452-4.511l1.053-4.455l1.445-4.898l1.446-4.48l1.44-4.911l1.046-4.843l0.271-4.375l-2.467-3.6
		l-3.625-2.708l-4.394-1.815l-5.133-0.554l-4.744-0.209l-5.09,0.627l-5.107,1.021l-4.677,2.129l-3.853,2.843l-1.858,4.16
		l-1.434,4.898l-1.446,4.505l-1.434,4.898l-1.459,4.486l-1.439,4.917l-1.047,4.837l-1.446,4.517l-1.052,4.831l-1.053,4.461
		l-1.439,4.886l-1.459,4.504l-1.428,4.898l-1.058,4.456l-1.44,4.898l-1.059,4.449l-1.446,4.88l-1.439,4.523l-1.44,4.874
		l-1.452,4.505l-1.046,4.855l-1.438,4.886l-1.052,4.468l-1.44,4.887l-1.446,4.511l-1.064,4.461l-3.135,14.524l-1.452,4.51
		l-1.443,4.893l-1.443,4.498l-1.437,4.904l-1.452,4.492l-2.092,9.705l-5.8,18l-1.831,4.941l-1.837,4.561l-2.246,4.203l-2.24,4.615
		l-1.849,4.154l-2.237,4.59l-2.246,4.203l-2.64,4.26l-2.649,3.877l-3.031,4.301l-3.049,3.908l-3.446,3.551l-3.456,3.193
		l-3.449,3.562l-3.849,3.238l-3.871,2.424l-4.686,1.754l-4.305,1.33l-4.698,0.959l-4.341-0.252l-3.991-1.477l-3.218-2.346
		l-2.846-3.193l-1.686-4.117l-1.825-8.438l0.265-4.744l-0.126-4.32l0.28-4.344l0.646-4.801l0.668-4.4l0.273-4.369l0.656-4.398
		l1.055-4.85l1.056-4.461l1.446-4.506l3.132-14.529l1.059-4.461l1.052-4.83l2.88-9.785l1.052-4.469l1.434-4.891l1.059-4.457
		l3.142-14.553l1.443-4.487l1.446-4.904l1.443-4.505l3.145-14.529l1.055-4.461l1.44-4.887l1.04-4.837l1.446-4.892l1.058-4.474
		l2.086-9.699l1.424-5.268l2.126-8.505l1.837-4.972l1.037-4.837l1.44-4.905l2.111-9.292l1.428-4.886l1.068-4.461l0.255-4.751
		l-2.08-4.074l-4.019-2.258l-4.763-1.366l-4.75-0.603l-5.111,0.234l-5.107,0.628l-5.08,1.797l-4.652,2.547l-3.462,3.175
		l-3.027,4.302l-2.655,3.858l-6.893,7.139l-3.458,3.188l-7.317,6.394l-3.449,3.169l-7.72,5.674l-4.268,2.499l-3.868,2.818
		l-4.258,2.499l-8.557,4.191l-8.544,4.584l-4.277,2.098l-5.068,2.191l-2.708,1.52l-5.071,2.191l-8.539,4.591l-9.332,4.689
		l-6.6,3.557l-5.04,2.966l-3.496,2.024l-3.864,2.818l-4.234,3.286l-3.453,3.557l-3.04,3.914l-3.058,3.532l-2.652,3.865l-3.686,9.095
		l-1.046,4.443l-0.659,4.805l-0.271,4.357l0.123,4.695l0.526,4.678l1.305,4.146l1.692,4.111l2.086,4.08l2.474,3.613l2.858,3.6
		l3.234,2.756l3.619,2.689l4.388,1.811l4.375,1.039l5.148,0.936l3.16,0.4l5.138,0.561l4.723-0.191l4.72-0.584l4.298-1.318
		l3.849-3.225l2.637-4.252l1.455-4.504l-0.135-4.695l-2.062-3.674l-3.622-2.314l-3.997-1.477l-3.584-1.52l-2.834-2.801l-1.677-3.717
		l-0.901-3.834l-0.517-4.266l0.271-4.355l1.062-4.444l1.843-4.56l2.64-4.252l3.44-3.963l3.431-3.575l4.246-3.262l3.868-2.824
		l4.664-2.548l4.259-2.492l4.68-1.754l4.665-2.535l4.28-2.099l5.021-3.372l2.711-1.914l9.286-5.858l3.489-2.4l4.252-2.855
		l4.994-4.548l3.855-3.243l3.064-3.114l2.305-2.246l1.185,0.228l-0.692,3.237l-1.449,4.511l-1.049,4.837l-1.058,4.461l-1.434,4.898
		l-2.901,9.003l-1.434,4.892l-1.064,4.456l-2.095,9.692l-1.434,4.905l-1.055,4.449l-1.449,4.498l-1.44,4.905l-1.058,4.432
		l-2.089,9.709l-1.059,4.449l-2.495,9.355l-1.44,4.898l-1.443,4.498l-1.446,4.887l-1.056,4.461l-0.646,4.799l-1.456,4.494
		l-4.185,19.396l-0.652,4.787l-0.249,5.15l-0.655,4.801l-0.25,5.145l-0.252,4.738l-0.652,4.807l0.129,4.701l0.929,4.99l0.523,4.658
		l0.929,4.984l0.917,4.609l1.317,4.561l1.686,4.117l2.874,3.969l5.723,7.164l3.622,2.713l4.416,2.592l4.388,1.834l4.372,1.42
		l9.493,1.189l4.726-0.186l14.148-1.734l4.686-1.379l12.883-4.721l4.277-2.092l4.634-3.33l2.708-1.895l4.243-3.273l3.849-2.826
		l3.468-3.182l3.065-3.137l3.449-3.564l6.107-7.053l6.089-7.809l2.646-3.865l2.25-4.227l1.852-4.154l1.889-2.973l1.185,0.26
		l0.886,3.414l0.526,4.652l0.923,4.604l1.308,4.566l1.686,4.111l2.092,4.066l2.479,4.031l3.243,3.127l7.25,5.396l4.006,2.277
		l4.388,1.814l4.363,1.027l4.757,0.998l4.345,0.252l4.731-0.186l5.127,0.154l10.209-1.262l3.914-0.879l4.701-0.955l4.695-1.377
		l4.296-1.699l9.717-4.727l3.489-2.018l8.529-4.973l4.258-2.881l4.234-3.668l3.846-3.605l9.157-10.561l3.415-4.75l1.502-2.541
		l3.409-5.15l2.646-3.859l2.233-4.59l2.246-4.211l2.628-4.633l1.84-4.566l1.465-4.492l3.667-9.102l1.453-4.518l1.445-4.885
		l1.053-4.469l1.44-4.887l1.446-4.492l2.092-9.697l1.459-4.523l1.033-4.83l1.452-4.893l1.04-4.85l0.658-4.788l1.047-4.868
		l2.867-9.76l1.064-4.468l4.179-19.378l1.44-4.898l1.452-4.523l1.44-4.886l1.046-4.849l1.434-4.886l1.458-4.492l2.475-9.76
		l1.439-4.898l1.847-4.529l1.439-4.911l1.053-4.449l1.84-4.929l1.847-4.566l4.461-9.2l2.24-4.215l3.033-4.295l2.646-4.258
		l6.475-7.471l3.852-3.619l3.064-3.129l1.071-4.046l0.025-0.047c-4.271-6.278-8.814-12.355-13.612-18.217h-4.284L445.613,94.49z"/>
</g>
</svg>
