<?xml version="1.0" encoding="utf-8"?>
<!-- Generator: Adobe Illustrator 16.0.0, SVG Export Plug-In . SVG Version: 6.00 Build 0)  -->
<!DOCTYPE svg PUBLIC "-//W3C//DTD SVG 1.1//EN" "http://www.w3.org/Graphics/SVG/1.1/DTD/svg11.dtd">
<svg version="1.1" xmlns="http://www.w3.org/2000/svg" xmlns:xlink="http://www.w3.org/1999/xlink" x="0px" y="0px"
	 width="595.28px" height="841.89px" viewBox="0 0 595.28 841.89" enable-background="new 0 0 595.28 841.89" xml:space="preserve">
<g id="Map">
	<path fill="#E7E7E7" d="M326.21,435.204l2.345-0.959l0.745-0.959l0.533-1.278v-0.959l-0.641-1.278l-0.959,0.319
		c0,0-4.047,2.132-4.154,2.345c-0.106,0.213-1.492-0.107-1.492-0.107l-1.065-0.852l0.747-1.918l1.811-1.492v-1.492l-0.533,0.32
		l-1.599,1.918l-0.745,0.106l0.639-0.64l0.746-2.237l0.214-0.746l0.745-1.386l0.533-1.385l-0.533-0.426l-0.959,0.319l-1.491,1.599
		l0.532,2.024l-1.172,2.558l-0.853,0.959l-0.746,1.385l-2.664,0.32l-0.959,1.385l-1.811,0.852l-1.599,2.238
		c0,0-1.599,1.385-2.131,1.385s-1.279-0.639-1.279-0.639v-1.385l-1.705-1.6v-0.852v-0.533l-0.533-1.598l0.533-1.279v-1.172v-0.746
		v-0.852v-0.746l-0.853-1.918l-1.49-0.107l-0.854,0.213l-1.278-0.532l-0.745-0.213l-0.96-0.427l-0.64-1.064l0.106-1.173l0.746-1.704
		l1.492-2.237h-0.533h-2.557l-2.664,1.385l-2.345,1.812l-2.982,3.409l-1.493,1.599l-1.064,1.811v3.943v4.795l-1.491,4.476
		l-1.6,2.557l-2.023,2.663l-1.493,1.493l-5.754,1.812l-0.532,2.131l-1.811,5.435l-1.279,4.474l-1.493,2.879l-0.639,3.408
		l-0.959,2.559l-1.704,2.449l-2.025,2.664l-2.449,3.09l-1.705,2.238l-2.451,1.491l-2.984,0.959l-2.877,1.918l-1.491,0.959
		l-3.729,3.836c0,0-0.854,1.493-1.28,1.706s-4.155,1.919-4.155,1.919l-3.837,4.687l-2.877,1.065l-4.169,3.091l-3.076,2.232
		l-2.449,2.877l-3.624,0.965h-1.812c0,0-2.878,1.064-3.195,1.385c-0.32,0.319-1.601,0-1.601,0l-1.384,1.065l-0.852,0.853
		l-1.279,1.918l-1.492,1.278v1.386l-0.747,1.705l-1.597,0.532l-1.705,1.918l-0.534,3.197l-2.024,1.278l-1.598,1.064l-0.853,0.854
		l-1.49,1.599c0,0-2.346,2.45-2.772,2.771c-0.426,0.318-1.277,1.065-1.598,1.277c-0.32,0.215-1.598,1.6-1.918,1.918
		c-0.32,0.32-0.959,1.279-1.385,1.706s-1.279,2.237-1.279,2.237l-2.131,1.599l-2.13,1.171v2.452h-0.854l-1.811,1.491l-0.959,1.918
		l-0.319,2.665l-0.959,2.663l-0.747-0.105c-0.745-0.107-0.852,0-0.852,0l-1.171,1.598l-0.959,1.279h1.49l0.746,1.49l-0.639,1.279
		h-0.959l-0.639,0.531v2.346c0,0.427,0.852,1.918,0.852,1.918v1.172h1.278v0.318c0,0.32-0.746,1.279-0.746,1.279l2.452,0.959
		l2.13-1.492v1.279l-2.13,1.704l-0.214,1.812l2.77,0.641l1.812-0.107l0.852-0.105l2.238,0.105l0.318,0.746l2.665,0.213l1.278-0.105
		l1.811-0.854l0.428-0.959l1.065-1.492h2.343h2.346l0.852,0.428c0,0,0.64,2.023,0.64,2.449c0,0.428,0.214,0.533,0.214,0.533
		l0.105,1.598l2.239,1.174l1.704-0.532l1.705-0.427l2.45,0.531l1.599,0.428l1.598,1.704l0.214,1.065l-0.64,1.387v1.384l1.065,1.065
		l3.09-0.106l1.599-1.173l1.598-0.424l1.599,0.424l0.32,0.959l0.532,1.279l-0.212,0.853h1.918h1.81h4.156l2.557-1.599l0.96-0.744
		c0,0,1.278,0.318,1.812,0c0.532-0.32,1.065-0.428,2.024-1.066c0.959-0.641,0,0,0.319-0.744c0.32-0.748,0,0,0.214-0.322
		c0.214-0.319,1.704-0.213,3.516-0.852c1.812-0.641,0,0,0-0.32s-0.959-1.49-0.959-2.024c0-0.532,1.066-2.024,1.066-2.024
		l1.704-1.066c0,0,1.492-0.852,1.811-1.385c0.321-0.533,1.28-1.279,1.28-1.279l1.704-1.065l1.065-1.17l-0.106-1.065l0.319-0.748
		l1.599-1.385l1.013-0.425l3.357-0.959l2.131-0.854l2.344-0.959c0,0-0.214-1.277-0.32-1.598c-0.105-0.32-0.214-0.531-0.214-0.531
		l-0.959-1.172c0,0-1.384-0.535-1.705-0.64c-0.317-0.106,0.534-1.706,0.534-1.706l1.279-1.277l1.277-1.918l0.746-1.492l1.492-3.303
		l0.107-1.919v-2.45l1.384-2.133l0.639-2.236l0.959-0.746l1.813-1.172l0.639-0.959l0.32-2.983c0,0-0.32-3.729-0.32-4.05
		s0.532-1.704,0.532-1.704l0.427-1.812l1.172-3.943l2.025-4.795l1.811-2.024c0,0,3.089-2.132,3.409-2.45
		c0.321-0.32,3.836-2.238,3.836-2.238l3.836-1.604l2.025-1.38l2.345-1.497h1.491h2.343l2.452-0.953l0.959-0.427l1.278,0.427
		l1.278,0.953l1.279,1.07l1.064,0.427l1.706,0.213l0.745-1.065l2.344-2.771l-0.639-1.386l-0.959-1.064l-1.385-0.533l-0.745-0.214
		l-1.173-0.959l-1.599-0.319l-1.278-1.172l-0.533-3.09v-2.344l0.106-1.066l0.319-2.662l0.746-0.642c0,0,2.877-1.704,3.517-2.343
		c0.64-0.641,3.836-2.559,3.836-2.559s2.558-2.129,2.877-2.344c0.32-0.213,1.172-0.744,1.172-0.744l1.173-1.387l0.745-2.984
		l1.279-3.301l3.09-4.051l1.278-1.811l1.599-2.025l2.451-2.663l0.319-1.918l1.491-2.664l1.812-2.771l2.237-3.518v-0.638v-1.065
		l-0.641-0.64l-0.318-1.493l0.107-0.959l-0.534-1.064l-0.532-0.64l-0.106-0.639l-0.853-0.64l-0.427-0.959v-0.533l1.172-0.745
		l2.132-1.599v-1.599l-0.852-0.319l-1.707,1.599l-1.704,0.212c0,0,0-0.959,0.107-1.491
		C325.783,435.099,326.21,435.204,326.21,435.204"/>
	<path fill="#E7E7E7" d="M321.523,382.462c0,0,1.097,5.921,4.604,6.578s7.676,2.632,7.676,2.632l2.412,3.07l1.754,1.096h1.974h1.535
		l2.412,1.316l1.315,1.316h1.316l2.85,3.069v1.754l1.098,2.412v2.192v2.304v3.836v4.168l-2.631,3.068c0,0-1.976,0.879-1.976,1.756
		s-1.534,3.508-1.534,3.508s-0.658,1.096-1.755,2.193c-1.096,1.096-2.631,2.412-2.631,2.412l-1.535,3.291l1.316,1.889h2.411
		l1.755-2.111l0.877,2.111c0,0,0,1.617,0.877,1.398c0.878-0.217,1.976-1.135,1.976-1.135s0.437-0.697,1.094,0l0.658,0.699
		c0,0,1.317-1.279,1.098,0.459c-0.219,1.73,0.049,2.172,0.025,2.826l-0.025,0.662c0,0,0.22,1.096,1.097,1.096h3.29l5.482-3.727
		l2.631-2.279l3.07-3.426l2.192-3.947l1.097-2.193l2.631-3.727v-3.729l3.289-4.168l2.631-1.314l1.098-1.424l1.096-4.716l1.535-0.877
		l1.535-1.755l1.974-4.823l1.974-3.947l1.099-2.852v-1.314l-1.756-1.098l-1.316-2.193l-1.096-2.412v-2.192v-1.754l2.192-2.412
		l3.729-1.534l2.632-1.535l3.509-1.535h5.262h1.535v1.974v2.412l2.193,0.877v-1.315l1.756-1.974v-1.974l-1.535-1.754l-0.877-2.412
		v-1.537l0.877-1.533l1.535-1.316h1.754l1.315-2.412c0,0,1.974-1.315,2.192-1.974c0.22-0.657,0.986-3.288,0.986-3.288
		s-0.998-0.551-0.219-1.209c0.779-0.656,0.329-4.713,0.329-4.713s-0.22-1.619,0-2.125c0.219-0.506,0-2.261,0-2.261l0.096-1.755
		l2.974-3.289v-1.314l1.315-1.755l-1.973-1.754h-1.535l-1.315-1.534l-1.315-1.316h-4.604l-3.072,2.631l-2.961,2.301l-1.424,3.182
		l-1.535,1.535l-1.207,1.535l-2.192,0.877l-2.082,0.438h-1.754l-3.511-0.438l-5.701-1.975l-3.289-1.534l-1.535-1.535l-2.852-1.315
		l-1.096-0.549l-1.316-0.767c0,0-2.082-0.989-2.521-1.646c-0.438-0.658-1.316-0.658-1.316-1.316s-1.205-1.863-1.205-2.52
		c0-0.658-1.315-2.852-1.315-2.852l-1.535-5.264l0.657-3.508l-0.657-2.854l-1.974-2.412l1.097-1.098l-0.438-1.314l-3.508,1.314
		l-0.439-1.314l-0.329-1.975l-1.315-2.082l-2.084-1.207h-1.974l1.536,2.193l1.973,5.701l-0.658,1.535l0.877,1.754l-0.219,2.852
		l0.877,1.977l-0.877,2.191l-1.535,1.316l-1.535-1.754v-1.754l-0.438-1.977l-1.315-2.193l-2.851-0.438l-2.633-0.658l-0.656-1.098
		l-2.853-1.096l-0.219-1.535v-1.535l0.219-1.096l0.22-2.193l-0.438-2.193l-0.658-1.973l3.289-1.315l0.44-1.097l-2.633-2.193h-1.974
		l-1.096-2.631l-1.316-2.633l-1.316-1.314l-0.438-1.754l0.877-1.316l0.658-2.85l-0.658-3.289l-1.096-1.535l-1.098-1.316
		l-0.877-1.315l-0.438-2.412l0.438-2.631h-1.096l-2.412,1.097l-1.535,0.657h-1.316l-0.658-1.754l0.877-1.864l-1.315-0.22
		l-1.425-0.767l-1.426-1.756h-2.192h-1.754c0,0-1.315,1.537-1.315,0v-2.412l-1.974,1.096c0,0-2.192,1.097-2.192,0.439
		c0-0.658,1.314-3.07,1.314-3.07h-1.314h-2.633v1.974c0,0-3.289-3.728-3.289-4.386s0.877-2.193,0-2.852s-1.974-3.07-1.974-3.07
		v-2.631h-3.114l-1.052,1.315l-1.935,0.457l2.986,2.614v2.85l2.676,2.852l2.193,2.412l1.973,2.412l0.439,2.631l-2.412,1.098
		l0.876,1.755l2.413,2.192l1.316,3.947l1.314,0.877l1.316,3.07l1.535,1.754l1.754,2.193l1.535,1.316l1.315,1.533l3.946,5.482
		l1.097,2.193l2.413,5.481l1.535,1.864l0.986,1.205l0.879,1.535l1.974,2.852l0.657,2.961l1.205,3.947l1.646,2.742l1.535,2.301
		l0.985,3.621l0.33,2.301c1.535,1.754,2.193,6.251,2.193,6.251l-0.77,3.728l0.658,4.605l0.438,1.383l-2.959,0.811l0.328,2.412
		l-0.108,1.973l-1.316,2.082v2.193l-0.111,2.192l-1.314,2.742l-1.975,1.097l0.658,2.85l0.219,1.316l-0.219,1.205l-1.096,0.877
		l-3.617,0.988l-1.646,0.328c0,0-2.193,0.33-2.851,0.768c-0.658,0.439-3.947,0.658-4.386,1.316s-2.851,1.535-2.851,1.535
		l0.877,2.192L321.523,382.462z"/>
</g>
<g id="Airplane">
	<path fill="#E7E7E7" d="M296.437,491.438l2.13-2.113c0.467,0.469,0.937,0.938,1.412,1.402l-2.105,2.139
		C297.389,492.391,296.913,491.912,296.437,491.438z M301.407,492.125l1.437,1.402l-2.09,2.15l-1.441-1.404L301.407,492.125z
		 M293.616,488.533l2.18-2.062c0.452,0.477,0.912,0.953,1.375,1.432l-2.152,2.092C294.547,489.504,294.079,489.02,293.616,488.533z
		 M290.867,485.561l2.222-2.014c0.444,0.488,0.892,0.98,1.345,1.469l-2.202,2.037C291.772,486.557,291.317,486.061,290.867,485.561z
		 M288.186,482.52l2.272-1.955c0.433,0.498,0.867,1.002,1.309,1.5l-2.253,1.984C289.068,483.537,288.624,483.031,288.186,482.52z
		 M285.583,479.408l2.326-1.895c0.417,0.514,0.839,1.023,1.265,1.535l-2.3,1.924C286.438,480.453,286.009,479.932,285.583,479.408z
		 M283.06,476.232l2.378-1.832c0.402,0.523,0.809,1.043,1.224,1.562l-2.351,1.867C283.89,477.297,283.473,476.764,283.06,476.232z
		 M280.626,472.99l2.425-1.77c0.388,0.535,0.782,1.068,1.181,1.598l-2.397,1.801C281.426,474.078,281.024,473.533,280.626,472.99z
		 M278.284,469.676l2.474-1.697c0.373,0.545,0.75,1.088,1.135,1.627l-2.448,1.736C279.052,470.787,278.666,470.23,278.284,469.676z
		 M276.035,466.295l2.523-1.621c0.357,0.555,0.72,1.107,1.086,1.66l-2.497,1.662C276.771,467.428,276.401,466.861,276.035,466.295z
		 M273.888,462.848l2.572-1.549c0.339,0.566,0.686,1.133,1.035,1.695l-2.547,1.588C274.59,464.002,274.237,463.426,273.888,462.848z
		 M271.849,459.334l2.619-1.463c0.321,0.574,0.647,1.148,0.982,1.723l-2.595,1.506C272.514,460.514,272.178,459.922,271.849,459.334
		z M269.922,455.756l2.667-1.377c0.302,0.582,0.611,1.168,0.925,1.752l-2.643,1.422C270.55,456.955,270.233,456.354,269.922,455.756
		z M268.115,452.117l2.709-1.291c0.282,0.596,0.571,1.189,0.866,1.783l-2.685,1.338
		C268.701,453.336,268.405,452.727,268.115,452.117z M266.429,448.418l2.751-1.195c0.262,0.604,0.531,1.205,0.807,1.809
		l-2.732,1.244C266.975,449.654,266.7,449.033,266.429,448.418z M264.875,444.654l2.793-1.094c0.24,0.613,0.487,1.225,0.739,1.836
		l-2.77,1.145C265.375,445.916,265.121,445.285,264.875,444.654z M263.458,440.844l2.83-0.998c0.219,0.621,0.443,1.242,0.674,1.865
		l-2.813,1.045C263.912,442.117,263.683,441.48,263.458,440.844z M262.183,436.971l2.868-0.883c0.193,0.629,0.393,1.256,0.601,1.887
		l-2.849,0.939C262.59,438.266,262.382,437.619,262.183,436.971z M261.059,433.057l2.898-0.77c0.168,0.637,0.345,1.271,0.528,1.902
		l-2.882,0.834C261.414,434.369,261.231,433.711,261.059,433.057z M260.087,429.102l2.926-0.656
		c0.144,0.643,0.295,1.283,0.452,1.926l-2.912,0.715C260.391,430.426,260.235,429.766,260.087,429.102z M259.279,425.107
		l2.951-0.537c0.118,0.646,0.242,1.293,0.373,1.943l-2.94,0.594C259.527,426.441,259.4,425.771,259.279,425.107z M258.636,421.083
		l2.971-0.416c0.091,0.651,0.188,1.304,0.292,1.957l-2.962,0.473C258.828,422.424,258.728,421.755,258.636,421.083z
		 M258.166,417.029l2.985-0.284c0.063,0.652,0.131,1.309,0.208,1.964l-2.979,0.345C258.3,418.376,258.23,417.701,258.166,417.029z
		 M257.873,412.96l2.996-0.155c0.034,0.657,0.073,1.315,0.12,1.974l-2.992,0.217C257.948,414.315,257.907,413.635,257.873,412.96z
		 M257.759,408.876l3-0.016c0.003,0.659,0.014,1.316,0.032,1.974l-2.998,0.084C257.774,410.238,257.762,409.556,257.759,408.876z
		 M257.831,404.795l2.998,0.12c-0.026,0.658-0.044,1.315-0.057,1.975l-2.999-0.056C257.784,406.154,257.804,405.475,257.831,404.795
		z M270.921,362.333l2.546,1.583c-0.347,0.561-0.688,1.123-1.022,1.688l-2.582-1.528
		C270.208,363.494,270.561,362.912,270.921,362.333z M273.152,358.917l2.475,1.695c-0.374,0.544-0.739,1.091-1.098,1.641
		l-2.513-1.641C272.388,360.044,272.767,359.479,273.152,358.917z M275.532,355.602l2.397,1.803
		c-0.396,0.528-0.787,1.059-1.17,1.591l-2.436-1.75C274.72,356.694,275.123,356.146,275.532,355.602z M278.051,352.393l2.319,1.904
		c-0.419,0.51-0.832,1.023-1.238,1.54l-2.358-1.854C277.193,353.45,277.619,352.92,278.051,352.393z M280.707,349.299l2.236,1.999
		c-0.44,0.494-0.875,0.989-1.302,1.489l-2.277-1.955C279.805,350.318,280.252,349.806,280.707,349.299z M283.487,346.316
		l2.149,2.091c-0.459,0.473-0.913,0.951-1.36,1.431l-2.196-2.045C282.543,347.297,283.011,346.804,283.487,346.316z
		 M284.918,344.869c0.481-0.479,0.966-0.952,1.454-1.419l2.079,2.163c-0.476,0.458-0.95,0.919-1.42,1.387L284.918,344.869z
		 M287.854,342.054c0.5-0.462,1.002-0.917,1.509-1.368l1.994,2.24c-0.491,0.438-0.98,0.881-1.465,1.33L287.854,342.054z
		 M290.892,339.345c0.515-0.442,1.033-0.881,1.552-1.312l1.917,2.307c-0.507,0.422-1.012,0.849-1.514,1.281L290.892,339.345z
		 M294.026,336.748c0.529-0.423,1.063-0.842,1.6-1.255l1.831,2.376c-0.523,0.402-1.043,0.81-1.561,1.223L294.026,336.748z
		 M297.25,334.267c0.547-0.405,1.095-0.805,1.648-1.198l1.739,2.445c-0.536,0.382-1.068,0.77-1.6,1.163L297.25,334.267z
		 M300.564,331.905c0.561-0.384,1.125-0.764,1.691-1.137l1.647,2.508c-0.55,0.361-1.097,0.729-1.642,1.103L300.564,331.905z
		 M303.966,329.666c0.575-0.363,1.154-0.722,1.734-1.072l1.551,2.568c-0.562,0.34-1.125,0.687-1.681,1.04L303.966,329.666z
		 M307.448,327.558c0.588-0.343,1.18-0.678,1.773-1.008l1.453,2.625c-0.576,0.319-1.148,0.645-1.721,0.976L307.448,327.558z
		 M311.009,325.579c0.602-0.32,1.205-0.632,1.811-0.938l1.352,2.679c-0.588,0.296-1.172,0.6-1.756,0.909L311.009,325.579z
		 M314.642,323.739c0.613-0.295,1.229-0.586,1.846-0.868l1.248,2.727c-0.598,0.275-1.193,0.555-1.789,0.842L314.642,323.739z
		 M318.345,322.041c0.625-0.271,1.25-0.535,1.875-0.794l1.146,2.772c-0.609,0.252-1.215,0.509-1.822,0.772L318.345,322.041z
		 M322.112,320.487c0.635-0.246,1.27-0.488,1.906-0.722l1.031,2.817c-0.617,0.226-1.234,0.46-1.85,0.699L322.112,320.487z
		 M325.937,319.083c0.645-0.222,1.287-0.438,1.938-0.645l0.916,2.855c-0.625,0.202-1.25,0.41-1.875,0.625L325.937,319.083z
		 M329.817,317.832c0.65-0.195,1.305-0.384,1.955-0.566l0.809,2.889c-0.637,0.178-1.27,0.361-1.902,0.55L329.817,317.832z
		 M333.745,316.74c0.658-0.17,1.316-0.332,1.979-0.487l0.686,2.921c-0.641,0.149-1.281,0.308-1.922,0.471L333.745,316.74z
		 M337.714,315.807c0.666-0.142,1.334-0.276,2.002-0.402l0.559,2.947c-0.645,0.122-1.289,0.253-1.936,0.39L337.714,315.807z"/>
	<path fill="#E7E7E7" d="M262.179,397.989c0,0-1.769,3.377-3.339,3.082l-0.002,0.001c-0.012-0.002-0.018-0.005-0.03-0.009
		c-0.037-0.006-0.075-0.018-0.111-0.031v-0.009c-1.463-0.63-1.038-4.422-1.038-4.422c0.048-1.938,1.804-7.334,1.804-7.334
		l-1.132-1.31l-0.267,0.774c-0.217,0.712-0.535,0.475-0.535,0.475l-1.627-0.495c-0.445-0.134-0.312-0.732-0.312-0.732l0.676-2.112
		l-1.604-1.817l-0.199,0.824c-0.157,0.499-0.442,0.411-0.442,0.411l-1.832-0.562c-0.498-0.152-0.343-0.576-0.343-0.576l0.702-2.204
		l-4.849-5.233l0.363-1.269l11.281,6.242l2.521,0.775c0.515-2.105,3.589-9.152,3.589-9.152l-4.723-4.774l0.5-1.831l5.799,3.417
		c0.374-1.395,2.262-3.394,2.262-3.394l-0.044,0.141l0.043-0.137c0,0,0.443,2.712-0.028,4.075l6.716,0.419l-0.606,1.801l-6.59,1.305
		c0,0-1.407,7.556-2.162,9.592l2.522,0.772l12.843,1.153l-0.412,1.255l-6.95,1.614l-0.653,2.222c0,0-0.108,0.434-0.608,0.279
		l-1.83-0.559c0,0-0.286-0.089-0.134-0.588l0.294-0.794l-2.346,0.611l-0.624,2.121c0,0-0.222,0.567-0.666,0.434l-1.629-0.502
		c0,0-0.394,0.017-0.174-0.692l0.212-0.789l-1.672,0.445C264.794,390.904,263.225,396.356,262.179,397.989"/>
</g>
<g id="Sth_Island_Bot_Route">
	<g id="Sth_Island_Bot_Route_1_" display="none">
		<g display="inline">
			<path fill="#F16469" d="M256.584,488.772c0,2.485-2.013,4.498-4.497,4.498c-2.486,0-4.503-2.013-4.503-4.498
				c0-2.486,2.017-4.502,4.503-4.502C254.571,484.271,256.584,486.286,256.584,488.772"/>
			<path fill="#F16469" d="M259.367,500.438c0,2.484-2.012,4.496-4.497,4.496c-2.486,0-4.502-2.012-4.502-4.496
				c0-2.487,2.016-4.504,4.502-4.504C257.355,495.935,259.367,497.951,259.367,500.438"/>
			<path fill="#F16469" d="M234.657,531.419c0,2.484-2.011,4.496-4.496,4.496c-2.486,0-4.502-2.012-4.502-4.496
				c0-2.487,2.016-4.504,4.502-4.504C232.646,526.915,234.657,528.932,234.657,531.419"/>
			<path fill="#F16469" d="M220.284,524.73c0,2.485-2.012,4.497-4.496,4.497c-2.486,0-4.504-2.012-4.504-4.497
				c0-2.487,2.018-4.503,4.504-4.503C218.272,520.228,220.284,522.243,220.284,524.73"/>
		</g>
		<path display="inline" fill="#F16469" d="M308.733,495.089c0,4.072-3.296,7.367-7.368,7.367c-4.074,0-7.377-3.295-7.377-7.367
			c0-4.076,3.303-7.377,7.377-7.377C305.438,487.712,308.733,491.013,308.733,495.089"/>
		<g display="inline">
			<path fill="#F16469" d="M230.158,532.915c-0.15,0-0.301-0.022-0.449-0.068c-0.588-0.185-1.004-0.71-1.047-1.325l-1.787-25.143
				c-0.037-0.513,0.192-1.008,0.605-1.313l23.712-17.502c0.311-0.229,0.695-0.329,1.081-0.281l49.418,6.312
				c0.75,0.097,1.312,0.736,1.31,1.492c-0.002,0.757-0.567,1.394-1.318,1.485l-46.03,5.612l-24.328,30.172
				C231.036,532.716,230.604,532.915,230.158,532.915z M229.926,506.989l1.458,20.516l22.316-27.677
				c0.245-0.304,0.599-0.5,0.986-0.548l34.707-4.231l-36.902-4.714L229.926,506.989z"/>
		</g>
		<path display="inline" fill="#E7E7E7" d="M305.145,495.085c0,2.092-1.691,3.781-3.78,3.781c-2.092,0-3.786-1.689-3.786-3.781
			c0-2.09,1.694-3.785,3.786-3.785C303.453,491.3,305.145,492.995,305.145,495.085"/>
		<path display="inline" fill="#F16469" d="M223.275,529.656l1.039-2.242l1.496,0.694l-1.039,2.241L223.275,529.656z
			 M220.284,528.272l1.037-2.244l1.498,0.692l-1.039,2.244L220.284,528.272z"/>
	</g>
	<g id="Sth_Island_Bot_Names" display="none">
		<text transform="matrix(1 0 0 1 187.2734 487.6035)" display="inline"><tspan x="0" y="0" fill="#777777" font-family="'Nunito-Bold'" font-size="11.132">F</tspan><tspan x="6.445" y="0" fill="#777777" font-family="'Nunito-Bold'" font-size="11.132">r</tspan><tspan x="11.021" y="0" fill="#777777" font-family="'Nunito-Bold'" font-size="11.132">a</tspan><tspan x="17.176" y="0" fill="#777777" font-family="'Nunito-Bold'" font-size="11.132">n</tspan><tspan x="23.744" y="0" fill="#777777" font-family="'Nunito-Bold'" font-size="11.132">z </tspan><tspan x="32.438" y="0" fill="#777777" font-family="'Nunito-Bold'" font-size="11.132">J</tspan><tspan x="36.635" y="0" fill="#777777" font-family="'Nunito-Bold'" font-size="11.132">o</tspan><tspan x="43.169" y="0" fill="#777777" font-family="'Nunito-Bold'" font-size="11.132">s</tspan><tspan x="48.735" y="0" fill="#777777" font-family="'Nunito-Bold'" font-size="11.132">e</tspan><tspan x="54.88" y="0" fill="#777777" font-family="'Nunito-Bold'" font-size="11.132">f</tspan></text>
		<g display="inline">
			<text transform="matrix(1 0 0 1 220.2842 545.9131)"><tspan x="0" y="0" fill="#777777" font-family="'Nunito-Bold'" font-size="11.132">Q</tspan><tspan x="8.917" y="0" fill="#777777" font-family="'Nunito-Bold'" font-size="11.132">u</tspan><tspan x="15.518" y="0" fill="#777777" font-family="'Nunito-Bold'" font-size="11.132">e</tspan><tspan x="21.629" y="0" fill="#777777" font-family="'Nunito-Bold'" font-size="11.132">e</tspan><tspan x="27.729" y="0" fill="#777777" font-family="'Nunito-Bold'" font-size="11.132">n</tspan><tspan x="34.386" y="0" fill="#777777" font-family="'Nunito-Bold'" font-size="11.132">s</tspan><tspan x="40.13" y="0" fill="#777777" font-family="'Nunito-Bold'" font-size="11.132">t</tspan><tspan x="44.36" y="0" fill="#777777" font-family="'Nunito-Bold'" font-size="11.132">o</tspan><tspan x="50.817" y="0" fill="#777777" font-family="'Nunito-Bold'" font-size="11.132">w</tspan><tspan x="60.49" y="0" fill="#777777" font-family="'Nunito-Bold'" font-size="11.132">n</tspan></text>
		</g>
		<text transform="matrix(1 0 0 1 134.3955 526.915)" display="inline"><tspan x="0" y="0" fill="#777777" font-family="'Nunito-Bold'" font-size="11.132">M</tspan><tspan x="9.607" y="0" fill="#777777" font-family="'Nunito-Bold'" font-size="11.132">i</tspan><tspan x="12.59" y="0" fill="#777777" font-family="'Nunito-Bold'" font-size="11.132">l</tspan><tspan x="15.707" y="0" fill="#777777" font-family="'Nunito-Bold'" font-size="11.132">f</tspan><tspan x="19.881" y="0" fill="#777777" font-family="'Nunito-Bold'" font-size="11.132">o</tspan><tspan x="26.438" y="0" fill="#777777" font-family="'Nunito-Bold'" font-size="11.132">r</tspan><tspan x="30.924" y="0" fill="#777777" font-family="'Nunito-Bold'" font-size="11.132">d </tspan><tspan x="40.631" y="0" fill="#777777" font-family="'Nunito-Bold'" font-size="11.132">S</tspan><tspan x="47.989" y="0" fill="#777777" font-family="'Nunito-Bold'" font-size="11.132">ou</tspan><tspan x="61.147" y="0" fill="#777777" font-family="'Nunito-Bold'" font-size="11.132">n</tspan><tspan x="67.826" y="0" fill="#777777" font-family="'Nunito-Bold'" font-size="11.132">d</tspan></text>
		<text transform="matrix(1 0 0 1 253.084 515.875)" display="inline"><tspan x="0" y="0" fill="#777777" font-family="'Nunito-Bold'" font-size="11.132">M</tspan><tspan x="9.673" y="0" fill="#777777" font-family="'Nunito-Bold'" font-size="11.132">t </tspan><tspan x="16.798" y="0" fill="#777777" font-family="'Nunito-Bold'" font-size="11.132">C</tspan><tspan x="24.557" y="0" fill="#777777" font-family="'Nunito-Bold'" font-size="11.132">o</tspan><tspan x="31.146" y="0" fill="#777777" font-family="'Nunito-Bold'" font-size="11.132">o</tspan><tspan x="37.703" y="0" fill="#777777" font-family="'Nunito-Bold'" font-size="11.132">k</tspan></text>
	</g>
</g>
<g id="Sth_Island_Top_Route">
	<g id="Sth_Island_Top_Route_1_">
		<path fill="#F16469" d="M273.47,469.821c0,2.485-2.011,4.497-4.497,4.497s-4.503-2.012-4.503-4.497
			c0-2.486,2.017-4.503,4.503-4.503S273.47,467.335,273.47,469.821"/>
		<path fill="#F16469" d="M306.64,465.931c0,2.486-2.013,4.498-4.497,4.498c-2.486,0-4.503-2.012-4.503-4.498
			s2.017-4.502,4.503-4.502C304.627,461.429,306.64,463.444,306.64,465.931"/>
		<path fill="#F16469" d="M326.244,464.762c0,2.484-2.012,4.496-4.497,4.496c-2.486,0-4.503-2.012-4.503-4.496
			c0-2.488,2.017-4.504,4.503-4.504C324.232,460.258,326.244,462.273,326.244,464.762"/>
		<path fill="#F16469" d="M312,430.072c0,2.486-2.012,4.498-4.496,4.498c-2.486,0-4.504-2.012-4.504-4.498s2.018-4.502,4.504-4.502
			C309.988,425.57,312,427.586,312,430.072"/>
		<path fill="#F16469" d="M284.773,448.581c0,2.486-2.012,4.498-4.497,4.498c-2.487,0-4.503-2.012-4.503-4.498
			s2.016-4.502,4.503-4.502C282.762,444.079,284.773,446.095,284.773,448.581"/>
		<path fill="#F16469" d="M301.502,496.585c-0.319,0-0.636-0.102-0.9-0.301l-32.912-24.713c-0.585-0.439-0.768-1.237-0.432-1.888
			l11.263-21.793c0.116-0.226,0.288-0.417,0.498-0.558l27.646-18.509c0.461-0.31,1.054-0.338,1.541-0.077
			c0.489,0.261,0.794,0.77,0.794,1.323v6.893h18.312c0.452,0,0.881,0.204,1.165,0.556c0.285,0.352,0.396,0.812,0.303,1.255
			l-5.567,26.295c-0.141,0.661-0.704,1.146-1.378,1.187l-18.225,1.089l-0.607,27.774c-0.013,0.562-0.339,1.07-0.845,1.315
			C301.949,496.535,301.726,496.585,301.502,496.585z M270.506,469.935l29.561,22.196l0.573-26.235
			c0.018-0.78,0.631-1.418,1.41-1.464l18.464-1.103l4.947-23.366H307.5c-0.828,0-1.5-0.672-1.5-1.5v-5.583l-24.991,16.73
			L270.506,469.935z"/>
		<path fill="#F16469" d="M308.733,495.09c0,4.072-3.296,7.367-7.368,7.367c-4.074,0-7.377-3.295-7.377-7.367
			c0-4.076,3.303-7.377,7.377-7.377C305.438,487.713,308.733,491.014,308.733,495.09"/>
		<path fill="#E7E7E7" d="M305.145,495.086c0,2.092-1.691,3.781-3.78,3.781c-2.092,0-3.786-1.689-3.786-3.781
			c0-2.09,1.694-3.785,3.786-3.785C303.453,491.301,305.145,492.996,305.145,495.086"/>
	</g>
	<g id="Sth_Island_Top_Names" display="none">
		<text transform="matrix(1 0 0 1 261.1187 423.2949)" display="inline"><tspan x="0" y="0" fill="#777777" font-family="'Nunito-Bold'" font-size="11.132">A</tspan><tspan x="8.482" y="0" fill="#777777" font-family="'Nunito-Bold'" font-size="11.132">be</tspan><tspan x="21.462" y="0" fill="#777777" font-family="'Nunito-Bold'" font-size="11.132">l </tspan><tspan x="27.307" y="0" fill="#777777" font-family="'Nunito-Bold'" font-size="11.132">T</tspan><tspan x="33.484" y="0" fill="#777777" font-family="'Nunito-Bold'" font-size="11.132">a</tspan><tspan x="39.641" y="0" fill="#777777" font-family="'Nunito-Bold'" font-size="11.132">s</tspan><tspan x="45.217" y="0" fill="#777777" font-family="'Nunito-Bold'" font-size="11.132">m</tspan><tspan x="55.057" y="0" fill="#777777" font-family="'Nunito-Bold'" font-size="11.132">a</tspan><tspan x="61.225" y="0" fill="#777777" font-family="'Nunito-Bold'" font-size="11.132">n</tspan></text>
		<text transform="matrix(1 0 0 1 220.3359 467.2148)" display="inline"><tspan x="0" y="0" fill="#777777" font-family="'Nunito-Bold'" font-size="11.132">H</tspan><tspan x="8.783" y="0" fill="#777777" font-family="'Nunito-Bold'" font-size="11.132">o</tspan><tspan x="15.34" y="0" fill="#777777" font-family="'Nunito-Bold'" font-size="11.132">k</tspan><tspan x="21.474" y="0" fill="#777777" font-family="'Nunito-Bold'" font-size="11.132">i</tspan><tspan x="24.59" y="0" fill="#777777" font-family="'Nunito-Bold'" font-size="11.132">t</tspan><tspan x="28.943" y="0" fill="#777777" font-family="'Nunito-Bold'" font-size="11.132">i</tspan><tspan x="31.926" y="0" fill="#777777" font-family="'Nunito-Bold'" font-size="11.132">k</tspan><tspan x="38.082" y="0" fill="#777777" font-family="'Nunito-Bold'" font-size="11.132">a</tspan></text>
		
			<text transform="matrix(1 0 0 1 329.7998 441.1748)" display="inline" fill="#777777" font-family="'Nunito-Bold'" font-size="11.132">Marlborough</text>
		<text transform="matrix(1 0 0 1 231.2002 442.0791)" display="inline"><tspan x="0" y="0" fill="#777777" font-family="'Nunito-Bold'" font-size="11.132">P</tspan><tspan x="7.503" y="0" fill="#777777" font-family="'Nunito-Bold'" font-size="11.132">u</tspan><tspan x="14.093" y="0" fill="#777777" font-family="'Nunito-Bold'" font-size="11.132">n</tspan><tspan x="20.728" y="0" fill="#777777" font-family="'Nunito-Bold'" font-size="11.132">a</tspan><tspan x="26.883" y="0" fill="#777777" font-family="'Nunito-Bold'" font-size="11.132">k</tspan><tspan x="33.017" y="0" fill="#777777" font-family="'Nunito-Bold'" font-size="11.132">ai</tspan><tspan x="42.146" y="0" fill="#777777" font-family="'Nunito-Bold'" font-size="11.132">k</tspan><tspan x="48.279" y="0" fill="#777777" font-family="'Nunito-Bold'" font-size="11.132">i</tspan></text>
		<text transform="matrix(1 0 0 1 327.8105 462.5771)" display="inline"><tspan x="0" y="0" fill="#777777" font-family="'Nunito-Bold'" font-size="11.132">K</tspan><tspan x="7.637" y="0" fill="#777777" font-family="'Nunito-Bold'" font-size="11.132">a</tspan><tspan x="13.781" y="0" fill="#777777" font-family="'Nunito-Bold'" font-size="11.132">i</tspan><tspan x="16.753" y="0" fill="#777777" font-family="'Nunito-Bold'" font-size="11.132">k</tspan><tspan x="22.798" y="0" fill="#777777" font-family="'Nunito-Bold'" font-size="11.132">o</tspan><tspan x="29.354" y="0" fill="#777777" font-family="'Nunito-Bold'" font-size="11.132">u</tspan><tspan x="35.944" y="0" fill="#777777" font-family="'Nunito-Bold'" font-size="11.132">r</tspan><tspan x="40.52" y="0" fill="#777777" font-family="'Nunito-Bold'" font-size="11.132">a</tspan></text>
		<text transform="matrix(1 0 0 1 306.1641 478.667)" display="inline"><tspan x="0" y="0" fill="#777777" font-family="'Nunito-Bold'" font-size="11.132">H</tspan><tspan x="8.738" y="0" fill="#777777" font-family="'Nunito-Bold'" font-size="11.132">a</tspan><tspan x="14.895" y="0" fill="#777777" font-family="'Nunito-Bold'" font-size="11.132">mn</tspan><tspan x="31.437" y="0" fill="#777777" font-family="'Nunito-Bold'" font-size="11.132">e</tspan><tspan x="37.536" y="0" fill="#777777" font-family="'Nunito-Bold'" font-size="11.132">r </tspan><tspan x="44.816" y="0" fill="#777777" font-family="'Nunito-Bold'" font-size="11.132">S</tspan><tspan x="52.142" y="0" fill="#777777" font-family="'Nunito-Bold'" font-size="11.132">p</tspan><tspan x="59.01" y="0" fill="#777777" font-family="'Nunito-Bold'" font-size="11.132">r</tspan><tspan x="63.574" y="0" fill="#777777" font-family="'Nunito-Bold'" font-size="11.132">in</tspan><tspan x="73.203" y="0" fill="#777777" font-family="'Nunito-Bold'" font-size="11.132">g</tspan><tspan x="80.104" y="0" fill="#777777" font-family="'Nunito-Bold'" font-size="11.132">s</tspan></text>
	</g>
</g>
<g id="Christchurch">
	<text transform="matrix(1 0 0 1 303.3066 516.0703)"><tspan x="0" y="0" fill="#29B99A" font-family="'Nunito-Black'" font-size="16">C</tspan><tspan x="10.863" y="0" fill="#29B99A" font-family="'Nunito-Black'" font-size="16">h</tspan><tspan x="20.607" y="0" fill="#29B99A" font-family="'Nunito-Black'" font-size="16">r</tspan><tspan x="27.488" y="0" fill="#29B99A" font-family="'Nunito-Black'" font-size="16">i</tspan><tspan x="32.08" y="0" fill="#29B99A" font-family="'Nunito-Black'" font-size="16">s</tspan><tspan x="40.127" y="0" fill="#29B99A" font-family="'Nunito-Black'" font-size="16">t</tspan><tspan x="46.688" y="0" fill="#29B99A" font-family="'Nunito-Black'" font-size="16">c</tspan><tspan x="54.863" y="0" fill="#29B99A" font-family="'Nunito-Black'" font-size="16">h</tspan><tspan x="64.575" y="0" fill="#29B99A" font-family="'Nunito-Black'" font-size="16">u</tspan><tspan x="74.223" y="0" fill="#29B99A" font-family="'Nunito-Black'" font-size="16">r</tspan><tspan x="80.991" y="0" fill="#29B99A" font-family="'Nunito-Black'" font-size="16">c</tspan><tspan x="89.167" y="0" fill="#29B99A" font-family="'Nunito-Black'" font-size="16">h</tspan></text>
</g>
<g id="Nth_IslandsRoute">
	<g id="Nth_Island_Names">
		<g id="Nth_Island_Route">
			<path fill="#F16469" d="M362.989,371.686l-2.057-1.368l0.913-1.372l2.057,1.368L362.989,371.686z M361.167,374.432l-2.061-1.368
				l0.912-1.374l2.06,1.368L361.167,374.432z"/>
			<path fill="#F16469" d="M367.657,320.709c0,2.484-2.01,4.496-4.496,4.496s-4.502-2.012-4.502-4.496
				c0-2.486,2.016-4.504,4.502-4.504S367.657,318.223,367.657,320.709"/>
			<path fill="#F16469" d="M347.669,343.508c0,2.486-2.012,4.498-4.496,4.498c-2.486,0-4.504-2.012-4.504-4.498
				s2.018-4.502,4.504-4.502C345.657,339.006,347.669,341.022,347.669,343.508"/>
			<path fill="#F16469" d="M352.248,355.874c0,2.484-2.013,4.497-4.497,4.497c-2.486,0-4.503-2.013-4.503-4.497
				c0-2.488,2.017-4.502,4.503-4.502C350.235,351.372,352.248,353.385,352.248,355.874"/>
			<path fill="#F16469" d="M374.817,350.889c0,2.484-2.013,4.496-4.498,4.496s-4.502-2.012-4.502-4.496
				c0-2.488,2.017-4.504,4.502-4.504S374.817,348.401,374.817,350.889"/>
			<path fill="#F16469" d="M370.317,364.838c0,2.484-2.012,4.496-4.498,4.496c-2.485,0-4.502-2.012-4.502-4.496
				c0-2.485,2.017-4.504,4.502-4.504C368.306,360.334,370.317,362.353,370.317,364.838"/>
			<path fill="#F16469" d="M361.228,378.696c0,2.484-2.013,4.496-4.498,4.496s-4.502-2.012-4.502-4.496
				c0-2.488,2.017-4.504,4.502-4.504S361.228,376.208,361.228,378.696"/>
			<path fill="#F16469" d="M365.624,366.334c-0.229,0-0.46-0.053-0.67-0.158l-17.955-8.963c-0.344-0.172-0.608-0.468-0.739-0.829
				l-4.5-12.365c-0.027-0.074-0.048-0.149-0.062-0.226l-5.335-27.301c-0.125-0.637,0.174-1.282,0.741-1.598
				c0.565-0.316,1.272-0.233,1.749,0.208l15.379,14.221l8.022-9.662c0.365-0.439,0.947-0.635,1.503-0.5
				c0.555,0.132,0.986,0.569,1.113,1.125l6.909,30.263c0.062,0.27,0.048,0.55-0.04,0.812l-4.693,13.95
				c-0.139,0.411-0.448,0.742-0.85,0.908C366.013,366.297,365.818,366.334,365.624,366.334z M348.874,354.796l15.878,7.927
				l4.009-11.916l-6.139-26.89l-7.093,8.542c-0.264,0.316-0.645,0.511-1.056,0.538c-0.409,0.031-0.814-0.115-1.117-0.395
				l-13.17-12.178l4.432,22.68L348.874,354.796z"/>
			<path fill="#F16469" d="M345.808,316.928c0,4.074-3.297,7.369-7.369,7.369c-4.073,0-7.377-3.295-7.377-7.369
				c0-4.076,3.304-7.377,7.377-7.377c1.019,0,1.987,0.206,2.869,0.58C343.953,311.25,345.808,313.871,345.808,316.928"/>
			<path fill="#E7E7E7" d="M342.218,316.926c0,2.09-1.691,3.779-3.78,3.779c-2.092,0-3.786-1.689-3.786-3.779
				c0-2.092,1.694-3.787,3.786-3.787C340.526,313.139,342.218,314.834,342.218,316.926"/>
		</g>
		<g id="Nth_Island_Names_1_" display="none">
			<text transform="matrix(1 0 0 1 369.0107 319.5801)" display="inline"><tspan x="0" y="0" fill="#777777" font-family="'Nunito-Bold'" font-size="11.132">C</tspan><tspan x="7.748" y="0" fill="#777777" font-family="'Nunito-Bold'" font-size="11.132">o</tspan><tspan x="14.315" y="0" fill="#777777" font-family="'Nunito-Bold'" font-size="11.132">r</tspan><tspan x="18.769" y="0" fill="#777777" font-family="'Nunito-Bold'" font-size="11.132">o</tspan><tspan x="25.325" y="0" fill="#777777" font-family="'Nunito-Bold'" font-size="11.132">m</tspan><tspan x="35.166" y="0" fill="#777777" font-family="'Nunito-Bold'" font-size="11.132">a</tspan><tspan x="41.333" y="0" fill="#777777" font-family="'Nunito-Bold'" font-size="11.132">n</tspan><tspan x="48.012" y="0" fill="#777777" font-family="'Nunito-Bold'" font-size="11.132">d</tspan><tspan x="54.857" y="0" fill="#777777" font-family="'Nunito-Bold'" font-size="11.132">e</tspan><tspan x="60.958" y="0" fill="#777777" font-family="'Nunito-Bold'" font-size="11.132">l</tspan></text>
			<text transform="matrix(1 0 0 1 300.292 345.1768)" display="inline"><tspan x="0" y="0" fill="#777777" font-family="'Nunito-Bold'" font-size="11.132">Ra</tspan><tspan x="14.015" y="0" fill="#777777" font-family="'Nunito-Bold'" font-size="11.132">g</tspan><tspan x="20.905" y="0" fill="#777777" font-family="'Nunito-Bold'" font-size="11.132">l</tspan><tspan x="23.867" y="0" fill="#777777" font-family="'Nunito-Bold'" font-size="11.132">a</tspan><tspan x="30.034" y="0" fill="#777777" font-family="'Nunito-Bold'" font-size="11.132">n</tspan></text>
			<text transform="matrix(1 0 0 1 294.3633 362.9385)" display="inline"><tspan x="0" y="0" fill="#777777" font-family="'Nunito-Bold'" font-size="11.132">W</tspan><tspan x="12.167" y="0" fill="#777777" font-family="'Nunito-Bold'" font-size="11.132">a</tspan><tspan x="18.312" y="0" fill="#777777" font-family="'Nunito-Bold'" font-size="11.132">i</tspan><tspan x="21.429" y="0" fill="#777777" font-family="'Nunito-Bold'" font-size="11.132">t</tspan><tspan x="25.659" y="0" fill="#777777" font-family="'Nunito-Bold'" font-size="11.132">om</tspan><tspan x="42.111" y="0" fill="#777777" font-family="'Nunito-Bold'" font-size="11.132">o</tspan></text>
			<text transform="matrix(1 0 0 1 371.8174 367.584)" display="inline"><tspan x="0" y="0" fill="#777777" font-family="'Nunito-Bold'" font-size="11.132">T</tspan><tspan x="6.178" y="0" fill="#777777" font-family="'Nunito-Bold'" font-size="11.132">a</tspan><tspan x="12.323" y="0" fill="#777777" font-family="'Nunito-Bold'" font-size="11.132">u</tspan><tspan x="18.924" y="0" fill="#777777" font-family="'Nunito-Bold'" font-size="11.132">p</tspan><tspan x="25.804" y="0" fill="#777777" font-family="'Nunito-Bold'" font-size="11.132">o</tspan></text>
			<text transform="matrix(1 0 0 1 374.8174 346.3857)" display="inline"><tspan x="0" y="0" fill="#777777" font-family="'Nunito-Bold'" font-size="11.132">R</tspan><tspan x="7.826" y="0" fill="#777777" font-family="'Nunito-Bold'" font-size="11.132">o</tspan><tspan x="14.416" y="0" fill="#777777" font-family="'Nunito-Bold'" font-size="11.132">t</tspan><tspan x="18.646" y="0" fill="#777777" font-family="'Nunito-Bold'" font-size="11.132">o</tspan><tspan x="25.214" y="0" fill="#777777" font-family="'Nunito-Bold'" font-size="11.132">r</tspan><tspan x="29.8" y="0" fill="#777777" font-family="'Nunito-Bold'" font-size="11.132">u</tspan><tspan x="36.356" y="0" fill="#777777" font-family="'Nunito-Bold'" font-size="11.132">a</tspan></text>
			<text transform="matrix(1 0 0 1 331.3115 389.9932)" display="inline"><tspan x="0" y="0" fill="#777777" font-family="'Nunito-Bold'" font-size="11.132">T</tspan><tspan x="6.212" y="0" fill="#777777" font-family="'Nunito-Bold'" font-size="11.132">o</tspan><tspan x="12.769" y="0" fill="#777777" font-family="'Nunito-Bold'" font-size="11.132">n</tspan><tspan x="19.425" y="0" fill="#777777" font-family="'Nunito-Bold'" font-size="11.132">g</tspan><tspan x="26.282" y="0" fill="#777777" font-family="'Nunito-Bold'" font-size="11.132">a</tspan><tspan x="32.438" y="0" fill="#777777" font-family="'Nunito-Bold'" font-size="11.132">r</tspan><tspan x="37.002" y="0" fill="#777777" font-family="'Nunito-Bold'" font-size="11.132">i</tspan><tspan x="39.975" y="0" fill="#777777" font-family="'Nunito-Bold'" font-size="11.132">r</tspan><tspan x="44.427" y="0" fill="#777777" font-family="'Nunito-Bold'" font-size="11.132">o</tspan></text>
		</g>
	</g>
</g>
<g id="Auckland">
	<text transform="matrix(1 0 0 1 255.5845 320.7051)" fill="#29B99A" font-family="'Nunito-Black'" font-size="16">Auckland</text>
</g>
<g id="Layer_14">
</g>
</svg>
