<svg id="Layer_1" data-name="Layer 1" xmlns="http://www.w3.org/2000/svg" viewBox="0 0 238.94 321.86"><defs><style>.cls-1{fill:#e7e7e7;}.cls-2{fill:#f16469;}.cls-3,.cls-4{isolation:isolate;}.cls-4{font-size:16px;fill:#29b99a;font-family:Arial;}</style></defs><title>Wild_Kiwi_NZ_Discovery_Map</title><g id="Map"><path class="cls-1" d="M166.21,190.2l2.35-1,0.74-1,0.53-1.28v-1l-0.64-1.28-1,.32s-4,2.13-4.15,2.35a3.42,3.42,0,0,1-1.49-.11l-1.07-.85,0.75-1.92,1.81-1.49v-1.49l-0.53.32-1.6,1.92-0.74.11,0.64-.64,0.75-2.24,0.21-.75,0.74-1.39,0.53-1.39-0.53-.43-1,.32L161.1,179l0.53,2-1.17,2.56-0.85,1-0.75,1.39-2.66.32-1,1.39-1.81.85-1.6,2.24a7.35,7.35,0,0,1-2.13,1.39,2.74,2.74,0,0,1-1.28-.64V190.1l-1.7-1.6v-1.38l-0.53-1.6,0.53-1.28v-3.52l-0.85-1.92-1.49-.11-0.85.21-1.28-.53-0.74-.21-1-.43-0.64-1.06L140,175.5l0.75-1.7,1.49-2.24h-3.09l-2.66,1.39-2.35,1.81-3,3.41-1.49,1.6-1.06,1.81v8.74l-1.49,4.48-1.6,2.56-2,2.66L122,201.5l-5.75,1.81-0.53,2.13-1.81,5.43-1.28,4.47-1.49,2.88-0.64,3.41-1,2.56-1.7,2.45-2,2.66-2.45,3.09-1.7,2.24-2.45,1.49-3,1L93.33,239l-1.49,1-3.73,3.84a7,7,0,0,1-1.28,1.71c-0.43.21-4.15,1.92-4.15,1.92l-3.84,4.69L76,253.18l-4.17,3.09-3.08,2.23-2.45,2.88-3.62,1H60.83a23.83,23.83,0,0,0-3.2,1.39,2.68,2.68,0,0,1-1.6,0l-1.38,1.07-0.85.85-1.28,1.92L51,268.84v1.39l-0.75,1.71-1.6.53L47,274.39l-0.53,3.2-2,1.28-1.6,1.06-0.85.85-1.49,1.6s-2.35,2.45-2.77,2.77-1.28,1.07-1.6,1.28-1.6,1.6-1.92,1.92-1,1.28-1.38,1.71a13.65,13.65,0,0,0-1.28,2.24l-2.13,1.6-2.13,1.17v2.45H26.41L24.6,299l-1,1.92-0.32,2.66-1,2.66-0.75-.1a1.34,1.34,0,0,0-.85,0l-1.17,1.6-1,1.28h1.49l0.75,1.49-0.64,1.28h-1l-0.64.53v2.35a8.34,8.34,0,0,0,.85,1.92v1.17h1.28v0.32a4.48,4.48,0,0,1-.75,1.28l2.45,1,2.13-1.49v1.28l-2.13,1.7-0.21,1.81L25,324.25l1.81-.11,0.85-.1,2.24,0.1,0.32,0.75,2.66,0.21,1.28-.1,1.81-.85,0.43-1,1.07-1.49h4.69L43,322.12a19.55,19.55,0,0,1,.64,2.45,0.55,0.55,0,0,0,.21.53l0.1,1.6,2.24,1.17,1.7-.53,1.71-.43,2.45,0.53,1.6,0.43,1.6,1.7,0.21,1.07L54.86,332v1.38l1.07,1.07,3.09-.11,1.6-1.17,1.6-.42,1.6,0.42,0.32,1,0.53,1.28-0.21.85h7.88l2.56-1.6,1-.74a3.34,3.34,0,0,0,1.81,0,20.56,20.56,0,0,0,2-1.07c1-.64,0,0,0.32-0.74s0,0,.21-0.32,1.7-.21,3.52-0.85,0,0,0-.32-1-1.49-1-2a6.92,6.92,0,0,1,1.07-2l1.7-1.07a7.32,7.32,0,0,0,1.81-1.39,6.84,6.84,0,0,1,1.28-1.28l1.7-1.07,1.07-1.17-0.11-1.07,0.32-.75,1.6-1.39,1-.42,3.36-1,2.13-.85,2.34-1s-0.21-1.28-.32-1.6a4,4,0,0,0-.21-0.53l-1-1.17s-1.38-.53-1.7-0.64,0.53-1.71.53-1.71l1.28-1.28L102,305.4l0.75-1.49,1.49-3.3,0.11-1.92v-2.45l1.38-2.13,0.64-2.24,1-.75,1.81-1.17,0.64-1,0.32-3s-0.32-3.73-.32-4a10.94,10.94,0,0,1,.53-1.7l0.43-1.81,1.17-3.94,2-4.79,1.81-2s3.09-2.13,3.41-2.45,3.84-2.24,3.84-2.24l3.84-1.6,2-1.38,2.35-1.5H135l2.45-1,1-.43,1.28,0.43,1.28,1,1.28,1.07L143.3,260l1.71,0.21,0.74-1.07,2.34-2.77L147.45,255l-1-1.06-1.39-.53-0.74-.21-1.17-1-1.6-.32-1.28-1.17-0.53-3.09V245.3l0.11-1.07,0.32-2.66,0.75-.64a32.84,32.84,0,0,0,3.52-2.34,39,39,0,0,1,3.84-2.56s2.56-2.13,2.88-2.34l1.17-.74,1.17-1.39,0.74-3,1.28-3.3,3.09-4.05,1.28-1.81,1.6-2,2.45-2.66,0.32-1.92,1.49-2.66,1.81-2.77,2.24-3.52v-1.7l-0.64-.64L168.87,200l0.11-1L168.44,198l-0.53-.64-0.11-.64-0.85-.64-0.43-1v-0.53l1.17-.74,2.13-1.6v-1.6l-0.85-.32-1.71,1.6-1.7.21a10.07,10.07,0,0,1,.11-1.49,0.45,0.45,0,0,1,.54-0.43" transform="translate(-18.63 -14.44)"/><path class="cls-1" d="M161.52,137.46s1.1,5.92,4.6,6.58a38.13,38.13,0,0,1,7.68,2.63l2.41,3.07,1.75,1.1h3.51l2.41,1.32,1.32,1.32h1.32l2.85,3.07v1.75l1.1,2.41v12.5l-2.63,3.07s-2,.88-2,1.76-1.53,3.51-1.53,3.51a12.81,12.81,0,0,1-1.76,2.19c-1.1,1.1-2.63,2.41-2.63,2.41l-1.54,3.29,1.32,1.89h2.41l1.76-2.11,0.88,2.11s0,1.62.88,1.4a6.43,6.43,0,0,0,2-1.14,0.64,0.64,0,0,1,1.09,0l0.66,0.7s1.32-1.28,1.1.46a12,12,0,0,0,0,2.83l0,0.66a1.31,1.31,0,0,0,1.1,1.1h3.29l5.48-3.73,2.63-2.28,3.07-3.43,2.19-3.95,1.1-2.19L212,178V174.3l3.29-4.17,2.63-1.31,1.1-1.42,1.1-4.72,1.54-.88,1.54-1.76,2-4.82,2-3.95,1.1-2.85v-1.31l-1.76-1.1-1.32-2.19-1.1-2.41v-3.95l2.19-2.41,3.73-1.53,2.63-1.54,3.51-1.54h6.8v4.39l2.19,0.88v-1.32l1.76-2v-2l-1.54-1.75-0.88-2.41v-1.54l0.88-1.53,1.54-1.32h1.75l1.32-2.41s2-1.32,2.19-2,1-3.29,1-3.29-1-.55-0.22-1.21,0.33-4.71.33-4.71a6.67,6.67,0,0,1,0-2.12,7.61,7.61,0,0,0,0-2.26l0.1-1.76,3-3.29V97.55l1.32-1.76-2-1.75h-1.54l-1.32-1.53-1.32-1.32h-4.6l-3.07,2.63-3,2.3-1.42,3.18-1.54,1.54-1.21,1.54-2.19.88-2.08.44H230.6l-3.51-.44-5.7-2-3.29-1.53-1.54-1.54-2.85-1.32-1.1-.55-1.32-.77a9.49,9.49,0,0,1-2.52-1.65c-0.44-.66-1.32-0.66-1.32-1.32s-1.2-1.86-1.2-2.52a11.74,11.74,0,0,0-1.32-2.85L203.41,82l0.66-3.51-0.66-2.85-2-2.41,1.1-1.1L202.1,70.8l-3.51,1.31-0.44-1.31-0.33-2-1.32-2.08-2.08-1.21h-2L194,67.72l2,5.7L195.3,75l0.88,1.75L196,79.57l0.88,2L196,83.73l-1.54,1.32-1.54-1.75V81.54l-0.44-2-1.32-2.19-2.85-.44-2.63-.66L185,75.18l-2.85-1.1-0.22-1.54V71l0.22-1.1,0.22-2.19-0.44-2.19-0.66-2,3.29-1.32,0.44-1.1L182.36,59h-2l-1.1-2.63L178,53.69l-1.32-1.31-0.44-1.75,0.88-1.32,0.66-2.85-0.66-3.29L176,41.63l-1.1-1.32L174,39l-0.44-2.41L174,34h-1.1l-2.41,1.1-1.54.66h-1.32L167,34l0.88-1.86-1.32-.22-1.42-.77-1.43-1.76h-3.95s-1.32,1.54-1.32,0V26.94l-2,1.1s-2.19,1.1-2.19.44a14.14,14.14,0,0,1,1.31-3.07h-3.95v2s-3.29-3.73-3.29-4.39,0.88-2.19,0-2.85a11.2,11.2,0,0,1-2-3.07V14.44h-3.11l-1.05,1.32-1.93.46,3,2.61v2.85L146,24.53l2.19,2.41,2,2.41L150.56,32l-2.41,1.1L149,34.83,151.44,37,152.76,41l1.31,0.88,1.32,3.07,1.54,1.75,1.75,2.19,1.54,1.32,1.32,1.53,3.95,5.48,1.1,2.19L169,64.87l1.54,1.86,1,1.2,0.88,1.54,2,2.85,0.66,3,1.2,3.95L177.86,82l1.54,2.3,1,3.62,0.33,2.3c1.54,1.75,2.19,6.25,2.19,6.25l-0.77,3.73,0.66,4.61,0.44,1.38-3,.81,0.33,2.41-0.11,2-1.32,2.08v2.19l-0.11,2.19-1.31,2.74-2,1.1,0.66,2.85,0.22,1.32-0.22,1.2-1.1.88-3.62,1-1.65.33a11.17,11.17,0,0,0-2.85.77c-0.66.44-3.95,0.66-4.39,1.32s-2.85,1.54-2.85,1.54l0.88,2.19Z" transform="translate(-18.63 -14.44)"/></g><g id="Airplane"><path class="cls-1" d="M136.44,246.44l2.13-2.11,1.41,1.4-2.11,2.14Zm5,0.69,1.44,1.4-2.09,2.15-1.44-1.4Zm-7.79-3.59,2.18-2.06,1.38,1.43L135,245Zm-2.75-3,2.22-2,1.35,1.47-2.2,2Zm-2.68-3,2.27-2,1.31,1.5-2.25,2Zm-2.6-3.11,2.33-1.89,1.27,1.54-2.3,1.92Zm-2.52-3.18,2.38-1.83q0.6,0.78,1.22,1.56l-2.35,1.87ZM120.63,228l2.42-1.77q0.58,0.8,1.18,1.6l-2.4,1.8C121.43,229.08,121,228.53,120.63,228Zm-2.34-3.31,2.47-1.7q0.56,0.82,1.14,1.63l-2.45,1.74ZM116,221.3l2.52-1.62,1.09,1.66-2.5,1.66Zm-2.15-3.45,2.57-1.55c0.34,0.57.69,1.13,1,1.7l-2.55,1.59Zm-2-3.51,2.62-1.46q0.48,0.86,1,1.72l-2.6,1.51C112.51,215.51,112.18,214.92,111.85,214.33Zm-1.93-3.58,2.67-1.38c0.3,0.58.61,1.17,0.92,1.75l-2.64,1.42Zm-1.81-3.64,2.71-1.29q0.42,0.89.87,1.78L109,208.95Q108.55,208,108.11,207.12Zm-1.69-3.7,2.75-1.2c0.26,0.6.53,1.2,0.81,1.81l-2.73,1.24Zm-1.55-3.76,2.79-1.09q0.36,0.92.74,1.84l-2.77,1.14C105.38,200.92,105.12,200.29,104.88,199.65Zm-1.42-3.81,2.83-1q0.33,0.93.67,1.86l-2.81,1Q103.79,196.8,103.46,195.84ZM102.18,192l2.87-.88c0.19,0.63.39,1.26,0.6,1.89l-2.85.94Q102.48,192.94,102.18,192Zm-1.12-3.91,2.9-.77q0.25,1,.53,1.9l-2.88.83C101.41,189.37,101.23,188.71,101.06,188.06Zm-1-4,2.93-.66c0.14,0.64.3,1.28,0.45,1.93l-2.91.71C100.39,185.43,100.23,184.77,100.09,184.1Zm-0.81-4,3-.54q0.18,1,.37,1.94l-2.94.59C99.53,181.44,99.4,180.77,99.28,180.11Zm-0.64-4,3-.42q0.14,1,.29,2l-3,.47C98.83,177.42,98.73,176.76,98.64,176.08ZM98.17,172l3-.28c0.06,0.65.13,1.31,0.21,2l-3,.35C98.3,173.38,98.23,172.7,98.17,172ZM97.87,168l3-.15q0.05,1,.12,2L98,170C97.95,169.32,97.91,168.64,97.87,168Zm-0.11-4.08,3,0q0,1,0,2l-3,.08C97.77,165.24,97.76,164.56,97.76,163.88Zm0.07-4.08,3,0.12c0,0.66,0,1.32-.06,2l-3-.06Q97.79,160.81,97.83,159.8Zm13.09-42.46,2.55,1.58q-0.52.84-1,1.69l-2.58-1.53Q110.38,118.2,110.92,117.33Zm2.23-3.42,2.48,1.7q-0.56.82-1.1,1.64L112,115.61Q112.57,114.76,113.15,113.92Zm2.38-3.32,2.4,1.8q-0.59.79-1.17,1.59l-2.44-1.75Q114.92,111.42,115.53,110.6Zm2.52-3.21,2.32,1.9q-0.63.77-1.24,1.54L116.77,109Q117.4,108.18,118.05,107.39Zm2.66-3.09,2.24,2q-0.66.74-1.3,1.49l-2.28-2Q120,105.06,120.71,104.3Zm2.78-3,2.15,2.09-1.36,1.43-2.2-2Q122.77,102,123.49,101.32Zm1.43-1.45,1.45-1.42,2.08,2.16L127,102Zm2.94-2.82,1.51-1.37,2,2.24-1.46,1.33Zm3-2.71L132.44,93l1.92,2.31-1.51,1.28Zm3.13-2.6,1.6-1.26,1.83,2.38-1.56,1.22Zm3.22-2.48,1.65-1.2,1.74,2.45L139,91.68Zm3.31-2.36,1.69-1.14,1.65,2.51-1.64,1.1Zm3.4-2.24,1.73-1.07,1.55,2.57-1.68,1Zm3.48-2.11,1.77-1,1.45,2.63-1.72,1Zm3.56-2,1.81-.94,1.35,2.68-1.76.91Zm3.63-1.84,1.85-.87,1.25,2.73-1.79.84Zm3.7-1.7,1.88-.79L161.37,79l-1.82.77Zm3.77-1.55,1.91-.72,1,2.82-1.85.7Zm3.83-1.4,1.94-.64,0.92,2.86-1.87.63Zm3.88-1.25,2-.57,0.81,2.89-1.9.55Zm3.93-1.09,2-.49,0.69,2.92-1.92.47Zm4-.93,2-.4,0.56,2.95-1.94.39Z" transform="translate(-18.63 -14.44)"/><path class="cls-1" d="M102.18,153s-1.77,3.38-3.34,3.08h0l-0.11,0h0c-1.46-.63-1-4.42-1-4.42,0-1.94,1.8-7.33,1.8-7.33L98.33,143l-0.27.77c-0.22.71-.54,0.48-0.54,0.48l-1.63-.49a0.62,0.62,0,0,1-.31-0.73l0.68-2.11-1.6-1.82-0.2.82c-0.16.5-.44,0.41-0.44,0.41l-1.83-.56a0.44,0.44,0,0,1-.34-0.58l0.7-2.2-4.85-5.23,0.36-1.27,11.28,6.24,2.52,0.77c0.52-2.11,3.59-9.15,3.59-9.15l-4.72-4.77,0.5-1.83,5.8,3.42a11.33,11.33,0,0,1,2.26-3.39l0,0.14,0-.14a11.33,11.33,0,0,1,0,4.08l6.72,0.42-0.61,1.8-6.59,1.3s-1.41,7.56-2.16,9.59l2.52,0.77L122,140.85l-0.41,1.26-7,1.61L114,145.94a0.44,0.44,0,0,1-.61.28l-1.83-.56s-0.29-.09-0.13-0.59l0.29-.79-2.35.61L108.72,147a0.62,0.62,0,0,1-.67.43l-1.63-.5s-0.39,0-.17-0.69l0.21-.79-1.67.45s-1.57,5.45-2.61,7.09" transform="translate(-18.63 -14.44)"/></g><g id="Sth_Island_Bot_Route" data-name="Sth Island Bot Route"><g id="Sth_Island_Bot_Route-2" data-name="Sth Island Bot Route"><path class="cls-2" d="M96.58,243.77a4.5,4.5,0,1,1-4.5-4.5,4.5,4.5,0,0,1,4.5,4.5" transform="translate(-18.63 -14.44)"/><path class="cls-2" d="M99.37,255.44a4.5,4.5,0,1,1-4.5-4.5,4.5,4.5,0,0,1,4.5,4.5" transform="translate(-18.63 -14.44)"/><path class="cls-2" d="M74.66,286.42a4.5,4.5,0,1,1-4.5-4.5,4.49,4.49,0,0,1,4.5,4.5" transform="translate(-18.63 -14.44)"/><path class="cls-2" d="M60.28,279.73a4.5,4.5,0,1,1-4.5-4.5,4.5,4.5,0,0,1,4.5,4.5" transform="translate(-18.63 -14.44)"/><path class="cls-2" d="M148.73,250.09a7.37,7.37,0,1,1-7.37-7.38,7.36,7.36,0,0,1,7.37,7.38" transform="translate(-18.63 -14.44)"/><path class="cls-2" d="M70.16,287.91a1.5,1.5,0,0,1-1.5-1.39l-1.79-25.14a1.5,1.5,0,0,1,.6-1.31l23.71-17.5a1.5,1.5,0,0,1,1.08-.28l49.42,6.31a1.5,1.5,0,0,1,0,3l-46,5.61L71.32,287.36A1.5,1.5,0,0,1,70.16,287.91ZM69.93,262l1.46,20.52L93.7,254.83a1.5,1.5,0,0,1,1-.55L129.39,250l-36.9-4.71Z" transform="translate(-18.63 -14.44)"/><path class="cls-1" d="M145.14,250.08a3.78,3.78,0,1,1-3.78-3.79,3.78,3.78,0,0,1,3.78,3.79" transform="translate(-18.63 -14.44)"/><path class="cls-2" d="M63.27,284.66l1-2.24,1.5,0.69-1,2.24Zm-3-1.38,1-2.24,1.5,0.69-1,2.24Z" transform="translate(-18.63 -14.44)"/></g></g><g id="Sth_Island_Top_Route" data-name="Sth Island Top Route"><g id="Sth_Island_Top_Route-2" data-name="Sth Island Top Route"><path class="cls-2" d="M113.47,224.82a4.5,4.5,0,1,1-4.5-4.5,4.49,4.49,0,0,1,4.5,4.5" transform="translate(-18.63 -14.44)"/><path class="cls-2" d="M146.64,220.93a4.5,4.5,0,1,1-4.5-4.5,4.5,4.5,0,0,1,4.5,4.5" transform="translate(-18.63 -14.44)"/><path class="cls-2" d="M166.24,219.76a4.5,4.5,0,1,1-4.5-4.5,4.5,4.5,0,0,1,4.5,4.5" transform="translate(-18.63 -14.44)"/><path class="cls-2" d="M152,185.07a4.5,4.5,0,1,1-4.5-4.5,4.5,4.5,0,0,1,4.5,4.5" transform="translate(-18.63 -14.44)"/><path class="cls-2" d="M124.77,203.58a4.5,4.5,0,1,1-4.5-4.5,4.5,4.5,0,0,1,4.5,4.5" transform="translate(-18.63 -14.44)"/><path class="cls-2" d="M141.5,251.58a1.49,1.49,0,0,1-.9-0.3l-32.91-24.71a1.5,1.5,0,0,1-.43-1.89l11.26-21.79a1.5,1.5,0,0,1,.5-0.56l27.65-18.51a1.5,1.5,0,0,1,2.33,1.25V192h18.31a1.5,1.5,0,0,1,1.47,1.81l-5.57,26.3a1.5,1.5,0,0,1-1.38,1.19l-18.23,1.09L143,250.12A1.5,1.5,0,0,1,141.5,251.58Zm-31-26.65,29.56,22.2,0.57-26.23a1.5,1.5,0,0,1,1.41-1.46l18.46-1.1L165.46,195h-18a1.5,1.5,0,0,1-1.5-1.5v-5.58l-25,16.73Z" transform="translate(-18.63 -14.44)"/><path class="cls-2" d="M148.73,250.09a7.37,7.37,0,1,1-7.37-7.38,7.36,7.36,0,0,1,7.37,7.38" transform="translate(-18.63 -14.44)"/><path class="cls-1" d="M145.14,250.09a3.78,3.78,0,1,1-3.78-3.79,3.78,3.78,0,0,1,3.78,3.79" transform="translate(-18.63 -14.44)"/></g></g><g id="Christchurch"><g class="cls-3"><text class="cls-4" transform="translate(124.67 256.63)">C</text><text class="cls-4" transform="translate(135.54 256.63)">h</text><text class="cls-4" transform="translate(145.28 256.63)">r</text><text class="cls-4" transform="translate(152.16 256.63)">i</text><text class="cls-4" transform="translate(156.75 256.63)">s</text><text class="cls-4" transform="translate(164.8 256.63)">t</text><text class="cls-4" transform="translate(171.36 256.63)">c</text><text class="cls-4" transform="translate(179.54 256.63)">h</text><text class="cls-4" transform="translate(189.25 256.63)">u</text><text class="cls-4" transform="translate(198.9 256.63)">r</text><text class="cls-4" transform="translate(205.67 256.63)">c</text><text class="cls-4" transform="translate(213.84 256.63)">h</text></g></g><g id="Nth_IslandsRoute" data-name="Nth IslandsRoute"><g id="Nth_Island_Names" data-name="Nth Island Names"><g id="Nth_Island_Route" data-name="Nth Island Route"><path class="cls-2" d="M203,126.69l-2.06-1.37,0.91-1.37,2.06,1.37Zm-1.82,2.75-2.06-1.37,0.91-1.37,2.06,1.37Z" transform="translate(-18.63 -14.44)"/><path class="cls-2" d="M207.66,75.71a4.5,4.5,0,1,1-4.5-4.5,4.49,4.49,0,0,1,4.5,4.5" transform="translate(-18.63 -14.44)"/><path class="cls-2" d="M187.67,98.51a4.5,4.5,0,1,1-4.5-4.5,4.5,4.5,0,0,1,4.5,4.5" transform="translate(-18.63 -14.44)"/><path class="cls-2" d="M192.25,110.87a4.5,4.5,0,1,1-4.5-4.5,4.5,4.5,0,0,1,4.5,4.5" transform="translate(-18.63 -14.44)"/><path class="cls-2" d="M214.82,105.89a4.5,4.5,0,1,1-4.5-4.5,4.5,4.5,0,0,1,4.5,4.5" transform="translate(-18.63 -14.44)"/><path class="cls-2" d="M210.32,119.84a4.5,4.5,0,1,1-4.5-4.5,4.5,4.5,0,0,1,4.5,4.5" transform="translate(-18.63 -14.44)"/><path class="cls-2" d="M201.23,133.7a4.5,4.5,0,1,1-4.5-4.5,4.5,4.5,0,0,1,4.5,4.5" transform="translate(-18.63 -14.44)"/><path class="cls-2" d="M205.62,121.33a1.5,1.5,0,0,1-.67-0.16l-18-9a1.5,1.5,0,0,1-.74-0.83L181.76,99a1.38,1.38,0,0,1-.06-0.23l-5.33-27.3a1.5,1.5,0,0,1,2.49-1.39l15.38,14.22,8-9.66a1.5,1.5,0,0,1,2.62.63l6.91,30.26a1.49,1.49,0,0,1,0,.81l-4.69,14a1.5,1.5,0,0,1-.85.91A1.46,1.46,0,0,1,205.62,121.33ZM188.87,109.8l15.88,7.93,4-11.92-6.14-26.89-7.09,8.54a1.5,1.5,0,0,1-1.06.54,1.49,1.49,0,0,1-1.12-.39L180.19,75.42l4.43,22.68Z" transform="translate(-18.63 -14.44)"/><path class="cls-2" d="M185.81,71.93a7.36,7.36,0,1,1-4.5-6.8,7.36,7.36,0,0,1,4.5,6.8" transform="translate(-18.63 -14.44)"/><path class="cls-1" d="M182.22,71.93a3.78,3.78,0,1,1-3.78-3.79,3.78,3.78,0,0,1,3.78,3.79" transform="translate(-18.63 -14.44)"/></g></g></g><g id="Auckland"><text class="cls-4" transform="translate(76.95 61.27)">Auckland</text></g></svg>