<?xml version="1.0" encoding="utf-8"?>
<!-- Generator: Adobe Illustrator 19.2.1, SVG Export Plug-In . SVG Version: 6.00 Build 0)  -->
<svg version="1.1" id="Layer_1" xmlns="http://www.w3.org/2000/svg" xmlns:xlink="http://www.w3.org/1999/xlink" x="0px" y="0px"
	 viewBox="0 0 227 289" style="enable-background:new 0 0 227 289;" xml:space="preserve">
<style type="text/css">
	.st0{fill:#E7E7E7;}
	.st1{display:none;}
	.st2{display:inline;}
	.st3{fill:#F16469;}
	.st4{display:inline;fill:#F16469;}
	.st5{display:inline;fill:#E7E7E7;}
	.st6{display:inline;fill:#777777;}
	.st7{font-family:'ArialMT';}
	.st8{font-size:11.132px;}
	.st9{fill:#777777;}
	.st10{font-size:9.3987px;}
	.st11{fill:#29B99A;}
	.st12{font-size:13.5088px;}
</style>
<g id="Map">
	<path class="st0" d="M134.7,157.6l2-0.8l0.6-0.8l0.4-1.1v-0.8l-0.5-1.1l-0.8,0.3c0,0-3.4,1.8-3.5,2s-1.3-0.1-1.3-0.1l-0.9-0.7
		l0.6-1.6l1.5-1.3v-1.3l-0.4,0.3l-1.4,1.6l-0.6,0.1l0.5-0.5l0.6-1.9l0.2-0.6l0.6-1.2l0.4-1.2l-0.4-0.4l-0.8,0.3l-1.3,1.4l0.4,1.7
		l-1,2.2l-0.7,0.8l-0.6,1.2l-2.2,0.3l-0.8,1.2l-1.5,0.7l-1.4,1.9c0,0-1.4,1.2-1.8,1.2s-1.1-0.5-1.1-0.5v-1.2l-1.4-1.4v-0.7V155
		l-0.4-1.3l0.4-1.1v-1V151v-0.7v-0.6l-0.7-1.6l-1.3-0.1l-0.7,0.2l-1.1-0.4l-0.6-0.2l-0.8-0.4l-0.5-0.9l0.1-1l0.6-1.4l1.3-1.9H114
		h-2.2l-2.2,1.2l-2,1.5l-2.5,2.9l-1.3,1.4l-0.9,1.5v3.3v4l-1.3,3.8l-1.4,2.2l-1.7,2.2l-1.3,1.3l-4.9,1.5l-0.4,1.8l-1.5,4.6l-1.1,3.8
		l-1.3,2.4l-0.5,2.9l-0.8,2.2l-1.4,2.1l-1.7,2.2l-2.1,2.6l-1.4,1.9l-2.1,1.3l-2.5,0.8l-2.4,1.6l-1.3,0.8l-3.1,3.2
		c0,0-0.7,1.3-1.1,1.4c-0.4,0.2-3.5,1.6-3.5,1.6l-3.2,4l-2.4,0.9l-3.5,2.6l-2.6,1.9l-2.1,2.4l-3.1,0.8h-1.5c0,0-2.4,0.9-2.7,1.2
		s-1.4,0-1.4,0l-1.2,0.9l-0.7,0.7l-1.1,1.6l-1.3,1.1v1.2l-0.6,1.4l-1.3,0.4l-1.4,1.6l-0.5,2.7l-1.7,1.1l-1.3,0.9l-0.7,0.7l-1.3,1.4
		c0,0-2,2.1-2.3,2.3c-0.4,0.3-1.1,0.9-1.3,1.1c-0.3,0.2-1.3,1.4-1.6,1.6c-0.3,0.3-0.8,1.1-1.2,1.4s-1.1,1.9-1.1,1.9l-1.8,1.4l-1.8,1
		v2.1h-0.7l-1.5,1.3l-0.8,1.6l-0.3,2.3l-0.8,2.2l-0.6-0.1c-0.6-0.1-0.7,0-0.7,0l-1,1.3l-0.8,1.1h1.3l0.6,1.3l-0.5,1.1h-0.8l-0.5,0.4
		v2c0,0.4,0.7,1.6,0.7,1.6v1h1.1v0.3c0,0.3-0.6,1.1-0.6,1.1l2.1,0.8l1.8-1.3v1.1l-1.8,1.4l-0.2,1.5l2.3,0.5l1.5-0.1l0.7-0.1l1.9,0.1
		l0.3,0.6l2.3,0.2l1.1-0.1l1.5-0.7l0.4-0.8l0.9-1.3h2h2L31,269c0,0,0.5,1.7,0.5,2.1s0.2,0.5,0.2,0.5l0.1,1.3l1.9,1l1.4-0.4l1.4-0.4
		l2.1,0.4l1.4,0.4l1.3,1.4l0.2,0.9l-0.5,1.2v1.2l0.9,0.9l2.6-0.1l1.4-1l1.3-0.4l1.4,0.4l0.3,0.8l0.4,1.1l-0.2,0.7h1.6H52h3.5
		l2.2-1.4l0.8-0.6c0,0,1.1,0.3,1.5,0s0.9-0.4,1.7-0.9s0,0,0.3-0.6s0,0,0.2-0.3s1.4-0.2,3-0.7c1.5-0.5,0,0,0-0.3s-0.8-1.3-0.8-1.7
		c0-0.4,0.9-1.7,0.9-1.7l1.4-0.9c0,0,1.3-0.7,1.5-1.2c0.3-0.5,1.1-1.1,1.1-1.1l1.4-0.9l0.9-1l-0.1-0.9l0.3-0.6l1.4-1.2l0.9-0.4
		l2.8-0.8l1.8-0.7l2-0.8c0,0-0.2-1.1-0.3-1.3c-0.1-0.3-0.2-0.4-0.2-0.4l-0.8-1c0,0-1.2-0.5-1.4-0.5c-0.3-0.1,0.5-1.4,0.5-1.4
		l1.1-1.1l1.1-1.6l0.6-1.3l1.3-2.8l0.1-1.6v-2.1l1.2-1.8l0.5-1.9l0.8-0.6l1.5-1l0.5-0.8l0.3-2.5c0,0-0.3-3.1-0.3-3.4
		c0-0.3,0.4-1.4,0.4-1.4l0.4-1.5l1-3.3l1.7-4l1.5-1.7c0,0,2.6-1.8,2.9-2.1s3.2-1.9,3.2-1.9l3.2-1.4l1.7-1.2l2-1.3h1.3h2l2.1-0.8
		l0.8-0.4l1.1,0.4l1.1,0.8l1.1,0.9l0.9,0.4l1.4,0.2l0.6-0.9l2-2.3l-0.5-1.2l-0.8-0.9l-1.2-0.5l-0.6-0.2l-1-0.8l-1.4-0.3l-1.1-1
		l-0.4-2.6v-2l0.1-0.9l0.3-2.2l0.6-0.5c0,0,2.4-1.4,3-2c0.5-0.5,3.2-2.2,3.2-2.2s2.2-1.8,2.4-2c0.3-0.2,1-0.6,1-0.6l1-1.2l0.6-2.5
		l1.1-2.8l2.6-3.4l1.1-1.5l1.4-1.7l2.1-2.2l0.3-1.6l1.3-2.2l1.5-2.3l1.9-3v-0.5V168l-0.5-0.5l-0.3-1.3l0.1-0.8l-0.5-0.9l-0.4-0.5
		l-0.1-0.5l-0.7-0.5l-0.4-0.8v-0.4l1-0.6l1.8-1.4V158l-0.7-0.3l-1.4,1.4l-1.4,0.2c0,0,0-0.8,0.1-1.3
		C134.4,157.5,134.7,157.6,134.7,157.6"/>
	<path class="st0" d="M130.8,113.1c0,0,0.9,5,3.9,5.6c3,0.6,6.5,2.2,6.5,2.2l2,2.6l1.5,0.9h1.7h1.3l2,1.1l1.1,1.1h1.1l2.4,2.6v1.5
		l0.9,2v1.9v1.9v3.2v3.5l-2.2,2.6c0,0-1.7,0.7-1.7,1.5s-1.3,3-1.3,3s-0.6,0.9-1.5,1.9c-0.9,0.9-2.2,2-2.2,2L145,157l1.1,1.6h2
		l1.5-1.8l0.7,1.8c0,0,0,1.4,0.7,1.2s1.7-1,1.7-1s0.4-0.6,0.9,0l0.6,0.6c0,0,1.1-1.1,0.9,0.4c-0.2,1.5,0,1.8,0,2.4v0.6
		c0,0,0.2,0.9,0.9,0.9h2.8l4.6-3.1l2.2-1.9l2.6-2.9l1.9-3.3l0.9-1.9l2.2-3.1v-3.1l2.8-3.5l2.2-1.1l0.9-1.2l0.9-4l1.3-0.7l1.3-1.5
		l1.7-4.1l1.7-3.3l0.9-2.4v-1.1l-1.5-0.9l-1.1-1.9l-0.9-2v-1.9v-1.5l1.9-2l3.1-1.3l2.2-1.3l3-1.3h4.4h1.3v1.7v2l1.9,0.7v-1.1
		l1.5-1.7v-1.7l-1.3-1.5l-0.7-2v-1.3l0.7-1.3l1.3-1.1h1.5l1.1-2c0,0,1.7-1.1,1.9-1.7s0.8-2.8,0.8-2.8s-0.8-0.5-0.2-1
		c0.7-0.6,0.3-4,0.3-4s-0.2-1.4,0-1.8s0-1.9,0-1.9l0.1-1.5l2.5-2.8v-1.1l1.1-1.5l-1.7-1.5h-1.3l-1.1-1.3l-1.1-1.1h-3.9l-2.6,2.2
		l-2.5,1.9l-1.2,2.7l-1.3,1.3l-1,1.3l-1.9,0.7l-1.8,0.4h-1.5l-3-0.4l-4.8-1.7l-2.8-1.3l-1.3-1.3l-2.4-1.1l-0.9-0.5l-1.1-0.6
		c0,0-1.8-0.8-2.1-1.4c-0.4-0.6-1.1-0.6-1.1-1.1s-1-1.6-1-2.1c0-0.6-1.1-2.4-1.1-2.4l-1.3-4.4l0.6-3l-0.6-2.4l-1.7-2l0.9-0.9
		l-0.4-1.1l-3,1.1l-0.4-1.1l-0.3-1.7l-1.1-1.8l-1.8-1h-1.7l1.3,1.9l1.7,4.8l-0.6,1.3l0.7,1.5l-0.2,2.4l0.7,1.7l-0.7,1.8l-1.3,1.1
		l-1.3-1.5v-1.5l-0.4-1.7l-1.1-1.9l-2.4-0.4l-2.2-0.6l-0.6-0.9l-2.4-0.9l-0.2-1.3V57l0.2-0.9l0.2-1.9l-0.4-1.9l-0.6-1.7l2.8-1.1
		l0.4-0.9l-2.2-1.9h-1.7l-0.9-2.2l-1.1-2.2l-1.1-1.1l-0.4-1.5l0.7-1.1l0.6-2.4l-0.6-2.8l-0.9-1.3l-0.9-1.1l-0.7-1.1l-0.4-2l0.4-2.2
		H140l-2,0.9l-1.3,0.6H136l-0.6-1.5l0.7-1.6l-1.1-0.2l-1.2-0.6l-1.2-1.5h-1.9h-1.5c0,0-1.1,1.3-1.1,0v-2l-1.7,0.9
		c0,0-1.9,0.9-1.9,0.4s1.1-2.6,1.1-2.6h-1.1h-2.2v1.7c0,0-2.8-3.1-2.8-3.7s0.7-1.9,0-2.4c-0.7-0.6-1.7-2.6-1.7-2.6V9.3h-2.6
		l-0.9,1.1l-1.6,0.4l2.5,2.2v2.4l2.3,2.4l1.9,2l1.7,2l0.4,2.2l-2,0.9l0.7,1.5l2,1.9l1.1,3.3l1.1,0.7l1.1,2.6l1.3,1.5l1.5,1.9
		l1.3,1.1l1.1,1.3l3.3,4.6l0.9,1.9l2,4.6l1.3,1.6l0.8,1l0.7,1.3l1.7,2.4l0.6,2.5l1,3.3l1.4,2.3l1.3,1.9l0.8,3.1l0.3,1.9
		c1.3,1.5,1.9,5.3,1.9,5.3l-0.7,3.1l0.6,3.9l0.4,1.2l-2.5,0.7l0.3,2l-0.1,1.7l-1.1,1.8v1.9l-0.1,1.9l-1.1,2.3l-1.7,0.9l0.6,2.4
		l0.2,1.1l-0.2,1l-0.9,0.7l-3.1,0.8l-1.4,0.3c0,0-1.9,0.3-2.4,0.6c-0.6,0.4-3.3,0.6-3.7,1.1c-0.4,0.6-2.4,1.3-2.4,1.3l0.7,1.9
		L130.8,113.1z"/>
</g>
<g id="Airplane">
	<path class="st0" d="M109.6,205.1l1.8-1.8c0.4,0.4,0.8,0.8,1.2,1.2l-1.8,1.8C110.4,205.9,110,205.5,109.6,205.1z M113.8,205.7
		l1.2,1.2l-1.8,1.8l-1.2-1.2L113.8,205.7z M107.2,202.6l1.8-1.7c0.4,0.4,0.8,0.8,1.2,1.2l-1.8,1.8C108,203.5,107.6,203,107.2,202.6z
		 M104.9,200.1l1.9-1.7c0.4,0.4,0.8,0.8,1.1,1.2l-1.9,1.7C105.7,201,105.3,200.5,104.9,200.1z M102.6,197.6l1.9-1.7
		c0.4,0.4,0.7,0.8,1.1,1.3l-1.9,1.7C103.4,198.4,103,198,102.6,197.6z M100.4,194.9l2-1.6c0.4,0.4,0.7,0.9,1.1,1.3l-1.9,1.6
		C101.2,195.8,100.8,195.4,100.4,194.9z M98.3,192.2l2-1.5c0.3,0.4,0.7,0.9,1,1.3l-2,1.6C99,193.1,98.6,192.7,98.3,192.2z
		 M96.2,189.5l2-1.5c0.3,0.5,0.7,0.9,1,1.3l-2,1.5C96.9,190.4,96.6,190,96.2,189.5z M94.3,186.7l2.1-1.4c0.3,0.5,0.6,0.9,1,1.4
		l-2.1,1.5C94.9,187.6,94.6,187.2,94.3,186.7z M92.4,183.9l2.1-1.4c0.3,0.5,0.6,0.9,0.9,1.4l-2.1,1.4
		C93,184.8,92.7,184.3,92.4,183.9z M90.6,180.9l2.2-1.3c0.3,0.5,0.6,1,0.9,1.4l-2.2,1.3C91.1,181.9,90.9,181.4,90.6,180.9z
		 M88.8,178l2.2-1.2c0.3,0.5,0.5,1,0.8,1.5l-2.2,1.3C89.4,179,89.1,178.5,88.8,178z M87.2,175l2.3-1.2c0.3,0.5,0.5,1,0.8,1.5
		l-2.2,1.2C87.7,176,87.5,175.5,87.2,175z M85.7,171.9l2.3-1.1c0.2,0.5,0.5,1,0.7,1.5l-2.3,1.1C86.2,172.9,85.9,172.4,85.7,171.9z
		 M84.3,168.8l2.3-1c0.2,0.5,0.4,1,0.7,1.5l-2.3,1.1C84.7,169.8,84.5,169.3,84.3,168.8z M82.9,165.6l2.4-0.9c0.2,0.5,0.4,1,0.6,1.6
		l-2.3,1C83.4,166.6,83.2,166.1,82.9,165.6z M81.8,162.4l2.4-0.8c0.2,0.5,0.4,1,0.6,1.6l-2.4,0.9C82.1,163.4,81.9,162.9,81.8,162.4z
		 M80.7,159.1l2.4-0.7c0.2,0.5,0.3,1.1,0.5,1.6l-2.4,0.8C81,160.2,80.8,159.6,80.7,159.1z M79.7,155.8l2.4-0.7
		c0.1,0.5,0.3,1.1,0.4,1.6l-2.4,0.7C80,156.9,79.9,156.3,79.7,155.8z M78.9,152.5l2.5-0.6c0.1,0.5,0.2,1.1,0.4,1.6l-2.5,0.6
		C79.2,153.6,79,153,78.9,152.5z M78.2,149.1l2.5-0.5c0.1,0.5,0.2,1.1,0.3,1.6l-2.5,0.5C78.4,150.2,78.3,149.6,78.2,149.1z
		 M77.7,145.7l2.5-0.4c0.1,0.5,0.2,1.1,0.2,1.7l-2.5,0.4C77.8,146.8,77.8,146.3,77.7,145.7z M77.3,142.3l2.5-0.2
		c0.1,0.6,0.1,1.1,0.2,1.7l-2.5,0.3C77.4,143.4,77.3,142.8,77.3,142.3z M77,138.8l2.5-0.1c0,0.6,0.1,1.1,0.1,1.7l-2.5,0.2
		C77.1,140,77.1,139.4,77,138.8z M76.9,135.4h2.5c0,0.6,0,1.1,0,1.7l-2.5,0.1C77,136.5,76.9,136,76.9,135.4z M77,131.9l2.5,0.1
		c0,0.6,0,1.1,0,1.7H77C77,133.1,77,132.5,77,131.9z M88.1,96.1l2.1,1.3c-0.3,0.5-0.6,0.9-0.9,1.4l-2.2-1.3
		C87.5,97.1,87.7,96.6,88.1,96.1z M89.9,93.2l2.1,1.4c-0.3,0.5-0.6,0.9-0.9,1.4L89,94.6C89.3,94.1,89.6,93.7,89.9,93.2z M91.9,90.4
		l2,1.5c-0.3,0.4-0.7,0.9-1,1.3l-2.1-1.5C91.3,91.3,91.6,90.9,91.9,90.4z M94.1,87.7l2,1.6c-0.4,0.4-0.7,0.9-1,1.3l-2-1.6
		C93.3,88.6,93.7,88.1,94.1,87.7z M96.3,85.1l1.9,1.7c-0.4,0.4-0.7,0.8-1.1,1.3l-1.9-1.7C95.6,85.9,95.9,85.5,96.3,85.1z M98.7,82.6
		l1.8,1.8c-0.4,0.4-0.8,0.8-1.1,1.2l-1.9-1.7C97.9,83.4,98.3,83,98.7,82.6z M99.9,81.3c0.4-0.4,0.8-0.8,1.2-1.2l1.8,1.8
		c-0.4,0.4-0.8,0.8-1.2,1.2L99.9,81.3z M102.3,79c0.4-0.4,0.8-0.8,1.3-1.2l1.7,1.9c-0.4,0.4-0.8,0.7-1.2,1.1L102.3,79z M104.9,76.7
		c0.4-0.4,0.9-0.7,1.3-1.1l1.6,1.9c-0.4,0.4-0.9,0.7-1.3,1.1L104.9,76.7z M107.6,74.5c0.4-0.4,0.9-0.7,1.4-1.1l1.5,2
		c-0.4,0.3-0.9,0.7-1.3,1L107.6,74.5z M110.3,72.4c0.5-0.3,0.9-0.7,1.4-1l1.5,2.1c-0.5,0.3-0.9,0.7-1.4,1L110.3,72.4z M113.1,70.4
		c0.5-0.3,0.9-0.6,1.4-1l1.4,2.1c-0.5,0.3-0.9,0.6-1.4,0.9L113.1,70.4z M116,68.5c0.5-0.3,1-0.6,1.5-0.9l1.3,2.2
		c-0.5,0.3-0.9,0.6-1.4,0.9L116,68.5z M118.9,66.7c0.5-0.3,1-0.6,1.5-0.9l1.2,2.2c-0.5,0.3-1,0.5-1.5,0.8L118.9,66.7z M121.9,65
		c0.5-0.3,1-0.5,1.5-0.8l1.1,2.3c-0.5,0.2-1,0.5-1.5,0.8L121.9,65z M125,63.5c0.5-0.2,1-0.5,1.6-0.7l1.1,2.3c-0.5,0.2-1,0.5-1.5,0.7
		L125,63.5z M128.1,62.1c0.5-0.2,1.1-0.5,1.6-0.7l1,2.3c-0.5,0.2-1,0.4-1.5,0.7L128.1,62.1z M131.3,60.8c0.5-0.2,1.1-0.4,1.6-0.6
		l0.9,2.4c-0.5,0.2-1,0.4-1.6,0.6L131.3,60.8z M134.5,59.6c0.5-0.2,1.1-0.4,1.6-0.5l0.8,2.4c-0.5,0.2-1.1,0.3-1.6,0.5L134.5,59.6z
		 M137.8,58.5c0.5-0.2,1.1-0.3,1.7-0.5l0.7,2.4c-0.5,0.2-1.1,0.3-1.6,0.5L137.8,58.5z M141.1,57.6c0.6-0.1,1.1-0.3,1.7-0.4l0.6,2.5
		c-0.5,0.1-1.1,0.3-1.6,0.4L141.1,57.6z M144.4,56.8c0.6-0.1,1.1-0.2,1.7-0.3l0.5,2.5c-0.5,0.1-1.1,0.2-1.6,0.3L144.4,56.8z"/>
	<path class="st0" d="M80.7,126.2c0,0-1.5,2.9-2.8,2.6l0,0l0,0h-0.1l0,0c-1.2-0.5-0.9-3.7-0.9-3.7c0-1.6,1.5-6.2,1.5-6.2l-1-1.1
		l-0.2,0.7c-0.2,0.6-0.5,0.4-0.5,0.4l-1.4-0.4c-0.4-0.1-0.3-0.6-0.3-0.6l0.6-1.8l-1.4-1.5l-0.2,0.7c-0.1,0.4-0.4,0.3-0.4,0.3
		l-1.5-0.5c-0.4-0.1-0.3-0.5-0.3-0.5l0.6-1.9l-4.1-4.4l0.3-1.1l9.5,5.3l2.1,0.7c0.4-1.8,3-7.7,3-7.7l-4-4l0.4-1.5l4.9,2.9
		c0.3-1.2,1.9-2.9,1.9-2.9v0.1V100c0,0,0.4,2.3,0,3.4l5.7,0.4l-0.5,1.5l-5.6,1.1c0,0-1.2,6.4-1.8,8.1l2.1,0.7l10.8,1L97,117
		l-5.9,1.4l-0.6,1.9c0,0-0.1,0.4-0.5,0.2l-1.5-0.5c0,0-0.2-0.1-0.1-0.5l0.2-0.7l-2,0.5l-0.5,1.8c0,0-0.2,0.5-0.6,0.4l-1.4-0.4
		c0,0-0.3,0-0.1-0.6l0.2-0.7l-1.4,0.4C82.9,120.2,81.6,124.8,80.7,126.2"/>
</g>
<g id="Sth_Island_Bot_Route">
	<g id="Sth_Island_Bot_Route_1_" class="st1">
		<g class="st2">
			<path class="st3" d="M81.6,204.7c0,2.5-2,4.5-4.5,4.5s-4.5-2-4.5-4.5s2-4.5,4.5-4.5S81.6,202.2,81.6,204.7"/>
			<path class="st3" d="M84.4,216.4c0,2.5-2,4.5-4.5,4.5s-4.5-2-4.5-4.5s2-4.5,4.5-4.5S84.4,213.9,84.4,216.4"/>
			<path class="st3" d="M59.7,247.3c0,2.5-2,4.5-4.5,4.5s-4.5-2-4.5-4.5s2-4.5,4.5-4.5C57.6,242.8,59.7,244.9,59.7,247.3"/>
			<path class="st3" d="M45.3,240.7c0,2.5-2,4.5-4.5,4.5s-4.5-2-4.5-4.5s2-4.5,4.5-4.5C43.3,236.2,45.3,238.2,45.3,240.7"/>
		</g>
		<path class="st4" d="M133.7,211c0,4.1-3.3,7.4-7.4,7.4s-7.4-3.3-7.4-7.4c0-4.1,3.3-7.4,7.4-7.4S133.7,206.9,133.7,211"/>
		<g class="st2">
			<path class="st3" d="M55.2,248.8c-0.1,0-0.3,0-0.4-0.1c-0.6-0.2-1-0.7-1-1.3L52,222.3c0-0.5,0.2-1,0.6-1.3l23.7-17.5
				c0.3-0.2,0.7-0.3,1.1-0.3l49.4,6.3c0.8,0.1,1.3,0.7,1.3,1.5s-0.6,1.4-1.3,1.5l-46,5.6l-24.3,30.2C56,248.6,55.6,248.8,55.2,248.8
				z M54.9,222.9l1.5,20.5l22.3-27.7c0.2-0.3,0.6-0.5,1-0.5l34.7-4.2l-36.9-4.7L54.9,222.9z"/>
		</g>
		<path class="st5" d="M130.1,211c0,2.1-1.7,3.8-3.8,3.8c-2.1,0-3.8-1.7-3.8-3.8s1.7-3.8,3.8-3.8C128.5,207.2,130.1,208.9,130.1,211
			"/>
		<path class="st4" d="M48.3,245.6l1-2.2l1.5,0.7l-1,2.2L48.3,245.6z M45.3,244.2l1-2.2l1.5,0.7l-1,2.2L45.3,244.2z"/>
	</g>
	<g id="Sth_Island_Bot_Names" class="st1">
		<text transform="matrix(1 0 0 1 12.2734 203.5335)" class="st6 st7 st8">F</text>
		<text transform="matrix(1 0 0 1 18.7184 203.5335)" class="st6 st7 st8">r</text>
		<text transform="matrix(1 0 0 1 23.2944 203.5335)" class="st6 st7 st8">a</text>
		<text transform="matrix(1 0 0 1 29.4494 203.5335)" class="st6 st7 st8">n</text>
		<text transform="matrix(1 0 0 1 36.0174 203.5335)" class="st6 st7 st8">z </text>
		<text transform="matrix(1 0 0 1 44.7114 203.5335)" class="st6 st7 st8">J</text>
		<text transform="matrix(1 0 0 1 48.9084 203.5335)" class="st6 st7 st8">o</text>
		<text transform="matrix(1 0 0 1 55.4424 203.5335)" class="st6 st7 st8">s</text>
		<text transform="matrix(1 0 0 1 61.0084 203.5335)" class="st6 st7 st8">e</text>
		<text transform="matrix(1 0 0 1 67.1534 203.5335)" class="st6 st7 st8">f</text>
		<g class="st2">
			<text transform="matrix(1 0 0 1 45.2842 261.8431)" class="st9 st7 st8">Q</text>
			<text transform="matrix(1 0 0 1 54.2012 261.8431)" class="st9 st7 st8">u</text>
			<text transform="matrix(1 0 0 1 60.8022 261.8431)" class="st9 st7 st8">e</text>
			<text transform="matrix(1 0 0 1 66.9132 261.8431)" class="st9 st7 st8">e</text>
			<text transform="matrix(1 0 0 1 73.0132 261.8431)" class="st9 st7 st8">n</text>
			<text transform="matrix(1 0 0 1 79.6702 261.8431)" class="st9 st7 st8">s</text>
			<text transform="matrix(1 0 0 1 85.4142 261.8431)" class="st9 st7 st8">t</text>
			<text transform="matrix(1 0 0 1 89.6442 261.8431)" class="st9 st7 st8">o</text>
			<text transform="matrix(1 0 0 1 96.1012 261.8431)" class="st9 st7 st8">w</text>
			<text transform="matrix(1 0 0 1 105.7742 261.8431)" class="st9 st7 st8">n</text>
		</g>
		<text transform="matrix(1 0 0 1 -40.6045 242.845)" class="st6 st7 st8">M</text>
		<text transform="matrix(1 0 0 1 -30.9975 242.845)" class="st6 st7 st8">i</text>
		<text transform="matrix(1 0 0 1 -28.0145 242.845)" class="st6 st7 st8">l</text>
		<text transform="matrix(1 0 0 1 -24.8975 242.845)" class="st6 st7 st8">f</text>
		<text transform="matrix(1 0 0 1 -20.7235 242.845)" class="st6 st7 st8">o</text>
		<text transform="matrix(1 0 0 1 -14.1665 242.845)" class="st6 st7 st8">r</text>
		<text transform="matrix(1 0 0 1 -9.6805 242.845)" class="st6 st7 st8">d </text>
		<text transform="matrix(1 0 0 1 2.648926e-002 242.845)" class="st6 st7 st8">S</text>
		<text transform="matrix(1 0 0 1 7.3845 242.845)" class="st6 st7 st8">ou</text>
		<text transform="matrix(1 0 0 1 20.5425 242.845)" class="st6 st7 st8">n</text>
		<text transform="matrix(1 0 0 1 27.2215 242.845)" class="st6 st7 st8">d</text>
		<text transform="matrix(1 0 0 1 78.084 231.805)" class="st6 st7 st8">M</text>
		<text transform="matrix(1 0 0 1 87.757 231.805)" class="st6 st7 st8">t </text>
		<text transform="matrix(1 0 0 1 94.882 231.805)" class="st6 st7 st8">C</text>
		<text transform="matrix(1 0 0 1 102.641 231.805)" class="st6 st7 st8">o</text>
		<text transform="matrix(1 0 0 1 109.23 231.805)" class="st6 st7 st8">o</text>
		<text transform="matrix(1 0 0 1 115.787 231.805)" class="st6 st7 st8">k</text>
	</g>
</g>
<g id="Sth_Island_Top_Route">
	<g id="Sth_Island_Top_Route_1_">
		<path class="st3" d="M90.2,186.8c0,2.1-1.7,3.8-3.8,3.8s-3.8-1.7-3.8-3.8s1.7-3.8,3.8-3.8S90.2,184.7,90.2,186.8"/>
		<path class="st3" d="M118.2,183.5c0,2.1-1.7,3.8-3.8,3.8c-2.1,0-3.8-1.7-3.8-3.8s1.7-3.8,3.8-3.8S118.2,181.4,118.2,183.5"/>
		<path class="st3" d="M134.8,182.6c0,2.1-1.7,3.8-3.8,3.8s-3.8-1.7-3.8-3.8s1.7-3.8,3.8-3.8S134.8,180.5,134.8,182.6"/>
		<path class="st3" d="M122.7,153.3c0,2.1-1.7,3.8-3.8,3.8c-2.1,0-3.8-1.7-3.8-3.8s1.7-3.8,3.8-3.8S122.7,151.2,122.7,153.3"/>
		<path class="st3" d="M99.7,168.9c0,2.1-1.7,3.8-3.8,3.8c-2.1,0-3.8-1.7-3.8-3.8s1.7-3.8,3.8-3.8C98,165.1,99.7,166.8,99.7,168.9"
			/>
		<path class="st3" d="M113.9,209.4c-0.3,0-0.5-0.1-0.8-0.3l-27.8-20.9c-0.5-0.4-0.6-1-0.4-1.6l9.5-18.4c0.1-0.2,0.2-0.4,0.4-0.5
			l23.3-15.6c0.4-0.3,0.9-0.3,1.3-0.1s0.7,0.7,0.7,1.1v5.8h15.5c0.4,0,0.7,0.2,1,0.5c0.2,0.3,0.3,0.7,0.3,1.1l-4.7,22.2
			c-0.1,0.6-0.6,1-1.2,1l-15.4,0.9l-0.5,23.4c0,0.5-0.3,0.9-0.7,1.1C114.2,209.4,114.1,209.4,113.9,209.4z M87.7,186.9l25,18.7
			l0.5-22.2c0-0.7,0.5-1.2,1.2-1.2l15.6-0.9l4.2-19.7H119c-0.7,0-1.3-0.6-1.3-1.3v-4.7l-21.1,14.1L87.7,186.9z"/>
		<path class="st3" d="M120,208.2c0,3.4-2.8,6.2-6.2,6.2c-3.4,0-6.2-2.8-6.2-6.2s2.8-6.2,6.2-6.2C117.2,201.9,120,204.7,120,208.2"
			/>
		<path class="st0" d="M116.9,208.2c0,1.8-1.4,3.2-3.2,3.2c-1.8,0-3.2-1.4-3.2-3.2s1.4-3.2,3.2-3.2S116.9,206.4,116.9,208.2"/>
	</g>
	<g id="Sth_Island_Top_Names" class="st1">
		<text transform="matrix(1 0 0 1 79.7763 147.5504)" class="st6 st7 st10">A</text>
		<text transform="matrix(1 0 0 1 86.9374 147.5504)" class="st6 st7 st10">be</text>
		<text transform="matrix(1 0 0 1 97.8964 147.5504)" class="st6 st7 st10">l </text>
		<text transform="matrix(1 0 0 1 102.8315 147.5504)" class="st6 st7 st10">T</text>
		<text transform="matrix(1 0 0 1 108.0468 147.5504)" class="st6 st7 st10">a</text>
		<text transform="matrix(1 0 0 1 113.245 147.5504)" class="st6 st7 st10">s</text>
		<text transform="matrix(1 0 0 1 117.953 147.5504)" class="st6 st7 st10">m</text>
		<text transform="matrix(1 0 0 1 126.2607 147.5504)" class="st6 st7 st10">a</text>
		<text transform="matrix(1 0 0 1 131.4687 147.5504)" class="st6 st7 st10">n</text>
		<text transform="matrix(1 0 0 1 45.3437 184.6315)" class="st6 st7 st10">H</text>
		<text transform="matrix(1 0 0 1 52.7587 184.6315)" class="st6 st7 st10">o</text>
		<text transform="matrix(1 0 0 1 58.2948 184.6315)" class="st6 st7 st10">k</text>
		<text transform="matrix(1 0 0 1 63.474 184.6315)" class="st6 st7 st10">i</text>
		<text transform="matrix(1 0 0 1 66.1049 184.6315)" class="st6 st7 st10">t</text>
		<text transform="matrix(1 0 0 1 69.7802 184.6315)" class="st6 st7 st10">i</text>
		<text transform="matrix(1 0 0 1 72.2987 184.6315)" class="st6 st7 st10">k</text>
		<text transform="matrix(1 0 0 1 77.496 184.6315)" class="st6 st7 st10">a</text>
		<text transform="matrix(1 0 0 1 137.7636 162.6461)" class="st6 st7 st10">Marlborough</text>
		<text transform="matrix(1 0 0 1 54.516 163.4098)" class="st6 st7 st10">P</text>
		<text transform="matrix(1 0 0 1 60.851 163.4098)" class="st6 st7 st10">u</text>
		<text transform="matrix(1 0 0 1 66.4149 163.4098)" class="st6 st7 st10">n</text>
		<text transform="matrix(1 0 0 1 72.0165 163.4098)" class="st6 st7 st10">a</text>
		<text transform="matrix(1 0 0 1 77.2133 163.4098)" class="st6 st7 st10">k</text>
		<text transform="matrix(1 0 0 1 82.3925 163.4098)" class="st6 st7 st10">ai</text>
		<text transform="matrix(1 0 0 1 90.1 163.4098)" class="st6 st7 st10">k</text>
		<text transform="matrix(1 0 0 1 95.2782 163.4098)" class="st6 st7 st10">i</text>
		<text transform="matrix(1 0 0 1 136.0839 180.7165)" class="st6 st7 st10">K</text>
		<text transform="matrix(1 0 0 1 142.5321 180.7165)" class="st6 st7 st10">a</text>
		<text transform="matrix(1 0 0 1 147.7196 180.7165)" class="st6 st7 st10">i</text>
		<text transform="matrix(1 0 0 1 150.2284 180.7165)" class="st6 st7 st10">k</text>
		<text transform="matrix(1 0 0 1 155.3319 180.7165)" class="st6 st7 st10">o</text>
		<text transform="matrix(1 0 0 1 160.8681 180.7165)" class="st6 st7 st10">u</text>
		<text transform="matrix(1 0 0 1 166.4315 180.7165)" class="st6 st7 st10">r</text>
		<text transform="matrix(1 0 0 1 170.2948 180.7165)" class="st6 st7 st10">a</text>
		<text transform="matrix(1 0 0 1 117.808 194.3014)" class="st6 st7 st10">H</text>
		<text transform="matrix(1 0 0 1 125.1855 194.3014)" class="st6 st7 st10">a</text>
		<text transform="matrix(1 0 0 1 130.3837 194.3014)" class="st6 st7 st10">mn</text>
		<text transform="matrix(1 0 0 1 144.3505 194.3014)" class="st6 st7 st10">e</text>
		<text transform="matrix(1 0 0 1 149.4999 194.3014)" class="st6 st7 st10">r </text>
		<text transform="matrix(1 0 0 1 155.6464 194.3014)" class="st6 st7 st10">S</text>
		<text transform="matrix(1 0 0 1 161.831 194.3014)" class="st6 st7 st10">p</text>
		<text transform="matrix(1 0 0 1 167.6298 194.3014)" class="st6 st7 st10">r</text>
		<text transform="matrix(1 0 0 1 171.4833 194.3014)" class="st6 st7 st10">in</text>
		<text transform="matrix(1 0 0 1 179.6132 194.3014)" class="st6 st7 st10">g</text>
		<text transform="matrix(1 0 0 1 185.4394 194.3014)" class="st6 st7 st10">s</text>
	</g>
</g>
<g id="Christchurch">
	<text transform="matrix(1 0 0 1 115.3954 225.8805)" class="st11 st7 st12">C</text>
	<text transform="matrix(1 0 0 1 124.5673 225.8805)" class="st11 st7 st12">h</text>
	<text transform="matrix(1 0 0 1 132.7939 225.8805)" class="st11 st7 st12">r</text>
	<text transform="matrix(1 0 0 1 138.6034 225.8805)" class="st11 st7 st12">i</text>
	<text transform="matrix(1 0 0 1 142.4804 225.8805)" class="st11 st7 st12">s</text>
	<text transform="matrix(1 0 0 1 149.2743 225.8805)" class="st11 st7 st12">t</text>
	<text transform="matrix(1 0 0 1 154.8144 225.8805)" class="st11 st7 st12">c</text>
	<text transform="matrix(1 0 0 1 161.7157 225.8805)" class="st11 st7 st12">h</text>
	<text transform="matrix(1 0 0 1 169.9159 225.8805)" class="st11 st7 st12">u</text>
	<text transform="matrix(1 0 0 1 178.0614 225.8805)" class="st11 st7 st12">r</text>
	<text transform="matrix(1 0 0 1 183.7763 225.8805)" class="st11 st7 st12">c</text>
	<text transform="matrix(1 0 0 1 190.6786 225.8805)" class="st11 st7 st12">h</text>
</g>
<g id="Nth_IslandsRoute">
	<g id="Nth_Island_Names">
		<g id="Nth_Island_Route">
			<path class="st3" d="M165.8,104l-1.7-1.2l0.8-1.2l1.7,1.2L165.8,104z M164.2,106.3l-1.7-1.2l0.8-1.2l1.7,1.2L164.2,106.3z"/>
			<path class="st3" d="M169.7,60.9c0,2.1-1.7,3.8-3.8,3.8s-3.8-1.7-3.8-3.8c0-2.1,1.7-3.8,3.8-3.8S169.7,58.8,169.7,60.9"/>
			<path class="st3" d="M152.9,80.2c0,2.1-1.7,3.8-3.8,3.8s-3.8-1.7-3.8-3.8c0-2.1,1.7-3.8,3.8-3.8
				C151.2,76.4,152.9,78.1,152.9,80.2"/>
			<path class="st3" d="M156.7,90.6c0,2.1-1.7,3.8-3.8,3.8s-3.8-1.7-3.8-3.8c0-2.1,1.7-3.8,3.8-3.8C155,86.8,156.7,88.5,156.7,90.6"
				/>
			<path class="st3" d="M175.8,86.4c0,2.1-1.7,3.8-3.8,3.8s-3.8-1.7-3.8-3.8c0-2.1,1.7-3.8,3.8-3.8S175.8,84.3,175.8,86.4"/>
			<path class="st3" d="M172,98.2c0,2.1-1.7,3.8-3.8,3.8s-3.8-1.7-3.8-3.8c0-2.1,1.7-3.8,3.8-3.8C170.3,94.4,172,96.1,172,98.2"/>
			<path class="st3" d="M164.3,109.9c0,2.1-1.7,3.8-3.8,3.8s-3.8-1.7-3.8-3.8c0-2.1,1.7-3.8,3.8-3.8S164.3,107.8,164.3,109.9"/>
			<path class="st3" d="M168,99.5c-0.2,0-0.4,0-0.6-0.1l-15.2-7.6c-0.3-0.1-0.5-0.4-0.6-0.7l-3.8-10.4c0-0.1,0-0.1-0.1-0.2
				l-4.5-23.1c-0.1-0.5,0.1-1.1,0.6-1.3c0.5-0.3,1.1-0.2,1.5,0.2l13,12l6.8-8.2c0.3-0.4,0.8-0.5,1.3-0.4s0.8,0.5,0.9,0.9l5.8,25.6
				c0.1,0.2,0,0.5,0,0.7l-4,11.8c-0.1,0.3-0.4,0.6-0.7,0.8C168.3,99.4,168.2,99.5,168,99.5z M153.9,89.7l13.4,6.7l3.4-10.1
				l-5.2-22.7l-6,7.2c-0.2,0.3-0.5,0.4-0.9,0.5c-0.3,0-0.7-0.1-0.9-0.3l-11.1-10.3l3.7,19.1L153.9,89.7z"/>
			<path class="st3" d="M151.3,57.7c0,3.4-2.8,6.2-6.2,6.2s-6.2-2.8-6.2-6.2c0-3.4,2.8-6.2,6.2-6.2c0.9,0,1.7,0.2,2.4,0.5
				C149.7,53,151.3,55.2,151.3,57.7"/>
			<path class="st0" d="M148.2,57.7c0,1.8-1.4,3.2-3.2,3.2s-3.2-1.4-3.2-3.2c0-1.8,1.4-3.2,3.2-3.2S148.2,56,148.2,57.7"/>
		</g>
		<g id="Nth_Island_Names_1_" class="st1">
			<text transform="matrix(1 0 0 1 170.869 59.9845)" class="st6 st7 st10">C</text>
			<text transform="matrix(1 0 0 1 177.411 59.9845)" class="st6 st7 st10">o</text>
			<text transform="matrix(1 0 0 1 182.956 59.9845)" class="st6 st7 st10">r</text>
			<text transform="matrix(1 0 0 1 186.7157 59.9845)" class="st6 st7 st10">o</text>
			<text transform="matrix(1 0 0 1 192.2509 59.9845)" class="st6 st7 st10">m</text>
			<text transform="matrix(1 0 0 1 200.5595 59.9845)" class="st6 st7 st10">a</text>
			<text transform="matrix(1 0 0 1 205.7665 59.9845)" class="st6 st7 st10">n</text>
			<text transform="matrix(1 0 0 1 211.4062 59.9845)" class="st6 st7 st10">d</text>
			<text transform="matrix(1 0 0 1 217.1845 59.9845)" class="st6 st7 st10">e</text>
			<text transform="matrix(1 0 0 1 222.3358 59.9845)" class="st6 st7 st10">l</text>
			<text transform="matrix(1 0 0 1 112.8505 81.5954)" class="st6 st7 st10">Ra</text>
			<text transform="matrix(1 0 0 1 124.683 81.5954)" class="st6 st7 st10">g</text>
			<text transform="matrix(1 0 0 1 130.5004 81.5954)" class="st6 st7 st10">l</text>
			<text transform="matrix(1 0 0 1 133.0009 81.5954)" class="st6 st7 st10">a</text>
			<text transform="matrix(1 0 0 1 138.2079 81.5954)" class="st6 st7 st10">n</text>
			<text transform="matrix(1 0 0 1 107.8446 96.5919)" class="st6 st7 st10">W</text>
			<text transform="matrix(1 0 0 1 118.1171 96.5919)" class="st6 st7 st10">a</text>
			<text transform="matrix(1 0 0 1 123.3056 96.5919)" class="st6 st7 st10">i</text>
			<text transform="matrix(1 0 0 1 125.9374 96.5919)" class="st6 st7 st10">t</text>
			<text transform="matrix(1 0 0 1 129.5087 96.5919)" class="st6 st7 st10">om</text>
			<text transform="matrix(1 0 0 1 143.3993 96.5919)" class="st6 st7 st10">o</text>
			<text transform="matrix(1 0 0 1 173.2392 100.5138)" class="st6 st7 st10">T</text>
			<text transform="matrix(1 0 0 1 178.455 100.5138)" class="st6 st7 st10">a</text>
			<text transform="matrix(1 0 0 1 183.6435 100.5138)" class="st6 st7 st10">u</text>
			<text transform="matrix(1 0 0 1 189.2167 100.5138)" class="st6 st7 st10">p</text>
			<text transform="matrix(1 0 0 1 195.0253 100.5138)" class="st6 st7 st10">o</text>
			<text transform="matrix(1 0 0 1 175.7724 82.6164)" class="st6 st7 st10">R</text>
			<text transform="matrix(1 0 0 1 182.3798 82.6164)" class="st6 st7 st10">o</text>
			<text transform="matrix(1 0 0 1 187.9433 82.6164)" class="st6 st7 st10">t</text>
			<text transform="matrix(1 0 0 1 191.5146 82.6164)" class="st6 st7 st10">o</text>
			<text transform="matrix(1 0 0 1 197.0595 82.6164)" class="st6 st7 st10">r</text>
			<text transform="matrix(1 0 0 1 200.9315 82.6164)" class="st6 st7 st10">u</text>
			<text transform="matrix(1 0 0 1 206.4677 82.6164)" class="st6 st7 st10">a</text>
			<text transform="matrix(1 0 0 1 139.0399 119.4337)" class="st6 st7 st10">T</text>
			<text transform="matrix(1 0 0 1 144.2851 119.4337)" class="st6 st7 st10">o</text>
			<text transform="matrix(1 0 0 1 149.8212 119.4337)" class="st6 st7 st10">n</text>
			<text transform="matrix(1 0 0 1 155.4403 119.4337)" class="st6 st7 st10">g</text>
			<text transform="matrix(1 0 0 1 161.2294 119.4337)" class="st6 st7 st10">a</text>
			<text transform="matrix(1 0 0 1 166.4276 119.4337)" class="st6 st7 st10">r</text>
			<text transform="matrix(1 0 0 1 170.2802 119.4337)" class="st6 st7 st10">i</text>
			<text transform="matrix(1 0 0 1 172.7909 119.4337)" class="st6 st7 st10">r</text>
			<text transform="matrix(1 0 0 1 176.5497 119.4337)" class="st6 st7 st10">o</text>
		</g>
	</g>
</g>
<g id="Auckland">
	<text transform="matrix(1 0 0 1 75.1039 60.9342)" class="st11 st7 st12">Auckland</text>
</g>
<g id="Layer_14">
</g>
</svg>
