<?xml version="1.0" encoding="utf-8"?>
<!-- Generator: Adobe Illustrator 16.0.0, SVG Export Plug-In . SVG Version: 6.00 Build 0)  -->
<!DOCTYPE svg PUBLIC "-//W3C//DTD SVG 1.1//EN" "http://www.w3.org/Graphics/SVG/1.1/DTD/svg11.dtd">
<svg version="1.1" id="Layer_1" xmlns="http://www.w3.org/2000/svg" xmlns:xlink="http://www.w3.org/1999/xlink" x="0px" y="0px"
	 width="200px" height="200px" viewBox="0 0 200 200" enable-background="new 0 0 200 200" xml:space="preserve">
<path fill="#172F57" d="M101.233,201.235c55.225,0,100-44.775,100-100s-44.775-100-100-100s-99.998,44.776-99.998,100
	S46.009,201.235,101.233,201.235"/>
<polygon fill="#FFFFFF" points="120.678,81.792 192.9,101.237 120.678,120.683 101.232,192.901 81.787,120.683 9.568,101.235 
	81.787,81.792 101.232,9.569 "/>
<polygon fill="none" stroke="#FFFFFF" stroke-width="10" stroke-miterlimit="10" points="66.133,101.236 51.594,51.594 
	101.232,66.137 150.875,51.594 136.334,101.236 150.873,150.877 101.234,136.336 51.594,150.877 "/>
<path fill="#172F57" d="M121.558,101.233c0,11.225-9.1,20.324-20.324,20.324c-11.222,0-20.321-9.1-20.321-20.324
	c0-11.222,9.1-20.321,20.321-20.321C112.458,80.912,121.558,90.012,121.558,101.233z"/>
<path fill="#FFFFFF" d="M111.554,101.234c0,5.701-4.621,10.32-10.321,10.32c-5.695,0-10.316-4.619-10.316-10.32
	c0-5.697,4.621-10.318,10.316-10.318C106.933,90.916,111.554,95.537,111.554,101.234z"/>
</svg>
